0
SECTION
2
HEADER
9
$ANGDIR
70
1
9
$AUNITS
70
0
9
$PROJECTNAME
1
robot_main_board
9
$TDCREATE
40
2458853.14845032
9
$INSUNITS
70
4
0
ENDSEC
0
SECTION
2
ENTITIES
0
POLYLINE
66
1
8
outline
10
0.0
20
0.0
30
0.0
70
1
0
VERTEX
8
0
10
0
20
-43.18
30
0
0
VERTEX
8
0
10
100
20
-43.18
30
0
0
VERTEX
8
0
10
100
20
80
30
0
0
VERTEX
8
0
10
0
20
80
30
0
0
VERTEX
8
0
10
0
20
-43.18
30
0
0
SEQEND
0
POLYLINE
66
1
8
1_copper
10
0.0
20
0.0
30
0.0
70
1
0
VERTEX
8
0
10
33.9598
20
59.300725
30
0
0
VERTEX
8
0
10
33.9598
20
60.079275
30
0
0
VERTEX
8
0
10
33.409275
20
60.6298
30
0
0
VERTEX
8
0
10
32.630725
20
60.6298
30
0
0
VERTEX
8
0
10
32.080200000000005
20
60.079275
30
0
0
VERTEX
8
0
10
32.080200000000005
20
59.300725
30
0
0
VERTEX
8
0
10
32.630725
20
58.7502
30
0
0
VERTEX
8
0
10
33.409275
20
58.7502
30
0
0
SEQEND
0
POLYLINE
66
1
8
1_copper
10
0.0
20
0.0
30
0.0
70
1
0
VERTEX
8
0
10
36.4998
20
59.300725
30
0
0
VERTEX
8
0
10
36.4998
20
60.079275
30
0
0
VERTEX
8
0
10
35.949275
20
60.6298
30
0
0
VERTEX
8
0
10
35.170725000000004
20
60.6298
30
0
0
VERTEX
8
0
10
34.620200000000004
20
60.079275
30
0
0
VERTEX
8
0
10
34.620200000000004
20
59.300725
30
0
0
VERTEX
8
0
10
35.170725000000004
20
58.7502
30
0
0
VERTEX
8
0
10
35.949275
20
58.7502
30
0
0
SEQEND
0
POLYLINE
66
1
8
1_copper
10
0.0
20
0.0
30
0.0
70
1
0
VERTEX
8
0
10
33.9598
20
56.760725
30
0
0
VERTEX
8
0
10
33.9598
20
57.539275
30
0
0
VERTEX
8
0
10
33.409275
20
58.089800000000004
30
0
0
VERTEX
8
0
10
32.630725
20
58.089800000000004
30
0
0
VERTEX
8
0
10
32.080200000000005
20
57.539275
30
0
0
VERTEX
8
0
10
32.080200000000005
20
56.760725
30
0
0
VERTEX
8
0
10
32.630725
20
56.2102
30
0
0
VERTEX
8
0
10
33.409275
20
56.2102
30
0
0
SEQEND
0
POLYLINE
66
1
8
1_copper
10
0.0
20
0.0
30
0.0
70
1
0
VERTEX
8
0
10
36.4998
20
56.760725
30
0
0
VERTEX
8
0
10
36.4998
20
57.539275
30
0
0
VERTEX
8
0
10
35.949275
20
58.089800000000004
30
0
0
VERTEX
8
0
10
35.170725000000004
20
58.089800000000004
30
0
0
VERTEX
8
0
10
34.620200000000004
20
57.539275
30
0
0
VERTEX
8
0
10
34.620200000000004
20
56.760725
30
0
0
VERTEX
8
0
10
35.170725000000004
20
56.2102
30
0
0
VERTEX
8
0
10
35.949275
20
56.2102
30
0
0
SEQEND
0
POLYLINE
66
1
8
16_copper
10
0.0
20
0.0
30
0.0
70
1
0
VERTEX
8
0
10
33.9598
20
59.300725
30
0
0
VERTEX
8
0
10
33.9598
20
60.079275
30
0
0
VERTEX
8
0
10
33.409275
20
60.6298
30
0
0
VERTEX
8
0
10
32.630725
20
60.6298
30
0
0
VERTEX
8
0
10
32.080200000000005
20
60.079275
30
0
0
VERTEX
8
0
10
32.080200000000005
20
59.300725
30
0
0
VERTEX
8
0
10
32.630725
20
58.7502
30
0
0
VERTEX
8
0
10
33.409275
20
58.7502
30
0
0
SEQEND
0
POLYLINE
66
1
8
16_copper
10
0.0
20
0.0
30
0.0
70
1
0
VERTEX
8
0
10
36.4998
20
59.300725
30
0
0
VERTEX
8
0
10
36.4998
20
60.079275
30
0
0
VERTEX
8
0
10
35.949275
20
60.6298
30
0
0
VERTEX
8
0
10
35.170725000000004
20
60.6298
30
0
0
VERTEX
8
0
10
34.620200000000004
20
60.079275
30
0
0
VERTEX
8
0
10
34.620200000000004
20
59.300725
30
0
0
VERTEX
8
0
10
35.170725000000004
20
58.7502
30
0
0
VERTEX
8
0
10
35.949275
20
58.7502
30
0
0
SEQEND
0
POLYLINE
66
1
8
16_copper
10
0.0
20
0.0
30
0.0
70
1
0
VERTEX
8
0
10
33.9598
20
56.760725
30
0
0
VERTEX
8
0
10
33.9598
20
57.539275
30
0
0
VERTEX
8
0
10
33.409275
20
58.089800000000004
30
0
0
VERTEX
8
0
10
32.630725
20
58.089800000000004
30
0
0
VERTEX
8
0
10
32.080200000000005
20
57.539275
30
0
0
VERTEX
8
0
10
32.080200000000005
20
56.760725
30
0
0
VERTEX
8
0
10
32.630725
20
56.2102
30
0
0
VERTEX
8
0
10
33.409275
20
56.2102
30
0
0
SEQEND
0
POLYLINE
66
1
8
16_copper
10
0.0
20
0.0
30
0.0
70
1
0
VERTEX
8
0
10
36.4998
20
56.760725
30
0
0
VERTEX
8
0
10
36.4998
20
57.539275
30
0
0
VERTEX
8
0
10
35.949275
20
58.089800000000004
30
0
0
VERTEX
8
0
10
35.170725000000004
20
58.089800000000004
30
0
0
VERTEX
8
0
10
34.620200000000004
20
57.539275
30
0
0
VERTEX
8
0
10
34.620200000000004
20
56.760725
30
0
0
VERTEX
8
0
10
35.170725000000004
20
56.2102
30
0
0
VERTEX
8
0
10
35.949275
20
56.2102
30
0
0
SEQEND
0
POLYLINE
66
1
8
1_copper
10
0.0
20
0.0
30
0.0
70
1
0
VERTEX
8
0
10
61.899800000000006
20
59.300725
30
0
0
VERTEX
8
0
10
61.899800000000006
20
60.079275
30
0
0
VERTEX
8
0
10
61.349275000000006
20
60.6298
30
0
0
VERTEX
8
0
10
60.570725
20
60.6298
30
0
0
VERTEX
8
0
10
60.0202
20
60.079275
30
0
0
VERTEX
8
0
10
60.0202
20
59.300725
30
0
0
VERTEX
8
0
10
60.570725
20
58.7502
30
0
0
VERTEX
8
0
10
61.349275000000006
20
58.7502
30
0
0
SEQEND
0
POLYLINE
66
1
8
16_copper
10
0.0
20
0.0
30
0.0
70
1
0
VERTEX
8
0
10
61.899800000000006
20
59.300725
30
0
0
VERTEX
8
0
10
61.899800000000006
20
60.079275
30
0
0
VERTEX
8
0
10
61.595000000000006
20
60.384075
30
0
0
VERTEX
8
0
10
61.595000000000006
20
72.126975
30
0
0
VERTEX
8
0
10
63.44101250000001
20
73.9729875
30
0
42
0.198912367379658
0
VERTEX
8
0
10
63.627
20
74.422
30
0
0
VERTEX
8
0
10
63.627
20
76.2
30
0
42
0.9999999999999999
0
VERTEX
8
0
10
62.357000000000006
20
76.2
30
0
0
VERTEX
8
0
10
62.357000000000006
20
74.68502500000001
30
0
0
VERTEX
8
0
10
60.510987500000006
20
72.83901250000001
30
0
42
0.198912367379658
0
VERTEX
8
0
10
60.325
20
72.39
30
0
0
VERTEX
8
0
10
60.325
20
60.384075
30
0
0
VERTEX
8
0
10
60.0202
20
60.079275
30
0
0
VERTEX
8
0
10
60.0202
20
59.300725
30
0
0
VERTEX
8
0
10
60.570725
20
58.7502
30
0
0
VERTEX
8
0
10
61.349275000000006
20
58.7502
30
0
0
SEQEND
0
POLYLINE
66
1
8
1_copper
10
0.0
20
0.0
30
0.0
70
1
0
VERTEX
8
0
10
64.4398
20
59.300725
30
0
0
VERTEX
8
0
10
64.4398
20
60.079275
30
0
0
VERTEX
8
0
10
63.889275000000005
20
60.6298
30
0
0
VERTEX
8
0
10
63.110725
20
60.6298
30
0
0
VERTEX
8
0
10
62.5602
20
60.079275
30
0
0
VERTEX
8
0
10
62.5602
20
59.300725
30
0
0
VERTEX
8
0
10
63.110725
20
58.7502
30
0
0
VERTEX
8
0
10
63.889275000000005
20
58.7502
30
0
0
SEQEND
0
POLYLINE
66
1
8
16_copper
10
0.0
20
0.0
30
0.0
70
1
0
VERTEX
8
0
10
64.4398
20
59.300725
30
0
0
VERTEX
8
0
10
64.4398
20
60.079275
30
0
0
VERTEX
8
0
10
64.135
20
60.384075
30
0
0
VERTEX
8
0
10
64.135
20
69.58697500000001
30
0
0
VERTEX
8
0
10
65.9810125
20
71.43298750000001
30
0
42
0.198912367379658
0
VERTEX
8
0
10
66.167
20
71.882
30
0
0
VERTEX
8
0
10
66.167
20
76.2
30
0
42
0.9999999999999999
0
VERTEX
8
0
10
64.897
20
76.2
30
0
0
VERTEX
8
0
10
64.897
20
72.145025
30
0
0
VERTEX
8
0
10
63.050987500000005
20
70.2990125
30
0
42
0.198912367379658
0
VERTEX
8
0
10
62.865
20
69.85000000000001
30
0
0
VERTEX
8
0
10
62.865
20
60.384075
30
0
0
VERTEX
8
0
10
62.5602
20
60.079275
30
0
0
VERTEX
8
0
10
62.5602
20
59.300725
30
0
0
VERTEX
8
0
10
63.110725
20
58.7502
30
0
0
VERTEX
8
0
10
63.889275000000005
20
58.7502
30
0
0
SEQEND
0
POLYLINE
66
1
8
1_copper
10
0.0
20
0.0
30
0.0
70
1
0
VERTEX
8
0
10
66.9798
20
59.300725
30
0
0
VERTEX
8
0
10
66.9798
20
60.079275
30
0
0
VERTEX
8
0
10
66.429275
20
60.6298
30
0
0
VERTEX
8
0
10
65.65072500000001
20
60.6298
30
0
0
VERTEX
8
0
10
65.1002
20
60.079275
30
0
0
VERTEX
8
0
10
65.1002
20
59.300725
30
0
0
VERTEX
8
0
10
65.65072500000001
20
58.7502
30
0
0
VERTEX
8
0
10
66.429275
20
58.7502
30
0
0
SEQEND
0
POLYLINE
66
1
8
16_copper
10
0.0
20
0.0
30
0.0
70
1
0
VERTEX
8
0
10
66.9798
20
59.300725
30
0
0
VERTEX
8
0
10
66.9798
20
60.079275
30
0
0
VERTEX
8
0
10
66.675
20
60.384075
30
0
0
VERTEX
8
0
10
66.675
20
68.316975
30
0
0
VERTEX
8
0
10
68.5210125
20
70.1629875
30
0
42
0.198912367379658
0
VERTEX
8
0
10
68.70700000000001
20
70.61200000000001
30
0
0
VERTEX
8
0
10
68.70700000000001
20
76.2
30
0
42
0.9999999999999999
0
VERTEX
8
0
10
67.437
20
76.2
30
0
0
VERTEX
8
0
10
67.437
20
70.87502500000001
30
0
0
VERTEX
8
0
10
65.5909875
20
69.02901250000001
30
0
42
0.198912367379658
0
VERTEX
8
0
10
65.405
20
68.58
30
0
0
VERTEX
8
0
10
65.405
20
60.384075
30
0
0
VERTEX
8
0
10
65.1002
20
60.079275
30
0
0
VERTEX
8
0
10
65.1002
20
59.300725
30
0
0
VERTEX
8
0
10
65.65072500000001
20
58.7502
30
0
0
VERTEX
8
0
10
66.429275
20
58.7502
30
0
0
SEQEND
0
POLYLINE
66
1
8
1_copper
10
0.0
20
0.0
30
0.0
70
1
0
VERTEX
8
0
10
59.3598
20
59.300725
30
0
0
VERTEX
8
0
10
59.3598
20
60.079275
30
0
0
VERTEX
8
0
10
58.809275
20
60.6298
30
0
0
VERTEX
8
0
10
58.030725000000004
20
60.6298
30
0
0
VERTEX
8
0
10
57.4802
20
60.079275
30
0
0
VERTEX
8
0
10
57.4802
20
59.300725
30
0
0
VERTEX
8
0
10
58.030725000000004
20
58.7502
30
0
0
VERTEX
8
0
10
58.809275
20
58.7502
30
0
0
SEQEND
0
POLYLINE
66
1
8
16_copper
10
0.0
20
0.0
30
0.0
70
1
0
VERTEX
8
0
10
59.3598
20
59.300725
30
0
0
VERTEX
8
0
10
59.3598
20
60.079275
30
0
0
VERTEX
8
0
10
59.055
20
60.384075
30
0
0
VERTEX
8
0
10
59.055
20
73.396975
30
0
0
VERTEX
8
0
10
60.9010125
20
75.2429875
30
0
42
0.198912367379658
0
VERTEX
8
0
10
61.087
20
75.69200000000001
30
0
0
VERTEX
8
0
10
61.087
20
76.2
30
0
42
0.9999999999999999
0
VERTEX
8
0
10
59.817
20
76.2
30
0
0
VERTEX
8
0
10
59.817
20
75.955025
30
0
0
VERTEX
8
0
10
57.9709875
20
74.1090125
30
0
42
0.198912367379658
0
VERTEX
8
0
10
57.785000000000004
20
73.66
30
0
0
VERTEX
8
0
10
57.785000000000004
20
60.384075
30
0
0
VERTEX
8
0
10
57.4802
20
60.079275
30
0
0
VERTEX
8
0
10
57.4802
20
59.300725
30
0
0
VERTEX
8
0
10
58.030725000000004
20
58.7502
30
0
0
VERTEX
8
0
10
58.809275
20
58.7502
30
0
0
SEQEND
0
POLYLINE
66
1
8
1_copper
10
0.0
20
0.0
30
0.0
70
1
0
VERTEX
8
0
10
69.5198
20
59.300725
30
0
0
VERTEX
8
0
10
69.5198
20
60.079275
30
0
0
VERTEX
8
0
10
68.96927500000001
20
60.6298
30
0
0
VERTEX
8
0
10
68.190725
20
60.6298
30
0
0
VERTEX
8
0
10
67.64020000000001
20
60.079275
30
0
0
VERTEX
8
0
10
67.64020000000001
20
59.300725
30
0
0
VERTEX
8
0
10
68.190725
20
58.7502
30
0
0
VERTEX
8
0
10
68.96927500000001
20
58.7502
30
0
0
SEQEND
0
POLYLINE
66
1
8
16_copper
10
0.0
20
0.0
30
0.0
70
1
0
VERTEX
8
0
10
69.5198
20
59.300725
30
0
0
VERTEX
8
0
10
69.5198
20
60.079275
30
0
0
VERTEX
8
0
10
69.215
20
60.384075
30
0
0
VERTEX
8
0
10
69.215
20
65.77697500000001
30
0
0
VERTEX
8
0
10
71.0610125
20
67.62298750000001
30
0
42
0.198912367379658
0
VERTEX
8
0
10
71.247
20
68.072
30
0
0
VERTEX
8
0
10
71.247
20
76.2
30
0
42
0.9999999999999999
0
VERTEX
8
0
10
69.977
20
76.2
30
0
0
VERTEX
8
0
10
69.977
20
68.335025
30
0
0
VERTEX
8
0
10
68.1309875
20
66.4890125
30
0
42
0.198912367379658
0
VERTEX
8
0
10
67.94500000000001
20
66.04
30
0
0
VERTEX
8
0
10
67.94500000000001
20
60.384075
30
0
0
VERTEX
8
0
10
67.64020000000001
20
60.079275
30
0
0
VERTEX
8
0
10
67.64020000000001
20
59.300725
30
0
0
VERTEX
8
0
10
68.190725
20
58.7502
30
0
0
VERTEX
8
0
10
68.96927500000001
20
58.7502
30
0
0
SEQEND
0
POLYLINE
66
1
8
1_copper
10
0.0
20
0.0
30
0.0
70
1
0
VERTEX
8
0
10
72.05980000000001
20
59.300725
30
0
0
VERTEX
8
0
10
72.05980000000001
20
60.079275
30
0
0
VERTEX
8
0
10
71.509275
20
60.6298
30
0
0
VERTEX
8
0
10
70.730725
20
60.6298
30
0
0
VERTEX
8
0
10
70.1802
20
60.079275
30
0
0
VERTEX
8
0
10
70.1802
20
59.300725
30
0
0
VERTEX
8
0
10
70.730725
20
58.7502
30
0
0
VERTEX
8
0
10
71.509275
20
58.7502
30
0
0
SEQEND
0
POLYLINE
66
1
8
16_copper
10
0.0
20
0.0
30
0.0
70
1
0
VERTEX
8
0
10
72.05980000000001
20
59.300725
30
0
0
VERTEX
8
0
10
72.05980000000001
20
60.079275
30
0
0
VERTEX
8
0
10
71.75500000000001
20
60.384075
30
0
0
VERTEX
8
0
10
71.75500000000001
20
63.744975000000004
30
0
0
VERTEX
8
0
10
73.60101250000001
20
65.5909875
30
0
42
0.198912367379658
0
VERTEX
8
0
10
73.787
20
66.04
30
0
0
VERTEX
8
0
10
73.787
20
76.2
30
0
42
0.9999999999999999
0
VERTEX
8
0
10
72.51700000000001
20
76.2
30
0
0
VERTEX
8
0
10
72.51700000000001
20
66.303025
30
0
0
VERTEX
8
0
10
70.67098750000001
20
64.4570125
30
0
42
0.198912367379658
0
VERTEX
8
0
10
70.485
20
64.00800000000001
30
0
0
VERTEX
8
0
10
70.485
20
60.384075
30
0
0
VERTEX
8
0
10
70.1802
20
60.079275
30
0
0
VERTEX
8
0
10
70.1802
20
59.300725
30
0
0
VERTEX
8
0
10
70.730725
20
58.7502
30
0
0
VERTEX
8
0
10
71.509275
20
58.7502
30
0
0
SEQEND
0
POLYLINE
66
1
8
16_copper
10
0.0
20
0.0
30
0.0
70
1
0
VERTEX
8
0
10
25.4629
20
41.278121875000004
30
0
42
0.9515822171826347
0
VERTEX
8
0
10
25.400000000000002
20
42.545
30
0
0
VERTEX
8
0
10
16.773025
20
42.545
30
0
0
VERTEX
8
0
10
8.255
20
51.063025
30
0
0
VERTEX
8
0
10
8.255
20
76.2
30
0
42
0.9999999999999999
0
VERTEX
8
0
10
6.985
20
76.2
30
0
0
VERTEX
8
0
10
6.985
20
50.800000000000004
30
0
42
0.198912367379658
0
VERTEX
8
0
10
7.170987500000001
20
50.3509875
30
0
0
VERTEX
8
0
10
16.0609875
20
41.4609875
30
0
42
0.198912367379658
0
VERTEX
8
0
10
16.51
20
41.275
30
0
0
VERTEX
8
0
10
25.400000000000002
20
41.275
30
0
0
SEQEND
0
POLYLINE
66
1
8
16_copper
10
0.0
20
0.0
30
0.0
70
1
0
VERTEX
8
0
10
25.4629
20
43.818121875
30
0
42
0.9515822171826347
0
VERTEX
8
0
10
25.400000000000002
20
45.085
30
0
0
VERTEX
8
0
10
18.043025
20
45.085
30
0
0
VERTEX
8
0
10
10.795
20
52.333025
30
0
0
VERTEX
8
0
10
10.795
20
76.2
30
0
42
0.9999999999999999
0
VERTEX
8
0
10
9.525
20
76.2
30
0
0
VERTEX
8
0
10
9.525
20
52.07
30
0
42
0.198912367379658
0
VERTEX
8
0
10
9.7109875
20
51.620987500000005
30
0
0
VERTEX
8
0
10
17.3309875
20
44.0009875
30
0
42
0.198912367379658
0
VERTEX
8
0
10
17.78
20
43.815000000000005
30
0
0
VERTEX
8
0
10
25.400000000000002
20
43.815000000000005
30
0
0
SEQEND
0
POLYLINE
66
1
8
16_copper
10
0.0
20
0.0
30
0.0
70
1
0
VERTEX
8
0
10
25.4629
20
46.358121875
30
0
42
0.9515822171826347
0
VERTEX
8
0
10
25.400000000000002
20
47.625
30
0
0
VERTEX
8
0
10
19.313025
20
47.625
30
0
0
VERTEX
8
0
10
13.335
20
53.603025
30
0
0
VERTEX
8
0
10
13.335
20
76.2
30
0
42
0.9999999999999999
0
VERTEX
8
0
10
12.065000000000001
20
76.2
30
0
0
VERTEX
8
0
10
12.065000000000001
20
53.34
30
0
42
0.198912367379658
0
VERTEX
8
0
10
12.2509875
20
52.8909875
30
0
0
VERTEX
8
0
10
18.600987500000002
20
46.5409875
30
0
42
0.198912367379658
0
VERTEX
8
0
10
19.05
20
46.355000000000004
30
0
0
VERTEX
8
0
10
25.400000000000002
20
46.355000000000004
30
0
0
SEQEND
0
POLYLINE
66
1
8
16_copper
10
0.0
20
0.0
30
0.0
70
1
0
VERTEX
8
0
10
25.4629
20
48.898121875
30
0
42
0.9515822171826347
0
VERTEX
8
0
10
25.400000000000002
20
50.165
30
0
0
VERTEX
8
0
10
20.583025
20
50.165
30
0
0
VERTEX
8
0
10
15.875
20
54.873025000000005
30
0
0
VERTEX
8
0
10
15.875
20
76.2
30
0
42
0.9999999999999999
0
VERTEX
8
0
10
14.605
20
76.2
30
0
0
VERTEX
8
0
10
14.605
20
54.61
30
0
42
0.198912367379658
0
VERTEX
8
0
10
14.7909875
20
54.160987500000005
30
0
0
VERTEX
8
0
10
19.870987500000002
20
49.0809875
30
0
42
0.198912367379658
0
VERTEX
8
0
10
20.32
20
48.895
30
0
0
VERTEX
8
0
10
25.400000000000002
20
48.895
30
0
0
SEQEND
0
POLYLINE
66
1
8
16_copper
10
0.0
20
0.0
30
0.0
70
1
0
VERTEX
8
0
10
25.4629
20
51.438121875
30
0
42
0.9515822171826347
0
VERTEX
8
0
10
25.400000000000002
20
52.705000000000005
30
0
0
VERTEX
8
0
10
21.853025000000002
20
52.705000000000005
30
0
0
VERTEX
8
0
10
18.415
20
56.143025
30
0
0
VERTEX
8
0
10
18.415
20
76.2
30
0
42
0.9999999999999999
0
VERTEX
8
0
10
17.145
20
76.2
30
0
0
VERTEX
8
0
10
17.145
20
55.88
30
0
42
0.198912367379658
0
VERTEX
8
0
10
17.3309875
20
55.4309875
30
0
0
VERTEX
8
0
10
21.1409875
20
51.620987500000005
30
0
42
0.198912367379658
0
VERTEX
8
0
10
21.59
20
51.435
30
0
0
VERTEX
8
0
10
25.400000000000002
20
51.435
30
0
0
SEQEND
0
POLYLINE
66
1
8
16_copper
10
0.0
20
0.0
30
0.0
70
1
0
VERTEX
8
0
10
25.4629
20
53.978121875
30
0
42
0.9515822171826347
0
VERTEX
8
0
10
25.400000000000002
20
55.245000000000005
30
0
0
VERTEX
8
0
10
23.123025000000002
20
55.245000000000005
30
0
0
VERTEX
8
0
10
20.955000000000002
20
57.413025000000005
30
0
0
VERTEX
8
0
10
20.955000000000002
20
76.2
30
0
42
0.9999999999999999
0
VERTEX
8
0
10
19.685000000000002
20
76.2
30
0
0
VERTEX
8
0
10
19.685000000000002
20
57.150000000000006
30
0
42
0.198912367379658
0
VERTEX
8
0
10
19.870987500000002
20
56.700987500000004
30
0
0
VERTEX
8
0
10
22.4109875
20
54.160987500000005
30
0
42
0.198912367379658
0
VERTEX
8
0
10
22.86
20
53.975
30
0
0
VERTEX
8
0
10
25.400000000000002
20
53.975
30
0
0
SEQEND
0
POLYLINE
66
1
8
1_copper
10
0.0
20
0.0
30
0.0
70
1
0
VERTEX
8
0
10
44.119800000000005
20
59.300725
30
0
0
VERTEX
8
0
10
44.119800000000005
20
60.079275
30
0
0
VERTEX
8
0
10
43.569275000000005
20
60.6298
30
0
0
VERTEX
8
0
10
42.790725
20
60.6298
30
0
0
VERTEX
8
0
10
42.2402
20
60.079275
30
0
0
VERTEX
8
0
10
42.2402
20
59.300725
30
0
0
VERTEX
8
0
10
42.790725
20
58.7502
30
0
0
VERTEX
8
0
10
43.569275000000005
20
58.7502
30
0
0
SEQEND
0
POLYLINE
66
1
8
16_copper
10
0.0
20
0.0
30
0.0
70
1
0
VERTEX
8
0
10
44.119800000000005
20
59.300725
30
0
0
VERTEX
8
0
10
44.119800000000005
20
60.079275
30
0
0
VERTEX
8
0
10
43.815000000000005
20
60.384075
30
0
0
VERTEX
8
0
10
43.815000000000005
20
76.2
30
0
42
0.9999999999999999
0
VERTEX
8
0
10
42.545
20
76.2
30
0
0
VERTEX
8
0
10
42.545
20
60.384075
30
0
0
VERTEX
8
0
10
42.2402
20
60.079275
30
0
0
VERTEX
8
0
10
42.2402
20
59.300725
30
0
0
VERTEX
8
0
10
42.790725
20
58.7502
30
0
0
VERTEX
8
0
10
43.569275000000005
20
58.7502
30
0
0
SEQEND
0
POLYLINE
66
1
8
1_copper
10
0.0
20
0.0
30
0.0
70
1
0
VERTEX
8
0
10
46.659800000000004
20
59.300725
30
0
0
VERTEX
8
0
10
46.659800000000004
20
60.079275
30
0
0
VERTEX
8
0
10
46.109275000000004
20
60.6298
30
0
0
VERTEX
8
0
10
45.330725
20
60.6298
30
0
0
VERTEX
8
0
10
44.7802
20
60.079275
30
0
0
VERTEX
8
0
10
44.7802
20
59.300725
30
0
0
VERTEX
8
0
10
45.330725
20
58.7502
30
0
0
VERTEX
8
0
10
46.109275000000004
20
58.7502
30
0
0
SEQEND
0
POLYLINE
66
1
8
16_copper
10
0.0
20
0.0
30
0.0
70
1
0
VERTEX
8
0
10
46.659800000000004
20
59.300725
30
0
0
VERTEX
8
0
10
46.659800000000004
20
60.079275
30
0
0
VERTEX
8
0
10
46.355000000000004
20
60.384075
30
0
0
VERTEX
8
0
10
46.355000000000004
20
76.2
30
0
42
0.9999999999999999
0
VERTEX
8
0
10
45.085
20
76.2
30
0
0
VERTEX
8
0
10
45.085
20
60.384075
30
0
0
VERTEX
8
0
10
44.7802
20
60.079275
30
0
0
VERTEX
8
0
10
44.7802
20
59.300725
30
0
0
VERTEX
8
0
10
45.330725
20
58.7502
30
0
0
VERTEX
8
0
10
46.109275000000004
20
58.7502
30
0
0
SEQEND
0
POLYLINE
66
1
8
1_copper
10
0.0
20
0.0
30
0.0
70
1
0
VERTEX
8
0
10
49.1998
20
59.300725
30
0
0
VERTEX
8
0
10
49.1998
20
60.079275
30
0
0
VERTEX
8
0
10
48.649275
20
60.6298
30
0
0
VERTEX
8
0
10
47.870725
20
60.6298
30
0
0
VERTEX
8
0
10
47.3202
20
60.079275
30
0
0
VERTEX
8
0
10
47.3202
20
59.300725
30
0
0
VERTEX
8
0
10
47.870725
20
58.7502
30
0
0
VERTEX
8
0
10
48.649275
20
58.7502
30
0
0
SEQEND
0
POLYLINE
66
1
8
16_copper
10
0.0
20
0.0
30
0.0
70
1
0
VERTEX
8
0
10
49.1998
20
59.300725
30
0
0
VERTEX
8
0
10
49.1998
20
60.079275
30
0
0
VERTEX
8
0
10
48.895
20
60.384075
30
0
0
VERTEX
8
0
10
48.895
20
76.2
30
0
42
0.9999999999999999
0
VERTEX
8
0
10
47.625
20
76.2
30
0
0
VERTEX
8
0
10
47.625
20
60.384075
30
0
0
VERTEX
8
0
10
47.3202
20
60.079275
30
0
0
VERTEX
8
0
10
47.3202
20
59.300725
30
0
0
VERTEX
8
0
10
47.870725
20
58.7502
30
0
0
VERTEX
8
0
10
48.649275
20
58.7502
30
0
0
SEQEND
0
POLYLINE
66
1
8
1_copper
10
0.0
20
0.0
30
0.0
70
1
0
VERTEX
8
0
10
51.7398
20
59.300725
30
0
0
VERTEX
8
0
10
51.7398
20
60.079275
30
0
0
VERTEX
8
0
10
51.189275
20
60.6298
30
0
0
VERTEX
8
0
10
50.410725
20
60.6298
30
0
0
VERTEX
8
0
10
49.8602
20
60.079275
30
0
0
VERTEX
8
0
10
49.8602
20
59.300725
30
0
0
VERTEX
8
0
10
50.410725
20
58.7502
30
0
0
VERTEX
8
0
10
51.189275
20
58.7502
30
0
0
SEQEND
0
POLYLINE
66
1
8
16_copper
10
0.0
20
0.0
30
0.0
70
1
0
VERTEX
8
0
10
51.7398
20
59.300725
30
0
0
VERTEX
8
0
10
51.7398
20
60.079275
30
0
0
VERTEX
8
0
10
51.435
20
60.384075
30
0
0
VERTEX
8
0
10
51.435
20
76.2
30
0
42
0.9999999999999999
0
VERTEX
8
0
10
50.165
20
76.2
30
0
0
VERTEX
8
0
10
50.165
20
60.384075
30
0
0
VERTEX
8
0
10
49.8602
20
60.079275
30
0
0
VERTEX
8
0
10
49.8602
20
59.300725
30
0
0
VERTEX
8
0
10
50.410725
20
58.7502
30
0
0
VERTEX
8
0
10
51.189275
20
58.7502
30
0
0
SEQEND
0
POLYLINE
66
1
8
1_copper
10
0.0
20
0.0
30
0.0
70
1
0
VERTEX
8
0
10
54.2798
20
59.300725
30
0
0
VERTEX
8
0
10
54.2798
20
60.079275
30
0
0
VERTEX
8
0
10
53.729275
20
60.6298
30
0
0
VERTEX
8
0
10
52.950725000000006
20
60.6298
30
0
0
VERTEX
8
0
10
52.400200000000005
20
60.079275
30
0
0
VERTEX
8
0
10
52.400200000000005
20
59.300725
30
0
0
VERTEX
8
0
10
52.950725000000006
20
58.7502
30
0
0
VERTEX
8
0
10
53.729275
20
58.7502
30
0
0
SEQEND
0
POLYLINE
66
1
8
16_copper
10
0.0
20
0.0
30
0.0
70
1
0
VERTEX
8
0
10
54.2798
20
59.300725
30
0
0
VERTEX
8
0
10
54.2798
20
60.079275
30
0
0
VERTEX
8
0
10
53.975
20
60.384075
30
0
0
VERTEX
8
0
10
53.975
20
76.2
30
0
42
0.9999999999999999
0
VERTEX
8
0
10
52.705000000000005
20
76.2
30
0
0
VERTEX
8
0
10
52.705000000000005
20
60.384075
30
0
0
VERTEX
8
0
10
52.400200000000005
20
60.079275
30
0
0
VERTEX
8
0
10
52.400200000000005
20
59.300725
30
0
0
VERTEX
8
0
10
52.950725000000006
20
58.7502
30
0
0
VERTEX
8
0
10
53.729275
20
58.7502
30
0
0
SEQEND
0
POLYLINE
66
1
8
1_copper
10
0.0
20
0.0
30
0.0
70
1
0
VERTEX
8
0
10
56.8198
20
59.300725
30
0
0
VERTEX
8
0
10
56.8198
20
60.079275
30
0
0
VERTEX
8
0
10
56.269275
20
60.6298
30
0
0
VERTEX
8
0
10
55.490725000000005
20
60.6298
30
0
0
VERTEX
8
0
10
54.940200000000004
20
60.079275
30
0
0
VERTEX
8
0
10
54.940200000000004
20
59.300725
30
0
0
VERTEX
8
0
10
55.490725000000005
20
58.7502
30
0
0
VERTEX
8
0
10
56.269275
20
58.7502
30
0
0
SEQEND
0
POLYLINE
66
1
8
16_copper
10
0.0
20
0.0
30
0.0
70
1
0
VERTEX
8
0
10
56.8198
20
59.300725
30
0
0
VERTEX
8
0
10
56.8198
20
60.079275
30
0
0
VERTEX
8
0
10
56.515
20
60.384075
30
0
0
VERTEX
8
0
10
56.515
20
76.2
30
0
42
0.9999999999999999
0
VERTEX
8
0
10
55.245000000000005
20
76.2
30
0
0
VERTEX
8
0
10
55.245000000000005
20
60.384075
30
0
0
VERTEX
8
0
10
54.940200000000004
20
60.079275
30
0
0
VERTEX
8
0
10
54.940200000000004
20
59.300725
30
0
0
VERTEX
8
0
10
55.490725000000005
20
58.7502
30
0
0
VERTEX
8
0
10
56.269275
20
58.7502
30
0
0
SEQEND
0
POLYLINE
66
1
8
16_copper
10
0.0
20
0.0
30
0.0
70
1
0
VERTEX
8
0
10
25.4629
20
38.738121875000004
30
0
42
0.9515822171826347
0
VERTEX
8
0
10
25.400000000000002
20
40.005
30
0
0
VERTEX
8
0
10
14.233025000000001
20
40.005
30
0
0
VERTEX
8
0
10
13.149012500000001
20
41.0890125
30
0
42
0.198912367379658
0
VERTEX
8
0
10
12.700000000000001
20
41.275
30
0
0
VERTEX
8
0
10
5.08
20
41.275
30
0
42
0.9676364582332677
0
VERTEX
8
0
10
5.03825625
20
40.006375
30
0
0
VERTEX
8
0
10
5.08
20
40.005
30
0
0
VERTEX
8
0
10
12.436975
20
40.005
30
0
0
VERTEX
8
0
10
13.5209875
20
38.9209875
30
0
42
0.198912367379658
0
VERTEX
8
0
10
13.97
20
38.735
30
0
0
VERTEX
8
0
10
25.400000000000002
20
38.735
30
0
0
SEQEND
0
POLYLINE
66
1
8
16_copper
10
0.0
20
0.0
30
0.0
70
1
0
VERTEX
8
0
10
24.6459625
20
36.06839375
30
0
42
0.15876919407909232
0
VERTEX
8
0
10
25.0181
20
36.195
30
0
0
VERTEX
8
0
10
25.400000000000002
20
36.195
30
0
42
0.9999999999999999
0
VERTEX
8
0
10
25.400000000000002
20
37.465
30
0
0
VERTEX
8
0
10
24.765
20
37.465
30
0
42
0.1619864967415339
0
VERTEX
8
0
10
24.384900000000002
20
37.338
30
0
0
VERTEX
8
0
10
13.979025
20
37.338
30
0
0
VERTEX
8
0
10
12.768012500000001
20
38.5490125
30
0
42
0.198912367379658
0
VERTEX
8
0
10
12.319
20
38.735
30
0
0
VERTEX
8
0
10
5.08
20
38.735
30
0
42
0.9676364582332677
0
VERTEX
8
0
10
5.03825625
20
37.466375
30
0
0
VERTEX
8
0
10
5.08
20
37.465
30
0
0
VERTEX
8
0
10
12.055975
20
37.465
30
0
0
VERTEX
8
0
10
13.2669875
20
36.2539875
30
0
42
0.198912367379658
0
VERTEX
8
0
10
13.716000000000001
20
36.068000000000005
30
0
0
VERTEX
8
0
10
24.638
20
36.068000000000005
30
0
0
SEQEND
0
POLYLINE
66
1
8
16_copper
10
0.0
20
0.0
30
0.0
70
1
0
VERTEX
8
0
10
25.4629
20
31.118121875
30
0
42
0.9515822171826347
0
VERTEX
8
0
10
25.400000000000002
20
32.385
30
0
0
VERTEX
8
0
10
15.503025000000001
20
32.385
30
0
0
VERTEX
8
0
10
11.8790125
20
36.009012500000004
30
0
42
0.198912367379658
0
VERTEX
8
0
10
11.43
20
36.195
30
0
0
VERTEX
8
0
10
5.08
20
36.195
30
0
42
0.9676364582332677
0
VERTEX
8
0
10
5.03825625
20
34.926375
30
0
0
VERTEX
8
0
10
5.08
20
34.925000000000004
30
0
0
VERTEX
8
0
10
11.166975
20
34.925000000000004
30
0
0
VERTEX
8
0
10
14.7909875
20
31.3009875
30
0
42
0.198912367379658
0
VERTEX
8
0
10
15.24
20
31.115000000000002
30
0
0
VERTEX
8
0
10
25.400000000000002
20
31.115000000000002
30
0
0
SEQEND
0
POLYLINE
66
1
8
1_copper
10
0.0
20
0.0
30
0.0
70
1
0
VERTEX
8
0
10
84.45331875000001
20
47.705375000000004
30
0
0
VERTEX
8
0
10
84.45331875000001
20
48.252468750000006
30
0
0
VERTEX
8
0
10
84.06646875
20
48.63931875
30
0
0
VERTEX
8
0
10
83.51937500000001
20
48.63931875
30
0
0
VERTEX
8
0
10
83.132525
20
48.252468750000006
30
0
0
VERTEX
8
0
10
83.132525
20
47.705375000000004
30
0
0
VERTEX
8
0
10
83.51937500000001
20
47.318525
30
0
0
VERTEX
8
0
10
84.06646875
20
47.318525
30
0
0
SEQEND
0
POLYLINE
66
1
8
1_copper
10
0.0
20
0.0
30
0.0
70
1
0
VERTEX
8
0
10
84.4804
20
45.446456250000004
30
0
0
VERTEX
8
0
10
84.4804
20
45.99354375
30
0
0
VERTEX
8
0
10
84.09354375000001
20
46.3804
30
0
0
VERTEX
8
0
10
83.54645625
20
46.3804
30
0
0
VERTEX
8
0
10
83.1596
20
45.99354375
30
0
0
VERTEX
8
0
10
83.1596
20
45.446456250000004
30
0
0
VERTEX
8
0
10
83.54645625
20
45.0596
30
0
0
VERTEX
8
0
10
84.09354375000001
20
45.0596
30
0
0
SEQEND
0
POLYLINE
66
1
8
1_copper
10
0.0
20
0.0
30
0.0
70
1
0
VERTEX
8
0
10
84.4804
20
39.09645625
30
0
0
VERTEX
8
0
10
84.4804
20
39.64354375
30
0
0
VERTEX
8
0
10
84.09354375000001
20
40.0304
30
0
0
VERTEX
8
0
10
83.54645625
20
40.0304
30
0
0
VERTEX
8
0
10
83.1596
20
39.64354375
30
0
0
VERTEX
8
0
10
83.1596
20
39.09645625
30
0
0
VERTEX
8
0
10
83.54645625
20
38.7096
30
0
0
VERTEX
8
0
10
84.09354375000001
20
38.7096
30
0
0
SEQEND
0
POLYLINE
66
1
8
1_copper
10
0.0
20
0.0
30
0.0
70
1
0
VERTEX
8
0
10
84.4804
20
31.476456250000002
30
0
0
VERTEX
8
0
10
84.4804
20
32.02354375
30
0
0
VERTEX
8
0
10
84.09354375000001
20
32.4104
30
0
0
VERTEX
8
0
10
83.54645625
20
32.4104
30
0
0
VERTEX
8
0
10
83.1596
20
32.02354375
30
0
0
VERTEX
8
0
10
83.1596
20
31.476456250000002
30
0
0
VERTEX
8
0
10
83.54645625
20
31.0896
30
0
0
VERTEX
8
0
10
84.09354375000001
20
31.0896
30
0
0
SEQEND
0
POLYLINE
66
1
8
1_copper
10
0.0
20
0.0
30
0.0
70
1
0
VERTEX
8
0
10
84.4804
20
23.85645625
30
0
0
VERTEX
8
0
10
84.4804
20
24.40354375
30
0
0
VERTEX
8
0
10
84.09354375000001
20
24.7904
30
0
0
VERTEX
8
0
10
83.54645625
20
24.7904
30
0
0
VERTEX
8
0
10
83.1596
20
24.40354375
30
0
0
VERTEX
8
0
10
83.1596
20
23.85645625
30
0
0
VERTEX
8
0
10
83.54645625
20
23.4696
30
0
0
VERTEX
8
0
10
84.09354375000001
20
23.4696
30
0
0
SEQEND
0
POLYLINE
66
1
8
1_copper
10
0.0
20
0.0
30
0.0
70
1
0
VERTEX
8
0
10
84.4804
20
17.50645625
30
0
0
VERTEX
8
0
10
84.4804
20
18.05354375
30
0
0
VERTEX
8
0
10
84.09354375000001
20
18.4404
30
0
0
VERTEX
8
0
10
83.54645625
20
18.4404
30
0
0
VERTEX
8
0
10
83.1596
20
18.05354375
30
0
0
VERTEX
8
0
10
83.1596
20
17.50645625
30
0
0
VERTEX
8
0
10
83.54645625
20
17.119600000000002
30
0
0
VERTEX
8
0
10
84.09354375000001
20
17.119600000000002
30
0
0
SEQEND
0
POLYLINE
66
1
8
1_copper
10
0.0
20
0.0
30
0.0
70
1
0
VERTEX
8
0
10
84.4804
20
9.88645625
30
0
0
VERTEX
8
0
10
84.4804
20
10.43354375
30
0
0
VERTEX
8
0
10
84.09354375000001
20
10.820400000000001
30
0
0
VERTEX
8
0
10
83.54645625
20
10.820400000000001
30
0
0
VERTEX
8
0
10
83.1596
20
10.43354375
30
0
0
VERTEX
8
0
10
83.1596
20
9.88645625
30
0
0
VERTEX
8
0
10
83.54645625
20
9.499600000000001
30
0
0
VERTEX
8
0
10
84.09354375000001
20
9.499600000000001
30
0
0
SEQEND
0
POLYLINE
66
1
8
1_copper
10
0.0
20
0.0
30
0.0
70
1
0
VERTEX
8
0
10
84.4804
20
3.53645625
30
0
0
VERTEX
8
0
10
84.4804
20
4.0835437500000005
30
0
0
VERTEX
8
0
10
84.09354375000001
20
4.470400000000001
30
0
0
VERTEX
8
0
10
83.54645625
20
4.470400000000001
30
0
0
VERTEX
8
0
10
83.1596
20
4.0835437500000005
30
0
0
VERTEX
8
0
10
83.1596
20
3.53645625
30
0
0
VERTEX
8
0
10
83.54645625
20
3.1496
30
0
0
VERTEX
8
0
10
84.09354375000001
20
3.1496
30
0
0
SEQEND
0
POLYLINE
66
1
8
16_copper
10
0.0
20
0.0
30
0.0
70
1
0
VERTEX
8
0
10
30.55345625
20
56.5192625
30
0
42
0.38064949536496395
0
VERTEX
8
0
10
31.115000000000002
20
57.150000000000006
30
0
0
VERTEX
8
0
10
31.115000000000002
20
59.690000000000005
30
0
42
0.9999999999999999
0
VERTEX
8
0
10
29.845000000000002
20
59.690000000000005
30
0
0
VERTEX
8
0
10
29.845000000000002
20
57.150000000000006
30
0
0
VERTEX
8
0
10
29.848121875
20
57.0871
30
0
0
VERTEX
8
0
10
29.8574625
20
57.024815625
30
0
0
VERTEX
8
0
10
29.872925000000002
20
56.963765625
30
0
0
VERTEX
8
0
10
29.89435625
20
56.904546875
30
0
0
VERTEX
8
0
10
29.92155
20
56.847740625
30
0
0
VERTEX
8
0
10
29.9542375
20
56.793909375000005
30
0
0
VERTEX
8
0
10
29.992096875
20
56.743581250000005
30
0
0
VERTEX
8
0
10
30.03475625
20
56.697250000000004
30
0
0
VERTEX
8
0
10
30.081793750000003
20
56.655371875
30
0
0
VERTEX
8
0
10
30.13275
20
56.618359375000004
30
0
0
VERTEX
8
0
10
30.18711875
20
56.586578125
30
0
0
VERTEX
8
0
10
30.244371875000002
20
56.560334375000004
30
0
0
VERTEX
8
0
10
30.303940625000003
20
56.539893750000005
30
0
0
VERTEX
8
0
10
30.365240625000002
20
56.525456250000005
30
0
0
VERTEX
8
0
10
30.427671875
20
56.517159375000006
30
0
0
VERTEX
8
0
10
30.490615625
20
56.5150875
30
0
0
SEQEND
0
POLYLINE
66
1
8
16_copper
10
0.0
20
0.0
30
0.0
70
1
0
VERTEX
8
0
10
84.4804
20
31.476456250000002
30
0
0
VERTEX
8
0
10
84.4804
20
32.02354375
30
0
0
VERTEX
8
0
10
84.455
20
32.04894375
30
0
0
VERTEX
8
0
10
84.455
20
39.071056250000005
30
0
0
VERTEX
8
0
10
84.4804
20
39.09645625
30
0
0
VERTEX
8
0
10
84.4804
20
39.64354375
30
0
0
VERTEX
8
0
10
84.455
20
39.668943750000004
30
0
0
VERTEX
8
0
10
84.455
20
45.42105625
30
0
0
VERTEX
8
0
10
84.4804
20
45.446456250000004
30
0
0
VERTEX
8
0
10
84.4804
20
45.99354375
30
0
0
VERTEX
8
0
10
84.45141875
20
46.022525
30
0
0
VERTEX
8
0
10
84.43150625
20
47.6835625
30
0
0
VERTEX
8
0
10
84.45331875000001
20
47.705375000000004
30
0
0
VERTEX
8
0
10
84.45331875000001
20
48.252468750000006
30
0
0
VERTEX
8
0
10
84.06646875
20
48.63931875
30
0
0
VERTEX
8
0
10
83.51937500000001
20
48.63931875
30
0
0
VERTEX
8
0
10
83.132525
20
48.252468750000006
30
0
0
VERTEX
8
0
10
83.132525
20
47.705375000000004
30
0
0
VERTEX
8
0
10
83.16150312500001
20
47.676396875
30
0
0
VERTEX
8
0
10
83.181415625
20
46.015359375
30
0
0
VERTEX
8
0
10
83.1596
20
45.99354375
30
0
0
VERTEX
8
0
10
83.1596
20
45.446456250000004
30
0
0
VERTEX
8
0
10
83.185
20
45.42105625
30
0
0
VERTEX
8
0
10
83.185
20
39.668943750000004
30
0
0
VERTEX
8
0
10
83.1596
20
39.64354375
30
0
0
VERTEX
8
0
10
83.1596
20
39.09645625
30
0
0
VERTEX
8
0
10
83.185
20
39.071056250000005
30
0
0
VERTEX
8
0
10
83.185
20
32.04894375
30
0
0
VERTEX
8
0
10
83.1596
20
32.02354375
30
0
0
VERTEX
8
0
10
83.1596
20
31.476456250000002
30
0
0
VERTEX
8
0
10
83.54645625
20
31.0896
30
0
0
VERTEX
8
0
10
84.09354375000001
20
31.0896
30
0
0
SEQEND
0
POLYLINE
66
1
8
16_copper
10
0.0
20
0.0
30
0.0
70
1
0
VERTEX
8
0
10
81.2879625
20
-10.794606250000001
30
0
42
0.19565366282764757
0
VERTEX
8
0
10
81.72901250000001
20
-10.6090125
30
0
0
VERTEX
8
0
10
84.2690125
20
-8.069012500000001
30
0
42
0.198912367379658
0
VERTEX
8
0
10
84.455
20
-7.62
30
0
0
VERTEX
8
0
10
84.455
20
3.51105625
30
0
0
VERTEX
8
0
10
84.4804
20
3.53645625
30
0
0
VERTEX
8
0
10
84.4804
20
4.0835437500000005
30
0
0
VERTEX
8
0
10
84.455
20
4.10894375
30
0
0
VERTEX
8
0
10
84.455
20
9.86105625
30
0
0
VERTEX
8
0
10
84.4804
20
9.88645625
30
0
0
VERTEX
8
0
10
84.4804
20
10.43354375
30
0
0
VERTEX
8
0
10
84.455
20
10.458943750000001
30
0
0
VERTEX
8
0
10
84.455
20
17.48105625
30
0
0
VERTEX
8
0
10
84.4804
20
17.50645625
30
0
0
VERTEX
8
0
10
84.4804
20
18.05354375
30
0
0
VERTEX
8
0
10
84.455
20
18.07894375
30
0
0
VERTEX
8
0
10
84.455
20
23.83105625
30
0
0
VERTEX
8
0
10
84.4804
20
23.85645625
30
0
0
VERTEX
8
0
10
84.4804
20
24.40354375
30
0
0
VERTEX
8
0
10
84.09354375000001
20
24.7904
30
0
0
VERTEX
8
0
10
83.54645625
20
24.7904
30
0
0
VERTEX
8
0
10
83.1596
20
24.40354375
30
0
0
VERTEX
8
0
10
83.1596
20
23.85645625
30
0
0
VERTEX
8
0
10
83.185
20
23.83105625
30
0
0
VERTEX
8
0
10
83.185
20
18.07894375
30
0
0
VERTEX
8
0
10
83.1596
20
18.05354375
30
0
0
VERTEX
8
0
10
83.1596
20
17.50645625
30
0
0
VERTEX
8
0
10
83.185
20
17.48105625
30
0
0
VERTEX
8
0
10
83.185
20
10.458943750000001
30
0
0
VERTEX
8
0
10
83.1596
20
10.43354375
30
0
0
VERTEX
8
0
10
83.1596
20
9.88645625
30
0
0
VERTEX
8
0
10
83.185
20
9.86105625
30
0
0
VERTEX
8
0
10
83.185
20
4.10894375
30
0
0
VERTEX
8
0
10
83.1596
20
4.0835437500000005
30
0
0
VERTEX
8
0
10
83.1596
20
3.53645625
30
0
0
VERTEX
8
0
10
83.185
20
3.51105625
30
0
0
VERTEX
8
0
10
83.185
20
-7.356975
30
0
0
VERTEX
8
0
10
81.016975
20
-9.525
30
0
0
VERTEX
8
0
10
73.66
20
-9.525
30
0
42
0.9676364582332677
0
VERTEX
8
0
10
73.61825625
20
-10.793625
30
0
0
VERTEX
8
0
10
73.66
20
-10.795
30
0
0
VERTEX
8
0
10
81.28
20
-10.795
30
0
0
SEQEND
0
POLYLINE
66
1
8
16_copper
10
0.0
20
0.0
30
0.0
70
1
0
VERTEX
8
0
10
19.04470625
20
6.9847375000000005
30
0
42
0.4117729756578034
0
VERTEX
8
0
10
18.415
20
6.3500000000000005
30
0
0
VERTEX
8
0
10
18.415
20
3.81
30
0
42
0.41421356237309503
0
VERTEX
8
0
10
19.05
20
3.1750000000000003
30
0
0
VERTEX
8
0
10
25.400000000000002
20
3.1750000000000003
30
0
42
0.41421356237309503
0
VERTEX
8
0
10
26.035
20
3.81
30
0
0
VERTEX
8
0
10
26.035
20
6.3500000000000005
30
0
42
0.41421356237309503
0
VERTEX
8
0
10
25.400000000000002
20
6.985
30
0
0
VERTEX
8
0
10
19.05
20
6.985
30
0
0
SEQEND
0
POLYLINE
66
1
8
1_copper
10
0.0
20
0.0
30
0.0
70
1
0
VERTEX
8
0
10
96.1898
20
50.4698
30
0
0
VERTEX
8
0
10
94.31020000000001
20
50.4698
30
0
0
VERTEX
8
0
10
94.31020000000001
20
48.5902
30
0
0
VERTEX
8
0
10
96.1898
20
48.5902
30
0
0
SEQEND
0
POLYLINE
66
1
8
1_copper
10
0.0
20
0.0
30
0.0
70
1
0
VERTEX
8
0
10
96.1898
20
44.119800000000005
30
0
0
VERTEX
8
0
10
94.31020000000001
20
44.119800000000005
30
0
0
VERTEX
8
0
10
94.31020000000001
20
42.2402
30
0
0
VERTEX
8
0
10
96.1898
20
42.2402
30
0
0
SEQEND
0
POLYLINE
66
1
8
1_copper
10
0.0
20
0.0
30
0.0
70
1
0
VERTEX
8
0
10
96.1898
20
37.769800000000004
30
0
0
VERTEX
8
0
10
94.31020000000001
20
37.769800000000004
30
0
0
VERTEX
8
0
10
94.31020000000001
20
35.8902
30
0
0
VERTEX
8
0
10
96.1898
20
35.8902
30
0
0
SEQEND
0
POLYLINE
66
1
8
1_copper
10
0.0
20
0.0
30
0.0
70
1
0
VERTEX
8
0
10
96.1898
20
30.149800000000003
30
0
0
VERTEX
8
0
10
94.31020000000001
20
30.149800000000003
30
0
0
VERTEX
8
0
10
94.31020000000001
20
28.270200000000003
30
0
0
VERTEX
8
0
10
96.1898
20
28.270200000000003
30
0
0
SEQEND
0
POLYLINE
66
1
8
1_copper
10
0.0
20
0.0
30
0.0
70
1
0
VERTEX
8
0
10
96.1898
20
22.5298
30
0
0
VERTEX
8
0
10
94.31020000000001
20
22.5298
30
0
0
VERTEX
8
0
10
94.31020000000001
20
20.6502
30
0
0
VERTEX
8
0
10
96.1898
20
20.6502
30
0
0
SEQEND
0
POLYLINE
66
1
8
1_copper
10
0.0
20
0.0
30
0.0
70
1
0
VERTEX
8
0
10
96.1898
20
16.1798
30
0
0
VERTEX
8
0
10
94.31020000000001
20
16.1798
30
0
0
VERTEX
8
0
10
94.31020000000001
20
14.3002
30
0
0
VERTEX
8
0
10
96.1898
20
14.3002
30
0
0
SEQEND
0
POLYLINE
66
1
8
1_copper
10
0.0
20
0.0
30
0.0
70
1
0
VERTEX
8
0
10
96.1898
20
8.559800000000001
30
0
0
VERTEX
8
0
10
94.31020000000001
20
8.559800000000001
30
0
0
VERTEX
8
0
10
94.31020000000001
20
6.6802
30
0
0
VERTEX
8
0
10
96.1898
20
6.6802
30
0
0
SEQEND
0
POLYLINE
66
1
8
1_copper
10
0.0
20
0.0
30
0.0
70
1
0
VERTEX
8
0
10
96.1898
20
2.2098
30
0
0
VERTEX
8
0
10
94.31020000000001
20
2.2098
30
0
0
VERTEX
8
0
10
94.31020000000001
20
0.3302
30
0
0
VERTEX
8
0
10
96.1898
20
0.3302
30
0
0
SEQEND
0
POLYLINE
66
1
8
16_copper
10
0.0
20
0.0
30
0.0
70
1
0
VERTEX
8
0
10
98.4247375
20
57.155293750000006
30
0
42
0.19674580157205462
0
VERTEX
8
0
10
98.2390125
20
57.5990125
30
0
0
VERTEX
8
0
10
95.69901250000001
20
60.1390125
30
0
42
0.198912367379658
0
VERTEX
8
0
10
95.25
20
60.325
30
0
0
VERTEX
8
0
10
73.66
20
60.325
30
0
42
0.41421356237309503
0
VERTEX
8
0
10
73.025
20
59.690000000000005
30
0
0
VERTEX
8
0
10
73.025
20
57.150000000000006
30
0
42
0.41421356237309503
0
VERTEX
8
0
10
73.66
20
56.515
30
0
0
VERTEX
8
0
10
93.716975
20
56.515
30
0
0
VERTEX
8
0
10
97.155
20
53.076975000000004
30
0
0
VERTEX
8
0
10
97.155
20
50.165
30
0
0
VERTEX
8
0
10
96.1898
20
50.165
30
0
0
VERTEX
8
0
10
96.1898
20
50.4698
30
0
0
VERTEX
8
0
10
94.31020000000001
20
50.4698
30
0
0
VERTEX
8
0
10
94.31020000000001
20
48.5902
30
0
0
VERTEX
8
0
10
96.1898
20
48.5902
30
0
0
VERTEX
8
0
10
96.1898
20
48.895
30
0
0
VERTEX
8
0
10
97.155
20
48.895
30
0
0
VERTEX
8
0
10
97.155
20
43.815000000000005
30
0
0
VERTEX
8
0
10
96.1898
20
43.815000000000005
30
0
0
VERTEX
8
0
10
96.1898
20
44.119800000000005
30
0
0
VERTEX
8
0
10
94.31020000000001
20
44.119800000000005
30
0
0
VERTEX
8
0
10
94.31020000000001
20
42.2402
30
0
0
VERTEX
8
0
10
96.1898
20
42.2402
30
0
0
VERTEX
8
0
10
96.1898
20
42.545
30
0
0
VERTEX
8
0
10
97.155
20
42.545
30
0
0
VERTEX
8
0
10
97.155
20
37.465
30
0
0
VERTEX
8
0
10
96.1898
20
37.465
30
0
0
VERTEX
8
0
10
96.1898
20
37.769800000000004
30
0
0
VERTEX
8
0
10
94.31020000000001
20
37.769800000000004
30
0
0
VERTEX
8
0
10
94.31020000000001
20
35.8902
30
0
0
VERTEX
8
0
10
96.1898
20
35.8902
30
0
0
VERTEX
8
0
10
96.1898
20
36.195
30
0
0
VERTEX
8
0
10
97.155
20
36.195
30
0
0
VERTEX
8
0
10
97.155
20
29.845000000000002
30
0
0
VERTEX
8
0
10
96.1898
20
29.845000000000002
30
0
0
VERTEX
8
0
10
96.1898
20
30.149800000000003
30
0
0
VERTEX
8
0
10
94.31020000000001
20
30.149800000000003
30
0
0
VERTEX
8
0
10
94.31020000000001
20
28.270200000000003
30
0
0
VERTEX
8
0
10
96.1898
20
28.270200000000003
30
0
0
VERTEX
8
0
10
96.1898
20
28.575000000000003
30
0
0
VERTEX
8
0
10
97.155
20
28.575000000000003
30
0
0
VERTEX
8
0
10
97.155
20
22.225
30
0
0
VERTEX
8
0
10
96.1898
20
22.225
30
0
0
VERTEX
8
0
10
96.1898
20
22.5298
30
0
0
VERTEX
8
0
10
94.31020000000001
20
22.5298
30
0
0
VERTEX
8
0
10
94.31020000000001
20
20.6502
30
0
0
VERTEX
8
0
10
96.1898
20
20.6502
30
0
0
VERTEX
8
0
10
96.1898
20
20.955000000000002
30
0
0
VERTEX
8
0
10
97.155
20
20.955000000000002
30
0
0
VERTEX
8
0
10
97.155
20
15.875
30
0
0
VERTEX
8
0
10
96.1898
20
15.875
30
0
0
VERTEX
8
0
10
96.1898
20
16.1798
30
0
0
VERTEX
8
0
10
94.31020000000001
20
16.1798
30
0
0
VERTEX
8
0
10
94.31020000000001
20
14.3002
30
0
0
VERTEX
8
0
10
96.1898
20
14.3002
30
0
0
VERTEX
8
0
10
96.1898
20
14.605
30
0
0
VERTEX
8
0
10
97.155
20
14.605
30
0
0
VERTEX
8
0
10
97.155
20
8.255
30
0
0
VERTEX
8
0
10
96.1898
20
8.255
30
0
0
VERTEX
8
0
10
96.1898
20
8.559800000000001
30
0
0
VERTEX
8
0
10
94.31020000000001
20
8.559800000000001
30
0
0
VERTEX
8
0
10
94.31020000000001
20
6.6802
30
0
0
VERTEX
8
0
10
96.1898
20
6.6802
30
0
0
VERTEX
8
0
10
96.1898
20
6.985
30
0
0
VERTEX
8
0
10
97.155
20
6.985
30
0
0
VERTEX
8
0
10
97.155
20
1.905
30
0
0
VERTEX
8
0
10
96.1898
20
1.905
30
0
0
VERTEX
8
0
10
96.1898
20
2.2098
30
0
0
VERTEX
8
0
10
94.31020000000001
20
2.2098
30
0
0
VERTEX
8
0
10
94.31020000000001
20
0.3302
30
0
0
VERTEX
8
0
10
96.1898
20
0.3302
30
0
0
VERTEX
8
0
10
96.1898
20
0.635
30
0
0
VERTEX
8
0
10
97.79
20
0.635
30
0
42
0.41421356237309503
0
VERTEX
8
0
10
98.42500000000001
20
1.27
30
0
0
VERTEX
8
0
10
98.42500000000001
20
57.150000000000006
30
0
0
SEQEND
0
POLYLINE
66
1
8
16_copper
10
0.0
20
0.0
30
0.0
70
1
0
VERTEX
8
0
10
25.4629
20
0.6381218750000001
30
0
42
0.9515822171826347
0
VERTEX
8
0
10
25.400000000000002
20
1.905
30
0
0
VERTEX
8
0
10
19.05
20
1.905
30
0
42
0.9676364582332677
0
VERTEX
8
0
10
19.008256250000002
20
0.636375
30
0
0
VERTEX
8
0
10
19.05
20
0.635
30
0
0
VERTEX
8
0
10
25.400000000000002
20
0.635
30
0
0
SEQEND
0
POLYLINE
66
1
8
16_copper
10
0.0
20
0.0
30
0.0
70
1
0
VERTEX
8
0
10
25.4629
20
28.578121875
30
0
42
0.9515822171826347
0
VERTEX
8
0
10
25.400000000000002
20
29.845000000000002
30
0
0
VERTEX
8
0
10
15.503025000000001
20
29.845000000000002
30
0
0
VERTEX
8
0
10
11.8790125
20
33.4690125
30
0
42
0.198912367379658
0
VERTEX
8
0
10
11.43
20
33.655
30
0
0
VERTEX
8
0
10
5.08
20
33.655
30
0
42
0.9676364582332677
0
VERTEX
8
0
10
5.03825625
20
32.386375
30
0
0
VERTEX
8
0
10
5.08
20
32.385
30
0
0
VERTEX
8
0
10
11.166975
20
32.385
30
0
0
VERTEX
8
0
10
14.7909875
20
28.760987500000002
30
0
42
0.198912367379658
0
VERTEX
8
0
10
15.24
20
28.575000000000003
30
0
0
VERTEX
8
0
10
25.400000000000002
20
28.575000000000003
30
0
0
SEQEND
0
POLYLINE
66
1
8
16_copper
10
0.0
20
0.0
30
0.0
70
1
0
VERTEX
8
0
10
25.4629
20
26.038121875
30
0
42
0.9515822171826347
0
VERTEX
8
0
10
25.400000000000002
20
27.305
30
0
0
VERTEX
8
0
10
12.963025
20
27.305
30
0
0
VERTEX
8
0
10
9.3390125
20
30.929012500000002
30
0
42
0.198912367379658
0
VERTEX
8
0
10
8.89
20
31.115000000000002
30
0
0
VERTEX
8
0
10
5.08
20
31.115000000000002
30
0
42
0.9676364582332677
0
VERTEX
8
0
10
5.03825625
20
29.846375000000002
30
0
0
VERTEX
8
0
10
5.08
20
29.845000000000002
30
0
0
VERTEX
8
0
10
8.626975
20
29.845000000000002
30
0
0
VERTEX
8
0
10
12.2509875
20
26.2209875
30
0
42
0.198912367379658
0
VERTEX
8
0
10
12.700000000000001
20
26.035
30
0
0
VERTEX
8
0
10
25.400000000000002
20
26.035
30
0
0
SEQEND
0
POLYLINE
66
1
8
1_copper
10
0.0
20
0.0
30
0.0
70
1
0
VERTEX
8
0
10
54.2798
20
56.760725
30
0
0
VERTEX
8
0
10
54.2798
20
57.539275
30
0
0
VERTEX
8
0
10
53.729275
20
58.089800000000004
30
0
0
VERTEX
8
0
10
52.950725000000006
20
58.089800000000004
30
0
0
VERTEX
8
0
10
52.400200000000005
20
57.539275
30
0
0
VERTEX
8
0
10
52.400200000000005
20
56.760725
30
0
0
VERTEX
8
0
10
52.950725000000006
20
56.2102
30
0
0
VERTEX
8
0
10
53.729275
20
56.2102
30
0
0
SEQEND
0
POLYLINE
66
1
8
1_copper
10
0.0
20
0.0
30
0.0
70
1
0
VERTEX
8
0
10
53.45018125
20
46.247221875
30
0
42
0.5415188693111257
0
VERTEX
8
0
10
53.975
20
47.389618750000004
30
0
0
VERTEX
8
0
10
53.975
20
54.210381250000005
30
0
42
0.9624943965945741
0
VERTEX
8
0
10
52.73686875
20
55.0573125
30
0
0
VERTEX
8
0
10
52.695928125
20
54.996040625
30
0
42
0.28259678315689835
0
VERTEX
8
0
10
52.705000000000005
20
54.210381250000005
30
0
0
VERTEX
8
0
10
52.705000000000005
20
47.389618750000004
30
0
0
VERTEX
8
0
10
52.695928125
20
47.376040625
30
0
0
VERTEX
8
0
10
52.661190625
20
47.311053125
30
0
0
VERTEX
8
0
10
52.632990625000005
20
47.242971875
30
0
0
VERTEX
8
0
10
52.6116
20
47.17245625
30
0
0
VERTEX
8
0
10
52.597221875
20
47.100181250000006
30
0
0
VERTEX
8
0
10
52.59
20
47.026843750000005
30
0
0
VERTEX
8
0
10
52.59
20
46.95315625
30
0
0
VERTEX
8
0
10
52.597221875
20
46.879818750000005
30
0
0
VERTEX
8
0
10
52.6116
20
46.80754375
30
0
0
VERTEX
8
0
10
52.632990625000005
20
46.737028125
30
0
0
VERTEX
8
0
10
52.661190625
20
46.668946875
30
0
0
VERTEX
8
0
10
52.695928125
20
46.603959375
30
0
0
VERTEX
8
0
10
52.73686875
20
46.5426875
30
0
0
VERTEX
8
0
10
52.783615625
20
46.485721875
30
0
0
VERTEX
8
0
10
52.835721875000004
20
46.433615625
30
0
0
VERTEX
8
0
10
52.8926875
20
46.386868750000005
30
0
0
VERTEX
8
0
10
52.953959375000004
20
46.345928125
30
0
0
VERTEX
8
0
10
53.018946875000005
20
46.311190625
30
0
0
VERTEX
8
0
10
53.087028125
20
46.282990625000004
30
0
0
VERTEX
8
0
10
53.15754375
20
46.2616
30
0
0
VERTEX
8
0
10
53.22981875
20
46.247221875
30
0
0
VERTEX
8
0
10
53.30315625
20
46.24
30
0
0
VERTEX
8
0
10
53.37684375
20
46.24
30
0
0
SEQEND
0
POLYLINE
66
1
8
1_copper
10
0.0
20
0.0
30
0.0
70
1
0
VERTEX
8
0
10
83.93018125
20
25.292221875000003
30
0
42
0.9999999999999999
0
VERTEX
8
0
10
83.70981875000001
20
26.777778125
30
0
0
VERTEX
8
0
10
83.63754375
20
26.7634
30
0
42
0.14044209854177306
0
VERTEX
8
0
10
83.2800375
20
26.5557
30
0
0
VERTEX
8
0
10
82.86824375
20
26.5557
30
0
0
VERTEX
8
0
10
81.37618125
20
28.0477625
30
0
42
0.198912367379658
0
VERTEX
8
0
10
81.26841875000001
20
28.0924
30
0
0
VERTEX
8
0
10
66.774378125
20
28.0924
30
0
42
0.9717258140724931
0
VERTEX
8
0
10
65.297221875
20
27.82981875
30
0
0
VERTEX
8
0
10
65.3116
20
27.75754375
30
0
42
0.7969589440871984
0
VERTEX
8
0
10
66.774378125
20
27.7876
30
0
0
VERTEX
8
0
10
81.20529375000001
20
27.7876
30
0
0
VERTEX
8
0
10
82.69735625
20
26.295537500000002
30
0
42
0.198912367379658
0
VERTEX
8
0
10
82.80511875
20
26.2509
30
0
0
VERTEX
8
0
10
83.10174375
20
26.2509
30
0
0
VERTEX
8
0
10
83.0916
20
26.21745625
30
0
0
VERTEX
8
0
10
83.077221875
20
26.14518125
30
0
0
VERTEX
8
0
10
83.07000000000001
20
26.071843750000003
30
0
0
VERTEX
8
0
10
83.07000000000001
20
25.99815625
30
0
0
VERTEX
8
0
10
83.077221875
20
25.92481875
30
0
0
VERTEX
8
0
10
83.0916
20
25.852543750000002
30
0
0
VERTEX
8
0
10
83.11299062500001
20
25.782028125
30
0
0
VERTEX
8
0
10
83.14119062500001
20
25.713946875
30
0
0
VERTEX
8
0
10
83.175928125
20
25.648959375
30
0
0
VERTEX
8
0
10
83.21686875
20
25.5876875
30
0
0
VERTEX
8
0
10
83.263615625
20
25.530721875
30
0
0
VERTEX
8
0
10
83.31572187500001
20
25.478615625
30
0
0
VERTEX
8
0
10
83.3726875
20
25.43186875
30
0
0
VERTEX
8
0
10
83.433959375
20
25.390928125000002
30
0
0
VERTEX
8
0
10
83.498946875
20
25.356190625
30
0
0
VERTEX
8
0
10
83.56702812500001
20
25.327990625
30
0
0
VERTEX
8
0
10
83.63754375
20
25.3066
30
0
0
VERTEX
8
0
10
83.70981875000001
20
25.292221875000003
30
0
0
VERTEX
8
0
10
83.78315625
20
25.285
30
0
0
VERTEX
8
0
10
83.85684375000001
20
25.285
30
0
0
SEQEND
0
POLYLINE
66
1
8
1_copper
10
0.0
20
0.0
30
0.0
70
1
0
VERTEX
8
0
10
91.5391625
20
4.9195
30
0
0
VERTEX
8
0
10
91.60420937500001
20
4.932440625
30
0
0
VERTEX
8
0
10
91.667675
20
4.951690625
30
0
0
VERTEX
8
0
10
91.728946875
20
4.977071875
30
0
0
VERTEX
8
0
10
91.78743750000001
20
5.0083343750000004
30
0
0
VERTEX
8
0
10
91.84258125000001
20
5.045181250000001
30
0
0
VERTEX
8
0
10
91.89385
20
5.08725625
30
0
0
VERTEX
8
0
10
91.94074375000001
20
5.13415
30
0
0
VERTEX
8
0
10
91.98281875
20
5.18541875
30
0
0
VERTEX
8
0
10
92.019665625
20
5.2405625
30
0
0
VERTEX
8
0
10
92.050928125
20
5.299053125
30
0
0
VERTEX
8
0
10
92.07630937500001
20
5.3603250000000005
30
0
0
VERTEX
8
0
10
92.09555937500001
20
5.4237906250000005
30
0
0
VERTEX
8
0
10
92.1085
20
5.488837500000001
30
0
0
VERTEX
8
0
10
92.11500000000001
20
5.554840625000001
30
0
0
VERTEX
8
0
10
92.11500000000001
20
5.621159375
30
0
0
VERTEX
8
0
10
92.1085
20
5.6871625
30
0
0
VERTEX
8
0
10
92.09555937500001
20
5.7522093750000005
30
0
0
VERTEX
8
0
10
92.07630937500001
20
5.815675000000001
30
0
0
VERTEX
8
0
10
92.050928125
20
5.876946875000001
30
0
0
VERTEX
8
0
10
92.019665625
20
5.9354375
30
0
0
VERTEX
8
0
10
91.98281875
20
5.99058125
30
0
0
VERTEX
8
0
10
91.94074375000001
20
6.04185
30
0
0
VERTEX
8
0
10
91.89385
20
6.08874375
30
0
0
VERTEX
8
0
10
91.84258125000001
20
6.13081875
30
0
0
VERTEX
8
0
10
91.78743750000001
20
6.167665625000001
30
0
0
VERTEX
8
0
10
91.728946875
20
6.198928125
30
0
0
VERTEX
8
0
10
91.667675
20
6.224309375000001
30
0
0
VERTEX
8
0
10
91.60420937500001
20
6.243559375
30
0
0
VERTEX
8
0
10
91.5391625
20
6.2565
30
0
0
VERTEX
8
0
10
91.47315937500001
20
6.263
30
0
0
VERTEX
8
0
10
91.406840625
20
6.263
30
0
0
VERTEX
8
0
10
91.3408375
20
6.2565
30
0
0
VERTEX
8
0
10
91.275790625
20
6.243559375
30
0
0
VERTEX
8
0
10
91.212325
20
6.224309375000001
30
0
0
VERTEX
8
0
10
91.151053125
20
6.198928125
30
0
0
VERTEX
8
0
10
91.0925625
20
6.167665625000001
30
0
0
VERTEX
8
0
10
91.03741875
20
6.13081875
30
0
0
VERTEX
8
0
10
90.98615000000001
20
6.08874375
30
0
0
VERTEX
8
0
10
90.93925625
20
6.04185
30
0
0
VERTEX
8
0
10
90.89718125
20
5.99058125
30
0
0
VERTEX
8
0
10
90.86033437500001
20
5.9354375
30
0
0
VERTEX
8
0
10
90.82907187500001
20
5.876946875000001
30
0
0
VERTEX
8
0
10
90.803690625
20
5.815675000000001
30
0
0
VERTEX
8
0
10
90.784440625
20
5.7522093750000005
30
0
0
VERTEX
8
0
10
90.7715
20
5.6871625
30
0
0
VERTEX
8
0
10
90.765
20
5.621159375
30
0
0
VERTEX
8
0
10
90.765
20
5.554840625000001
30
0
0
VERTEX
8
0
10
90.7715
20
5.488837500000001
30
0
0
VERTEX
8
0
10
90.784440625
20
5.4237906250000005
30
0
0
VERTEX
8
0
10
90.803690625
20
5.3603250000000005
30
0
0
VERTEX
8
0
10
90.82907187500001
20
5.299053125
30
0
0
VERTEX
8
0
10
90.86033437500001
20
5.2405625
30
0
0
VERTEX
8
0
10
90.89718125
20
5.18541875
30
0
0
VERTEX
8
0
10
90.93925625
20
5.13415
30
0
0
VERTEX
8
0
10
90.98615000000001
20
5.08725625
30
0
0
VERTEX
8
0
10
91.03741875
20
5.045181250000001
30
0
0
VERTEX
8
0
10
91.0925625
20
5.0083343750000004
30
0
0
VERTEX
8
0
10
91.151053125
20
4.977071875
30
0
0
VERTEX
8
0
10
91.212325
20
4.951690625
30
0
0
VERTEX
8
0
10
91.275790625
20
4.932440625
30
0
0
VERTEX
8
0
10
91.3408375
20
4.9195
30
0
0
VERTEX
8
0
10
91.406840625
20
4.913
30
0
0
VERTEX
8
0
10
91.47315937500001
20
4.913
30
0
0
SEQEND
0
POLYLINE
66
1
8
1_copper
10
0.0
20
0.0
30
0.0
70
1
0
VERTEX
8
0
10
92.10040000000001
20
3.53645625
30
0
0
VERTEX
8
0
10
92.10040000000001
20
4.0835437500000005
30
0
0
VERTEX
8
0
10
91.71354375
20
4.470400000000001
30
0
0
VERTEX
8
0
10
91.16645625000001
20
4.470400000000001
30
0
0
VERTEX
8
0
10
90.7796
20
4.0835437500000005
30
0
0
VERTEX
8
0
10
90.7796
20
3.53645625
30
0
0
VERTEX
8
0
10
91.16645625000001
20
3.1496
30
0
0
VERTEX
8
0
10
91.71354375
20
3.1496
30
0
0
SEQEND
0
POLYLINE
66
1
8
16_copper
10
0.0
20
0.0
30
0.0
70
1
0
VERTEX
8
0
10
53.45018125
20
53.867221875000006
30
0
42
0.5415188693111257
0
VERTEX
8
0
10
53.975
20
55.00961875
30
0
0
VERTEX
8
0
10
53.975
20
56.455925
30
0
0
VERTEX
8
0
10
54.2798
20
56.760725
30
0
0
VERTEX
8
0
10
54.2798
20
57.539275
30
0
0
VERTEX
8
0
10
53.729275
20
58.089800000000004
30
0
0
VERTEX
8
0
10
52.950725000000006
20
58.089800000000004
30
0
0
VERTEX
8
0
10
52.400200000000005
20
57.539275
30
0
0
VERTEX
8
0
10
52.400200000000005
20
56.760725
30
0
0
VERTEX
8
0
10
52.705000000000005
20
56.455925
30
0
0
VERTEX
8
0
10
52.705000000000005
20
55.00961875
30
0
0
VERTEX
8
0
10
52.695928125
20
54.996040625
30
0
0
VERTEX
8
0
10
52.661190625
20
54.931053125000005
30
0
0
VERTEX
8
0
10
52.632990625000005
20
54.862971875
30
0
0
VERTEX
8
0
10
52.6116
20
54.79245625
30
0
0
VERTEX
8
0
10
52.597221875
20
54.72018125
30
0
0
VERTEX
8
0
10
52.59
20
54.64684375
30
0
0
VERTEX
8
0
10
52.59
20
54.573156250000004
30
0
0
VERTEX
8
0
10
52.597221875
20
54.49981875
30
0
0
VERTEX
8
0
10
52.6116
20
54.427543750000005
30
0
0
VERTEX
8
0
10
52.632990625000005
20
54.357028125
30
0
0
VERTEX
8
0
10
52.661190625
20
54.288946875
30
0
0
VERTEX
8
0
10
52.695928125
20
54.223959375
30
0
0
VERTEX
8
0
10
52.73686875
20
54.162687500000004
30
0
0
VERTEX
8
0
10
52.783615625
20
54.105721875
30
0
0
VERTEX
8
0
10
52.835721875000004
20
54.053615625
30
0
0
VERTEX
8
0
10
52.8926875
20
54.00686875
30
0
0
VERTEX
8
0
10
52.953959375000004
20
53.965928125000005
30
0
0
VERTEX
8
0
10
53.018946875000005
20
53.931190625
30
0
0
VERTEX
8
0
10
53.087028125
20
53.902990625
30
0
0
VERTEX
8
0
10
53.15754375
20
53.881600000000006
30
0
0
VERTEX
8
0
10
53.22981875
20
53.867221875000006
30
0
0
VERTEX
8
0
10
53.30315625
20
53.86
30
0
0
VERTEX
8
0
10
53.37684375
20
53.86
30
0
0
SEQEND
0
POLYLINE
66
1
8
16_copper
10
0.0
20
0.0
30
0.0
70
1
0
VERTEX
8
0
10
53.975
20
46.59038125
30
0
42
0.9624943965945741
0
VERTEX
8
0
10
52.73686875
20
47.437312500000004
30
0
0
VERTEX
8
0
10
52.695928125
20
47.376040625
30
0
42
0.28259678315689835
0
VERTEX
8
0
10
52.705000000000005
20
46.59038125
30
0
0
VERTEX
8
0
10
52.705000000000005
20
40.64
30
0
42
0.198912367379658
0
VERTEX
8
0
10
52.8909875
20
40.1909875
30
0
0
VERTEX
8
0
10
65.3084125
20
27.7735625
30
0
42
0.9624962524496844
0
VERTEX
8
0
10
66.78277812500001
20
28.05018125
30
0
0
VERTEX
8
0
10
66.7684
20
28.122456250000003
30
0
42
0.2825975025987552
0
VERTEX
8
0
10
66.2064375
20
28.6715875
30
0
0
VERTEX
8
0
10
53.975
20
40.903025
30
0
0
SEQEND
0
POLYLINE
66
1
8
16_copper
10
0.0
20
0.0
30
0.0
70
1
0
VERTEX
8
0
10
95.26886875000001
20
3.1759375000000003
30
0
42
0.7903094760773046
0
VERTEX
8
0
10
95.51853125000001
20
4.385425000000001
30
0
0
VERTEX
8
0
10
91.91597812500001
20
6.066615625000001
30
0
42
0.39421364560913574
0
VERTEX
8
0
10
90.994990625
20
6.096
30
0
0
VERTEX
8
0
10
87.58641875
20
6.096
30
0
0
VERTEX
8
0
10
86.233
20
7.44941875
30
0
0
VERTEX
8
0
10
86.233
20
25.146
30
0
42
0.41421356237309503
0
VERTEX
8
0
10
85.72500000000001
20
25.654
30
0
0
VERTEX
8
0
10
84.91941875
20
25.654
30
0
0
VERTEX
8
0
10
84.57000000000001
20
26.00341875
30
0
42
0.996505080489585
0
VERTEX
8
0
10
83.07000000000001
20
26.071843750000003
30
0
0
VERTEX
8
0
10
83.07000000000001
20
25.99815625
30
0
42
0.41216418810545885
0
VERTEX
8
0
10
83.85158125000001
20
25.285
30
0
0
VERTEX
8
0
10
84.349790625
20
24.786790625000002
30
0
42
0.198912367379658
0
VERTEX
8
0
10
84.709
20
24.638
30
0
0
VERTEX
8
0
10
85.217
20
24.638
30
0
0
VERTEX
8
0
10
85.217
20
7.239000000000001
30
0
42
0.198912367379658
0
VERTEX
8
0
10
85.365790625
20
6.879790625
30
0
0
VERTEX
8
0
10
87.016790625
20
5.228790625
30
0
42
0.198912367379658
0
VERTEX
8
0
10
87.376
20
5.08
30
0
0
VERTEX
8
0
10
90.805
20
5.08
30
0
0
VERTEX
8
0
10
90.805
20
4.10894375
30
0
0
VERTEX
8
0
10
90.7796
20
4.0835437500000005
30
0
0
VERTEX
8
0
10
90.7796
20
3.53645625
30
0
0
VERTEX
8
0
10
91.16645625000001
20
3.1496
30
0
0
VERTEX
8
0
10
91.71354375
20
3.1496
30
0
0
VERTEX
8
0
10
91.73894375
20
3.1750000000000003
30
0
0
VERTEX
8
0
10
95.25
20
3.1750000000000003
30
0
0
SEQEND
0
POLYLINE
66
1
8
1_copper
10
0.0
20
0.0
30
0.0
70
1
0
VERTEX
8
0
10
66.9798
20
56.760725
30
0
0
VERTEX
8
0
10
66.9798
20
57.539275
30
0
0
VERTEX
8
0
10
66.429275
20
58.089800000000004
30
0
0
VERTEX
8
0
10
65.65072500000001
20
58.089800000000004
30
0
0
VERTEX
8
0
10
65.1002
20
57.539275
30
0
0
VERTEX
8
0
10
65.1002
20
56.760725
30
0
0
VERTEX
8
0
10
65.65072500000001
20
56.2102
30
0
0
VERTEX
8
0
10
66.429275
20
56.2102
30
0
0
SEQEND
0
POLYLINE
66
1
8
1_copper
10
0.0
20
0.0
30
0.0
70
1
0
VERTEX
8
0
10
66.15018125
20
53.867221875000006
30
0
0
VERTEX
8
0
10
66.22245625000001
20
53.881600000000006
30
0
0
VERTEX
8
0
10
66.292971875
20
53.902990625
30
0
0
VERTEX
8
0
10
66.361053125
20
53.931190625
30
0
0
VERTEX
8
0
10
66.426040625
20
53.965928125000005
30
0
0
VERTEX
8
0
10
66.4873125
20
54.00686875
30
0
0
VERTEX
8
0
10
66.544278125
20
54.053615625
30
0
0
VERTEX
8
0
10
66.596384375
20
54.105721875
30
0
0
VERTEX
8
0
10
66.64313125
20
54.162687500000004
30
0
0
VERTEX
8
0
10
66.684071875
20
54.223959375
30
0
0
VERTEX
8
0
10
66.718809375
20
54.288946875
30
0
0
VERTEX
8
0
10
66.747009375
20
54.357028125
30
0
0
VERTEX
8
0
10
66.7684
20
54.427543750000005
30
0
0
VERTEX
8
0
10
66.78277812500001
20
54.49981875
30
0
0
VERTEX
8
0
10
66.79
20
54.573156250000004
30
0
0
VERTEX
8
0
10
66.79
20
54.64684375
30
0
0
VERTEX
8
0
10
66.78277812500001
20
54.72018125
30
0
0
VERTEX
8
0
10
66.7684
20
54.79245625
30
0
0
VERTEX
8
0
10
66.747009375
20
54.862971875
30
0
0
VERTEX
8
0
10
66.718809375
20
54.931053125000005
30
0
0
VERTEX
8
0
10
66.684071875
20
54.996040625
30
0
0
VERTEX
8
0
10
66.64313125
20
55.0573125
30
0
0
VERTEX
8
0
10
66.596384375
20
55.114278125000006
30
0
0
VERTEX
8
0
10
66.544278125
20
55.166384375
30
0
0
VERTEX
8
0
10
66.4873125
20
55.21313125
30
0
0
VERTEX
8
0
10
66.426040625
20
55.254071875
30
0
0
VERTEX
8
0
10
66.361053125
20
55.288809375
30
0
0
VERTEX
8
0
10
66.292971875
20
55.317009375000005
30
0
0
VERTEX
8
0
10
66.22245625000001
20
55.3384
30
0
0
VERTEX
8
0
10
66.15018125
20
55.352778125
30
0
0
VERTEX
8
0
10
66.07684375000001
20
55.36
30
0
0
VERTEX
8
0
10
66.00315625
20
55.36
30
0
0
VERTEX
8
0
10
65.92981875000001
20
55.352778125
30
0
0
VERTEX
8
0
10
65.85754375
20
55.3384
30
0
0
VERTEX
8
0
10
65.787028125
20
55.317009375000005
30
0
0
VERTEX
8
0
10
65.718946875
20
55.288809375
30
0
0
VERTEX
8
0
10
65.653959375
20
55.254071875
30
0
0
VERTEX
8
0
10
65.5926875
20
55.21313125
30
0
0
VERTEX
8
0
10
65.53572187500001
20
55.166384375
30
0
0
VERTEX
8
0
10
65.483615625
20
55.114278125000006
30
0
0
VERTEX
8
0
10
65.43686875
20
55.0573125
30
0
0
VERTEX
8
0
10
65.395928125
20
54.996040625
30
0
0
VERTEX
8
0
10
65.361190625
20
54.931053125000005
30
0
0
VERTEX
8
0
10
65.33299062500001
20
54.862971875
30
0
0
VERTEX
8
0
10
65.3116
20
54.79245625
30
0
0
VERTEX
8
0
10
65.297221875
20
54.72018125
30
0
0
VERTEX
8
0
10
65.29
20
54.64684375
30
0
0
VERTEX
8
0
10
65.29
20
54.573156250000004
30
0
0
VERTEX
8
0
10
65.297221875
20
54.49981875
30
0
0
VERTEX
8
0
10
65.3116
20
54.427543750000005
30
0
0
VERTEX
8
0
10
65.33299062500001
20
54.357028125
30
0
0
VERTEX
8
0
10
65.361190625
20
54.288946875
30
0
0
VERTEX
8
0
10
65.395928125
20
54.223959375
30
0
0
VERTEX
8
0
10
65.43686875
20
54.162687500000004
30
0
0
VERTEX
8
0
10
65.483615625
20
54.105721875
30
0
0
VERTEX
8
0
10
65.53572187500001
20
54.053615625
30
0
0
VERTEX
8
0
10
65.5926875
20
54.00686875
30
0
0
VERTEX
8
0
10
65.653959375
20
53.965928125000005
30
0
0
VERTEX
8
0
10
65.718946875
20
53.931190625
30
0
0
VERTEX
8
0
10
65.787028125
20
53.902990625
30
0
0
VERTEX
8
0
10
65.85754375
20
53.881600000000006
30
0
0
VERTEX
8
0
10
65.92981875000001
20
53.867221875000006
30
0
0
VERTEX
8
0
10
66.00315625
20
53.86
30
0
0
VERTEX
8
0
10
66.07684375000001
20
53.86
30
0
0
SEQEND
0
POLYLINE
66
1
8
1_copper
10
0.0
20
0.0
30
0.0
70
1
0
VERTEX
8
0
10
84.05718125
20
51.454221875
30
0
0
VERTEX
8
0
10
84.12945625
20
51.4686
30
0
0
VERTEX
8
0
10
84.199971875
20
51.489990625000004
30
0
0
VERTEX
8
0
10
84.26805312500001
20
51.518190625
30
0
0
VERTEX
8
0
10
84.33304062500001
20
51.552928125
30
0
0
VERTEX
8
0
10
84.3943125
20
51.593868750000006
30
0
0
VERTEX
8
0
10
84.451278125
20
51.640615625
30
0
0
VERTEX
8
0
10
84.50338437500001
20
51.692721875000004
30
0
0
VERTEX
8
0
10
84.55013125
20
51.7496875
30
0
0
VERTEX
8
0
10
84.591071875
20
51.810959375
30
0
0
VERTEX
8
0
10
84.625809375
20
51.875946875000004
30
0
0
VERTEX
8
0
10
84.654009375
20
51.944028125
30
0
0
VERTEX
8
0
10
84.67540000000001
20
52.01454375
30
0
0
VERTEX
8
0
10
84.689778125
20
52.08681875
30
0
0
VERTEX
8
0
10
84.697
20
52.16015625
30
0
0
VERTEX
8
0
10
84.697
20
52.233843750000005
30
0
0
VERTEX
8
0
10
84.689778125
20
52.30718125
30
0
0
VERTEX
8
0
10
84.67540000000001
20
52.379456250000004
30
0
0
VERTEX
8
0
10
84.654009375
20
52.449971875
30
0
0
VERTEX
8
0
10
84.625809375
20
52.518053125
30
0
0
VERTEX
8
0
10
84.591071875
20
52.583040625
30
0
0
VERTEX
8
0
10
84.55013125
20
52.644312500000005
30
0
0
VERTEX
8
0
10
84.50338437500001
20
52.701278125
30
0
0
VERTEX
8
0
10
84.451278125
20
52.753384375
30
0
0
VERTEX
8
0
10
84.3943125
20
52.80013125
30
0
0
VERTEX
8
0
10
84.33304062500001
20
52.841071875000004
30
0
0
VERTEX
8
0
10
84.26805312500001
20
52.875809375
30
0
0
VERTEX
8
0
10
84.199971875
20
52.904009375
30
0
0
VERTEX
8
0
10
84.12945625
20
52.9254
30
0
0
VERTEX
8
0
10
84.05718125
20
52.939778125000004
30
0
0
VERTEX
8
0
10
83.98384375
20
52.947
30
0
0
VERTEX
8
0
10
83.91015625
20
52.947
30
0
0
VERTEX
8
0
10
83.83681875
20
52.939778125000004
30
0
0
VERTEX
8
0
10
83.76454375
20
52.9254
30
0
0
VERTEX
8
0
10
83.694028125
20
52.904009375
30
0
0
VERTEX
8
0
10
83.62594687500001
20
52.875809375
30
0
0
VERTEX
8
0
10
83.56095937500001
20
52.841071875000004
30
0
0
VERTEX
8
0
10
83.49968750000001
20
52.80013125
30
0
0
VERTEX
8
0
10
83.442721875
20
52.753384375
30
0
0
VERTEX
8
0
10
83.39061562500001
20
52.701278125
30
0
0
VERTEX
8
0
10
83.34386875
20
52.644312500000005
30
0
0
VERTEX
8
0
10
83.30292812500001
20
52.583040625
30
0
0
VERTEX
8
0
10
83.268190625
20
52.518053125
30
0
0
VERTEX
8
0
10
83.239990625
20
52.449971875
30
0
0
VERTEX
8
0
10
83.21860000000001
20
52.379456250000004
30
0
0
VERTEX
8
0
10
83.204221875
20
52.30718125
30
0
0
VERTEX
8
0
10
83.197
20
52.233843750000005
30
0
0
VERTEX
8
0
10
83.197
20
52.16015625
30
0
0
VERTEX
8
0
10
83.204221875
20
52.08681875
30
0
0
VERTEX
8
0
10
83.21860000000001
20
52.01454375
30
0
0
VERTEX
8
0
10
83.239990625
20
51.944028125
30
0
0
VERTEX
8
0
10
83.268190625
20
51.875946875000004
30
0
0
VERTEX
8
0
10
83.30292812500001
20
51.810959375
30
0
0
VERTEX
8
0
10
83.34386875
20
51.7496875
30
0
0
VERTEX
8
0
10
83.39061562500001
20
51.692721875000004
30
0
0
VERTEX
8
0
10
83.442721875
20
51.640615625
30
0
0
VERTEX
8
0
10
83.49968750000001
20
51.593868750000006
30
0
0
VERTEX
8
0
10
83.56095937500001
20
51.552928125
30
0
0
VERTEX
8
0
10
83.62594687500001
20
51.518190625
30
0
0
VERTEX
8
0
10
83.694028125
20
51.489990625000004
30
0
0
VERTEX
8
0
10
83.76454375
20
51.4686
30
0
0
VERTEX
8
0
10
83.83681875
20
51.454221875
30
0
0
VERTEX
8
0
10
83.91015625
20
51.447
30
0
0
VERTEX
8
0
10
83.98384375
20
51.447
30
0
0
SEQEND
0
POLYLINE
66
1
8
1_copper
10
0.0
20
0.0
30
0.0
70
1
0
VERTEX
8
0
10
91.5391625
20
40.606500000000004
30
0
0
VERTEX
8
0
10
91.60420937500001
20
40.619440625
30
0
0
VERTEX
8
0
10
91.667675
20
40.638690625
30
0
0
VERTEX
8
0
10
91.728946875
20
40.664071875000005
30
0
0
VERTEX
8
0
10
91.78743750000001
20
40.695334375
30
0
0
VERTEX
8
0
10
91.84258125000001
20
40.732181250000004
30
0
0
VERTEX
8
0
10
91.89385
20
40.77425625
30
0
0
VERTEX
8
0
10
91.94074375000001
20
40.82115
30
0
0
VERTEX
8
0
10
91.98281875
20
40.87241875
30
0
0
VERTEX
8
0
10
92.019665625
20
40.9275625
30
0
0
VERTEX
8
0
10
92.050928125
20
40.986053125000005
30
0
0
VERTEX
8
0
10
92.07630937500001
20
41.047325
30
0
0
VERTEX
8
0
10
92.09555937500001
20
41.110790625
30
0
0
VERTEX
8
0
10
92.1085
20
41.1758375
30
0
0
VERTEX
8
0
10
92.11500000000001
20
41.241840625
30
0
0
VERTEX
8
0
10
92.11500000000001
20
41.308159375
30
0
0
VERTEX
8
0
10
92.1085
20
41.374162500000004
30
0
0
VERTEX
8
0
10
92.09555937500001
20
41.439209375000004
30
0
0
VERTEX
8
0
10
92.07630937500001
20
41.502675
30
0
0
VERTEX
8
0
10
92.050928125
20
41.563946875
30
0
0
VERTEX
8
0
10
92.019665625
20
41.622437500000004
30
0
0
VERTEX
8
0
10
91.98281875
20
41.67758125
30
0
0
VERTEX
8
0
10
91.94074375000001
20
41.72885
30
0
0
VERTEX
8
0
10
91.89385
20
41.775743750000004
30
0
0
VERTEX
8
0
10
91.84258125000001
20
41.81781875
30
0
0
VERTEX
8
0
10
91.78743750000001
20
41.854665625
30
0
0
VERTEX
8
0
10
91.728946875
20
41.885928125
30
0
0
VERTEX
8
0
10
91.667675
20
41.911309375
30
0
0
VERTEX
8
0
10
91.60420937500001
20
41.930559375
30
0
0
VERTEX
8
0
10
91.5391625
20
41.9435
30
0
0
VERTEX
8
0
10
91.47315937500001
20
41.95
30
0
0
VERTEX
8
0
10
91.406840625
20
41.95
30
0
0
VERTEX
8
0
10
91.3408375
20
41.9435
30
0
0
VERTEX
8
0
10
91.275790625
20
41.930559375
30
0
0
VERTEX
8
0
10
91.212325
20
41.911309375
30
0
0
VERTEX
8
0
10
91.151053125
20
41.885928125
30
0
0
VERTEX
8
0
10
91.0925625
20
41.854665625
30
0
0
VERTEX
8
0
10
91.03741875
20
41.81781875
30
0
0
VERTEX
8
0
10
90.98615000000001
20
41.775743750000004
30
0
0
VERTEX
8
0
10
90.93925625
20
41.72885
30
0
0
VERTEX
8
0
10
90.89718125
20
41.67758125
30
0
0
VERTEX
8
0
10
90.86033437500001
20
41.622437500000004
30
0
0
VERTEX
8
0
10
90.82907187500001
20
41.563946875
30
0
0
VERTEX
8
0
10
90.803690625
20
41.502675
30
0
0
VERTEX
8
0
10
90.784440625
20
41.439209375000004
30
0
0
VERTEX
8
0
10
90.7715
20
41.374162500000004
30
0
0
VERTEX
8
0
10
90.765
20
41.308159375
30
0
0
VERTEX
8
0
10
90.765
20
41.241840625
30
0
0
VERTEX
8
0
10
90.7715
20
41.1758375
30
0
0
VERTEX
8
0
10
90.784440625
20
41.110790625
30
0
0
VERTEX
8
0
10
90.803690625
20
41.047325
30
0
0
VERTEX
8
0
10
90.82907187500001
20
40.986053125000005
30
0
0
VERTEX
8
0
10
90.86033437500001
20
40.9275625
30
0
0
VERTEX
8
0
10
90.89718125
20
40.87241875
30
0
0
VERTEX
8
0
10
90.93925625
20
40.82115
30
0
0
VERTEX
8
0
10
90.98615000000001
20
40.77425625
30
0
0
VERTEX
8
0
10
91.03741875
20
40.732181250000004
30
0
0
VERTEX
8
0
10
91.0925625
20
40.695334375
30
0
0
VERTEX
8
0
10
91.151053125
20
40.664071875000005
30
0
0
VERTEX
8
0
10
91.212325
20
40.638690625
30
0
0
VERTEX
8
0
10
91.275790625
20
40.619440625
30
0
0
VERTEX
8
0
10
91.3408375
20
40.606500000000004
30
0
0
VERTEX
8
0
10
91.406840625
20
40.6
30
0
0
VERTEX
8
0
10
91.47315937500001
20
40.6
30
0
0
SEQEND
0
POLYLINE
66
1
8
1_copper
10
0.0
20
0.0
30
0.0
70
1
0
VERTEX
8
0
10
92.10040000000001
20
39.09645625
30
0
0
VERTEX
8
0
10
92.10040000000001
20
39.64354375
30
0
0
VERTEX
8
0
10
91.71354375
20
40.0304
30
0
0
VERTEX
8
0
10
91.16645625000001
20
40.0304
30
0
0
VERTEX
8
0
10
90.7796
20
39.64354375
30
0
0
VERTEX
8
0
10
90.7796
20
39.09645625
30
0
0
VERTEX
8
0
10
91.16645625000001
20
38.7096
30
0
0
VERTEX
8
0
10
91.71354375
20
38.7096
30
0
0
SEQEND
0
POLYLINE
66
1
8
16_copper
10
0.0
20
0.0
30
0.0
70
1
0
VERTEX
8
0
10
95.2603
20
38.7355125
30
0
42
0.7848396510989389
0
VERTEX
8
0
10
95.53398125000001
20
39.937962500000005
30
0
0
VERTEX
8
0
10
91.92928125
20
41.7403125
30
0
42
0.18830494411048077
0
VERTEX
8
0
10
91.48454062500001
20
41.948878125
30
0
0
VERTEX
8
0
10
90.6272
20
42.80621875
30
0
0
VERTEX
8
0
10
90.6272
20
46.0248
30
0
42
0.198912367379658
0
VERTEX
8
0
10
90.478409375
20
46.384009375000005
30
0
0
VERTEX
8
0
10
84.697
20
52.16541875
30
0
42
0.5969989395116457
0
VERTEX
8
0
10
83.56095937500001
20
52.841071875000004
30
0
0
VERTEX
8
0
10
83.49968750000001
20
52.80013125
30
0
42
0.11953020017374454
0
VERTEX
8
0
10
83.2612125
20
52.845400000000005
30
0
0
VERTEX
8
0
10
67.25301875000001
20
52.845400000000005
30
0
0
VERTEX
8
0
10
66.548
20
53.550418750000006
30
0
0
VERTEX
8
0
10
66.548
20
54.0573375
30
0
42
0.36196660209735365
0
VERTEX
8
0
10
66.675
20
55.00961875
30
0
0
VERTEX
8
0
10
66.675
20
56.455925
30
0
0
VERTEX
8
0
10
66.9798
20
56.760725
30
0
0
VERTEX
8
0
10
66.9798
20
57.539275
30
0
0
VERTEX
8
0
10
66.429275
20
58.089800000000004
30
0
0
VERTEX
8
0
10
65.65072500000001
20
58.089800000000004
30
0
0
VERTEX
8
0
10
65.1002
20
57.539275
30
0
0
VERTEX
8
0
10
65.1002
20
56.760725
30
0
0
VERTEX
8
0
10
65.405
20
56.455925
30
0
0
VERTEX
8
0
10
65.405
20
55.00961875
30
0
42
0.36196660209735365
0
VERTEX
8
0
10
65.532
20
54.0573375
30
0
0
VERTEX
8
0
10
65.532
20
53.34
30
0
42
0.198912367379658
0
VERTEX
8
0
10
65.680790625
20
52.980790625000004
30
0
0
VERTEX
8
0
10
66.683390625
20
51.978190625
30
0
42
0.198912367379658
0
VERTEX
8
0
10
67.04260000000001
20
51.8294
30
0
0
VERTEX
8
0
10
83.05178125
20
51.8294
30
0
42
0.1886647895728197
0
VERTEX
8
0
10
83.394125
20
51.689212500000004
30
0
0
VERTEX
8
0
10
83.442721875
20
51.640615625
30
0
42
0.1970929265721377
0
VERTEX
8
0
10
83.97858125
20
51.447
30
0
0
VERTEX
8
0
10
89.61120000000001
20
45.814381250000004
30
0
0
VERTEX
8
0
10
89.61120000000001
20
42.595800000000004
30
0
42
0.198912367379658
0
VERTEX
8
0
10
89.759990625
20
42.236590625000005
30
0
0
VERTEX
8
0
10
90.76612187500001
20
41.230459375
30
0
42
0.07078464534526005
0
VERTEX
8
0
10
90.805
20
41.044165625000005
30
0
0
VERTEX
8
0
10
90.805
20
39.668943750000004
30
0
0
VERTEX
8
0
10
90.7796
20
39.64354375
30
0
0
VERTEX
8
0
10
90.7796
20
39.09645625
30
0
0
VERTEX
8
0
10
91.16645625000001
20
38.7096
30
0
0
VERTEX
8
0
10
91.71354375
20
38.7096
30
0
0
VERTEX
8
0
10
91.73894375
20
38.735
30
0
0
VERTEX
8
0
10
95.25
20
38.735
30
0
0
SEQEND
0
POLYLINE
66
1
8
1_copper
10
0.0
20
0.0
30
0.0
70
1
0
VERTEX
8
0
10
59.3598
20
56.760725
30
0
0
VERTEX
8
0
10
59.3598
20
57.539275
30
0
0
VERTEX
8
0
10
58.809275
20
58.089800000000004
30
0
0
VERTEX
8
0
10
58.030725000000004
20
58.089800000000004
30
0
0
VERTEX
8
0
10
57.4802
20
57.539275
30
0
0
VERTEX
8
0
10
57.4802
20
56.760725
30
0
0
VERTEX
8
0
10
58.030725000000004
20
56.2102
30
0
0
VERTEX
8
0
10
58.809275
20
56.2102
30
0
0
SEQEND
0
POLYLINE
66
1
8
1_copper
10
0.0
20
0.0
30
0.0
70
1
0
VERTEX
8
0
10
58.530181250000005
20
46.247221875
30
0
42
0.5415188693111257
0
VERTEX
8
0
10
59.055
20
47.389618750000004
30
0
0
VERTEX
8
0
10
59.055
20
54.210381250000005
30
0
42
0.9624943965945741
0
VERTEX
8
0
10
57.816868750000005
20
55.0573125
30
0
0
VERTEX
8
0
10
57.775928125
20
54.996040625
30
0
42
0.28259678315689835
0
VERTEX
8
0
10
57.785000000000004
20
54.210381250000005
30
0
0
VERTEX
8
0
10
57.785000000000004
20
47.389618750000004
30
0
0
VERTEX
8
0
10
57.775928125
20
47.376040625
30
0
0
VERTEX
8
0
10
57.741190625
20
47.311053125
30
0
0
VERTEX
8
0
10
57.712990625
20
47.242971875
30
0
0
VERTEX
8
0
10
57.6916
20
47.17245625
30
0
0
VERTEX
8
0
10
57.677221875
20
47.100181250000006
30
0
0
VERTEX
8
0
10
57.67
20
47.026843750000005
30
0
0
VERTEX
8
0
10
57.67
20
46.95315625
30
0
0
VERTEX
8
0
10
57.677221875
20
46.879818750000005
30
0
0
VERTEX
8
0
10
57.6916
20
46.80754375
30
0
0
VERTEX
8
0
10
57.712990625
20
46.737028125
30
0
0
VERTEX
8
0
10
57.741190625
20
46.668946875
30
0
0
VERTEX
8
0
10
57.775928125
20
46.603959375
30
0
0
VERTEX
8
0
10
57.816868750000005
20
46.5426875
30
0
0
VERTEX
8
0
10
57.863615625
20
46.485721875
30
0
0
VERTEX
8
0
10
57.915721875
20
46.433615625
30
0
0
VERTEX
8
0
10
57.9726875
20
46.386868750000005
30
0
0
VERTEX
8
0
10
58.033959375
20
46.345928125
30
0
0
VERTEX
8
0
10
58.098946875
20
46.311190625
30
0
0
VERTEX
8
0
10
58.167028125
20
46.282990625000004
30
0
0
VERTEX
8
0
10
58.23754375
20
46.2616
30
0
0
VERTEX
8
0
10
58.309818750000005
20
46.247221875
30
0
0
VERTEX
8
0
10
58.383156250000006
20
46.24
30
0
0
VERTEX
8
0
10
58.456843750000004
20
46.24
30
0
0
SEQEND
0
POLYLINE
66
1
8
1_copper
10
0.0
20
0.0
30
0.0
70
1
0
VERTEX
8
0
10
86.72418125
20
26.929821875000002
30
0
42
0.9999999999999999
0
VERTEX
8
0
10
86.50381875000001
20
28.415378125
30
0
0
VERTEX
8
0
10
86.43154375
20
28.401
30
0
42
0.2873209494287934
0
VERTEX
8
0
10
85.87985625
20
27.826178125000002
30
0
0
VERTEX
8
0
10
83.71754687500001
20
27.826178125000002
30
0
0
VERTEX
8
0
10
81.38776250000001
20
30.1559625
30
0
42
0.198912367379658
0
VERTEX
8
0
10
81.28
20
30.2006
30
0
0
VERTEX
8
0
10
73.0182125
20
30.2006
30
0
0
VERTEX
8
0
10
72.63105
20
30.5877625
30
0
42
0.198912367379658
0
VERTEX
8
0
10
72.52328750000001
20
30.6324
30
0
0
VERTEX
8
0
10
70.584378125
20
30.6324
30
0
42
0.9717258140724931
0
VERTEX
8
0
10
69.10722187500001
20
30.36981875
30
0
0
VERTEX
8
0
10
69.1216
20
30.297543750000003
30
0
42
0.7969589440871984
0
VERTEX
8
0
10
70.584378125
20
30.3276
30
0
0
VERTEX
8
0
10
72.46016250000001
20
30.3276
30
0
0
VERTEX
8
0
10
72.847325
20
29.9404375
30
0
42
0.198912367379658
0
VERTEX
8
0
10
72.9550875
20
29.8958
30
0
0
VERTEX
8
0
10
81.216875
20
29.8958
30
0
0
VERTEX
8
0
10
83.546659375
20
27.566015625000002
30
0
42
0.198912367379658
0
VERTEX
8
0
10
83.654421875
20
27.521378125000002
30
0
0
VERTEX
8
0
10
85.8793875
20
27.521378125000002
30
0
0
VERTEX
8
0
10
85.88560000000001
20
27.49014375
30
0
0
VERTEX
8
0
10
85.906990625
20
27.419628125000003
30
0
0
VERTEX
8
0
10
85.935190625
20
27.351546875
30
0
0
VERTEX
8
0
10
85.96992812500001
20
27.286559375000003
30
0
0
VERTEX
8
0
10
86.01086875
20
27.2252875
30
0
0
VERTEX
8
0
10
86.05761562500001
20
27.168321875
30
0
0
VERTEX
8
0
10
86.109721875
20
27.116215625000002
30
0
0
VERTEX
8
0
10
86.16668750000001
20
27.069468750000002
30
0
0
VERTEX
8
0
10
86.227959375
20
27.028528125
30
0
0
VERTEX
8
0
10
86.292946875
20
26.993790625000003
30
0
0
VERTEX
8
0
10
86.361028125
20
26.965590625
30
0
0
VERTEX
8
0
10
86.43154375
20
26.944200000000002
30
0
0
VERTEX
8
0
10
86.50381875000001
20
26.929821875000002
30
0
0
VERTEX
8
0
10
86.57715625
20
26.922600000000003
30
0
0
VERTEX
8
0
10
86.65084375
20
26.922600000000003
30
0
0
SEQEND
0
POLYLINE
66
1
8
1_copper
10
0.0
20
0.0
30
0.0
70
1
0
VERTEX
8
0
10
91.41216250000001
20
19.0165
30
0
0
VERTEX
8
0
10
91.477209375
20
19.029440625
30
0
0
VERTEX
8
0
10
91.54067500000001
20
19.048690625000003
30
0
0
VERTEX
8
0
10
91.60194687500001
20
19.074071875
30
0
0
VERTEX
8
0
10
91.6604375
20
19.105334375
30
0
0
VERTEX
8
0
10
91.71558125
20
19.14218125
30
0
0
VERTEX
8
0
10
91.76685
20
19.18425625
30
0
0
VERTEX
8
0
10
91.81374375
20
19.23115
30
0
0
VERTEX
8
0
10
91.85581875
20
19.28241875
30
0
0
VERTEX
8
0
10
91.892665625
20
19.3375625
30
0
0
VERTEX
8
0
10
91.923928125
20
19.396053125
30
0
0
VERTEX
8
0
10
91.949309375
20
19.457325
30
0
0
VERTEX
8
0
10
91.968559375
20
19.520790625
30
0
0
VERTEX
8
0
10
91.98150000000001
20
19.5858375
30
0
0
VERTEX
8
0
10
91.988
20
19.651840625000002
30
0
0
VERTEX
8
0
10
91.988
20
19.718159375000003
30
0
0
VERTEX
8
0
10
91.98150000000001
20
19.7841625
30
0
0
VERTEX
8
0
10
91.968559375
20
19.849209375
30
0
0
VERTEX
8
0
10
91.949309375
20
19.912675
30
0
0
VERTEX
8
0
10
91.923928125
20
19.973946875
30
0
0
VERTEX
8
0
10
91.892665625
20
20.0324375
30
0
0
VERTEX
8
0
10
91.85581875
20
20.08758125
30
0
0
VERTEX
8
0
10
91.81374375
20
20.13885
30
0
0
VERTEX
8
0
10
91.76685
20
20.18574375
30
0
0
VERTEX
8
0
10
91.71558125
20
20.22781875
30
0
0
VERTEX
8
0
10
91.6604375
20
20.264665625
30
0
0
VERTEX
8
0
10
91.60194687500001
20
20.295928125
30
0
0
VERTEX
8
0
10
91.54067500000001
20
20.321309375000002
30
0
0
VERTEX
8
0
10
91.477209375
20
20.340559375
30
0
0
VERTEX
8
0
10
91.41216250000001
20
20.3535
30
0
0
VERTEX
8
0
10
91.346159375
20
20.36
30
0
0
VERTEX
8
0
10
91.279840625
20
20.36
30
0
0
VERTEX
8
0
10
91.21383750000001
20
20.3535
30
0
0
VERTEX
8
0
10
91.148790625
20
20.340559375
30
0
0
VERTEX
8
0
10
91.085325
20
20.321309375000002
30
0
0
VERTEX
8
0
10
91.02405312500001
20
20.295928125
30
0
0
VERTEX
8
0
10
90.9655625
20
20.264665625
30
0
0
VERTEX
8
0
10
90.91041875
20
20.22781875
30
0
0
VERTEX
8
0
10
90.85915
20
20.18574375
30
0
0
VERTEX
8
0
10
90.81225625
20
20.13885
30
0
0
VERTEX
8
0
10
90.77018125000001
20
20.08758125
30
0
0
VERTEX
8
0
10
90.733334375
20
20.0324375
30
0
0
VERTEX
8
0
10
90.702071875
20
19.973946875
30
0
0
VERTEX
8
0
10
90.676690625
20
19.912675
30
0
0
VERTEX
8
0
10
90.657440625
20
19.849209375
30
0
0
VERTEX
8
0
10
90.64450000000001
20
19.7841625
30
0
0
VERTEX
8
0
10
90.638
20
19.718159375000003
30
0
0
VERTEX
8
0
10
90.638
20
19.651840625000002
30
0
0
VERTEX
8
0
10
90.64450000000001
20
19.5858375
30
0
0
VERTEX
8
0
10
90.657440625
20
19.520790625
30
0
0
VERTEX
8
0
10
90.676690625
20
19.457325
30
0
0
VERTEX
8
0
10
90.702071875
20
19.396053125
30
0
0
VERTEX
8
0
10
90.733334375
20
19.3375625
30
0
0
VERTEX
8
0
10
90.77018125000001
20
19.28241875
30
0
0
VERTEX
8
0
10
90.81225625
20
19.23115
30
0
0
VERTEX
8
0
10
90.85915
20
19.18425625
30
0
0
VERTEX
8
0
10
90.91041875
20
19.14218125
30
0
0
VERTEX
8
0
10
90.9655625
20
19.105334375
30
0
0
VERTEX
8
0
10
91.02405312500001
20
19.074071875
30
0
0
VERTEX
8
0
10
91.085325
20
19.048690625000003
30
0
0
VERTEX
8
0
10
91.148790625
20
19.029440625
30
0
0
VERTEX
8
0
10
91.21383750000001
20
19.0165
30
0
0
VERTEX
8
0
10
91.279840625
20
19.01
30
0
0
VERTEX
8
0
10
91.346159375
20
19.01
30
0
0
SEQEND
0
POLYLINE
66
1
8
1_copper
10
0.0
20
0.0
30
0.0
70
1
0
VERTEX
8
0
10
92.10040000000001
20
17.50645625
30
0
0
VERTEX
8
0
10
92.10040000000001
20
18.05354375
30
0
0
VERTEX
8
0
10
91.71354375
20
18.4404
30
0
0
VERTEX
8
0
10
91.16645625000001
20
18.4404
30
0
0
VERTEX
8
0
10
90.7796
20
18.05354375
30
0
0
VERTEX
8
0
10
90.7796
20
17.50645625
30
0
0
VERTEX
8
0
10
91.16645625000001
20
17.119600000000002
30
0
0
VERTEX
8
0
10
91.71354375
20
17.119600000000002
30
0
0
SEQEND
0
POLYLINE
66
1
8
16_copper
10
0.0
20
0.0
30
0.0
70
1
0
VERTEX
8
0
10
58.530181250000005
20
53.867221875000006
30
0
42
0.5415188693111257
0
VERTEX
8
0
10
59.055
20
55.00961875
30
0
0
VERTEX
8
0
10
59.055
20
56.455925
30
0
0
VERTEX
8
0
10
59.3598
20
56.760725
30
0
0
VERTEX
8
0
10
59.3598
20
57.539275
30
0
0
VERTEX
8
0
10
58.809275
20
58.089800000000004
30
0
0
VERTEX
8
0
10
58.030725000000004
20
58.089800000000004
30
0
0
VERTEX
8
0
10
57.4802
20
57.539275
30
0
0
VERTEX
8
0
10
57.4802
20
56.760725
30
0
0
VERTEX
8
0
10
57.785000000000004
20
56.455925
30
0
0
VERTEX
8
0
10
57.785000000000004
20
55.00961875
30
0
0
VERTEX
8
0
10
57.775928125
20
54.996040625
30
0
0
VERTEX
8
0
10
57.741190625
20
54.931053125000005
30
0
0
VERTEX
8
0
10
57.712990625
20
54.862971875
30
0
0
VERTEX
8
0
10
57.6916
20
54.79245625
30
0
0
VERTEX
8
0
10
57.677221875
20
54.72018125
30
0
0
VERTEX
8
0
10
57.67
20
54.64684375
30
0
0
VERTEX
8
0
10
57.67
20
54.573156250000004
30
0
0
VERTEX
8
0
10
57.677221875
20
54.49981875
30
0
0
VERTEX
8
0
10
57.6916
20
54.427543750000005
30
0
0
VERTEX
8
0
10
57.712990625
20
54.357028125
30
0
0
VERTEX
8
0
10
57.741190625
20
54.288946875
30
0
0
VERTEX
8
0
10
57.775928125
20
54.223959375
30
0
0
VERTEX
8
0
10
57.816868750000005
20
54.162687500000004
30
0
0
VERTEX
8
0
10
57.863615625
20
54.105721875
30
0
0
VERTEX
8
0
10
57.915721875
20
54.053615625
30
0
0
VERTEX
8
0
10
57.9726875
20
54.00686875
30
0
0
VERTEX
8
0
10
58.033959375
20
53.965928125000005
30
0
0
VERTEX
8
0
10
58.098946875
20
53.931190625
30
0
0
VERTEX
8
0
10
58.167028125
20
53.902990625
30
0
0
VERTEX
8
0
10
58.23754375
20
53.881600000000006
30
0
0
VERTEX
8
0
10
58.309818750000005
20
53.867221875000006
30
0
0
VERTEX
8
0
10
58.383156250000006
20
53.86
30
0
0
VERTEX
8
0
10
58.456843750000004
20
53.86
30
0
0
SEQEND
0
POLYLINE
66
1
8
16_copper
10
0.0
20
0.0
30
0.0
70
1
0
VERTEX
8
0
10
69.70520625
20
29.635696875
30
0
42
0.13756696055455592
0
VERTEX
8
0
10
70.03245625000001
20
29.7516
30
0
0
VERTEX
8
0
10
70.10297187500001
20
29.772990625000002
30
0
42
0.99041941121095
0
VERTEX
8
0
10
69.61086875000001
20
31.19120625
30
0
0
VERTEX
8
0
10
59.055
20
41.747075
30
0
0
VERTEX
8
0
10
59.055
20
46.59038125
30
0
42
0.9624943965945741
0
VERTEX
8
0
10
57.816868750000005
20
47.437312500000004
30
0
0
VERTEX
8
0
10
57.775928125
20
47.376040625
30
0
42
0.28259678315689835
0
VERTEX
8
0
10
57.785000000000004
20
46.59038125
30
0
0
VERTEX
8
0
10
57.785000000000004
20
41.48405
30
0
42
0.198912367379658
0
VERTEX
8
0
10
57.9709875
20
41.0350375
30
0
0
VERTEX
8
0
10
69.1880125
20
29.818012500000002
30
0
0
VERTEX
8
0
10
69.234696875
20
29.77574375
30
0
0
VERTEX
8
0
10
69.285340625
20
29.73830625
30
0
0
VERTEX
8
0
10
69.33944375
20
29.70606875
30
0
0
VERTEX
8
0
10
69.39647500000001
20
29.679350000000003
30
0
0
VERTEX
8
0
10
69.455871875
20
29.6584125
30
0
0
VERTEX
8
0
10
69.51705
20
29.643462500000002
30
0
0
VERTEX
8
0
10
69.579409375
20
29.634643750000002
30
0
0
VERTEX
8
0
10
69.642334375
20
29.632046875
30
0
0
SEQEND
0
POLYLINE
66
1
8
16_copper
10
0.0
20
0.0
30
0.0
70
1
0
VERTEX
8
0
10
95.26443125
20
17.145715625
30
0
42
0.787456601972437
0
VERTEX
8
0
10
95.52658125
20
18.3516
30
0
0
VERTEX
8
0
10
92.97051875000001
20
19.588403125
30
0
42
0.01080457941157065
0
VERTEX
8
0
10
92.945565625
20
19.59981875
30
0
0
VERTEX
8
0
10
91.872184375
20
20.0630875
30
0
42
0.23157717779443726
0
VERTEX
8
0
10
91.357540625
20
20.358878125
30
0
0
VERTEX
8
0
10
89.027
20
22.68941875
30
0
0
VERTEX
8
0
10
89.027
20
27.178
30
0
42
0.198912367379658
0
VERTEX
8
0
10
88.878209375
20
27.537209375
30
0
0
VERTEX
8
0
10
88.383609375
20
28.031809375
30
0
42
0.198912367379658
0
VERTEX
8
0
10
88.0244
20
28.180600000000002
30
0
0
VERTEX
8
0
10
87.1666625
20
28.180600000000002
30
0
42
0.9965044080374937
0
VERTEX
8
0
10
86.05761562500001
20
27.168321875
30
0
0
VERTEX
8
0
10
86.109721875
20
27.116215625000002
30
0
42
0.4121637933843765
0
VERTEX
8
0
10
87.1666625
20
27.1646
30
0
0
VERTEX
8
0
10
87.81398125
20
27.1646
30
0
0
VERTEX
8
0
10
88.01100000000001
20
26.967581250000002
30
0
0
VERTEX
8
0
10
88.01100000000001
20
22.479000000000003
30
0
42
0.198912367379658
0
VERTEX
8
0
10
88.159790625
20
22.119790625
30
0
0
VERTEX
8
0
10
90.639121875
20
19.640459375000002
30
0
42
0.16481797616116264
0
VERTEX
8
0
10
90.805
20
19.239990625
30
0
0
VERTEX
8
0
10
90.805
20
18.07894375
30
0
0
VERTEX
8
0
10
90.7796
20
18.05354375
30
0
0
VERTEX
8
0
10
90.7796
20
17.50645625
30
0
0
VERTEX
8
0
10
91.16645625000001
20
17.119600000000002
30
0
0
VERTEX
8
0
10
91.71354375
20
17.119600000000002
30
0
0
VERTEX
8
0
10
91.73894375
20
17.145
30
0
0
VERTEX
8
0
10
95.25
20
17.145
30
0
0
SEQEND
0
POLYLINE
66
1
8
1_copper
10
0.0
20
0.0
30
0.0
70
1
0
VERTEX
8
0
10
61.899800000000006
20
56.760725
30
0
0
VERTEX
8
0
10
61.899800000000006
20
57.539275
30
0
0
VERTEX
8
0
10
61.349275000000006
20
58.089800000000004
30
0
0
VERTEX
8
0
10
60.570725
20
58.089800000000004
30
0
0
VERTEX
8
0
10
60.0202
20
57.539275
30
0
0
VERTEX
8
0
10
60.0202
20
56.760725
30
0
0
VERTEX
8
0
10
60.570725
20
56.2102
30
0
0
VERTEX
8
0
10
61.349275000000006
20
56.2102
30
0
0
SEQEND
0
POLYLINE
66
1
8
1_copper
10
0.0
20
0.0
30
0.0
70
1
0
VERTEX
8
0
10
61.070181250000005
20
46.247221875
30
0
42
0.5415188693111257
0
VERTEX
8
0
10
61.595000000000006
20
47.389618750000004
30
0
0
VERTEX
8
0
10
61.595000000000006
20
54.210381250000005
30
0
42
0.9624943965945741
0
VERTEX
8
0
10
60.356868750000004
20
55.0573125
30
0
0
VERTEX
8
0
10
60.315928125000006
20
54.996040625
30
0
42
0.28259678315689835
0
VERTEX
8
0
10
60.325
20
54.210381250000005
30
0
0
VERTEX
8
0
10
60.325
20
47.389618750000004
30
0
0
VERTEX
8
0
10
60.315928125000006
20
47.376040625
30
0
0
VERTEX
8
0
10
60.281190625
20
47.311053125
30
0
0
VERTEX
8
0
10
60.252990625
20
47.242971875
30
0
0
VERTEX
8
0
10
60.2316
20
47.17245625
30
0
0
VERTEX
8
0
10
60.217221875
20
47.100181250000006
30
0
0
VERTEX
8
0
10
60.21
20
47.026843750000005
30
0
0
VERTEX
8
0
10
60.21
20
46.95315625
30
0
0
VERTEX
8
0
10
60.217221875
20
46.879818750000005
30
0
0
VERTEX
8
0
10
60.2316
20
46.80754375
30
0
0
VERTEX
8
0
10
60.252990625
20
46.737028125
30
0
0
VERTEX
8
0
10
60.281190625
20
46.668946875
30
0
0
VERTEX
8
0
10
60.315928125000006
20
46.603959375
30
0
0
VERTEX
8
0
10
60.356868750000004
20
46.5426875
30
0
0
VERTEX
8
0
10
60.403615625
20
46.485721875
30
0
0
VERTEX
8
0
10
60.455721875
20
46.433615625
30
0
0
VERTEX
8
0
10
60.512687500000006
20
46.386868750000005
30
0
0
VERTEX
8
0
10
60.573959375
20
46.345928125
30
0
0
VERTEX
8
0
10
60.638946875
20
46.311190625
30
0
0
VERTEX
8
0
10
60.707028125
20
46.282990625000004
30
0
0
VERTEX
8
0
10
60.77754375
20
46.2616
30
0
0
VERTEX
8
0
10
60.849818750000004
20
46.247221875
30
0
0
VERTEX
8
0
10
60.923156250000005
20
46.24
30
0
0
VERTEX
8
0
10
60.996843750000004
20
46.24
30
0
0
SEQEND
0
POLYLINE
66
1
8
1_copper
10
0.0
20
0.0
30
0.0
70
1
0
VERTEX
8
0
10
83.93018125
20
28.467221875
30
0
42
0.9999999999999999
0
VERTEX
8
0
10
83.70981875000001
20
29.952778125000002
30
0
0
VERTEX
8
0
10
83.63754375
20
29.9384
30
0
42
0.08403255286708004
0
VERTEX
8
0
10
83.408478125
20
29.837046875000002
30
0
0
VERTEX
8
0
10
82.51927500000001
20
30.72625
30
0
42
0.198912367379658
0
VERTEX
8
0
10
82.4115125
20
30.7708875
30
0
0
VERTEX
8
0
10
80.63861875
20
30.7708875
30
0
42
0.198912367379658
0
VERTEX
8
0
10
80.53085625
20
30.72625
30
0
0
VERTEX
8
0
10
80.46240625
20
30.6578
30
0
0
VERTEX
8
0
10
73.20759375
20
30.6578
30
0
0
VERTEX
8
0
10
72.00763125
20
31.8577625
30
0
42
0.27554023489099205
0
VERTEX
8
0
10
71.854378125
20
31.9024
30
0
0
VERTEX
8
0
10
71.8484
20
31.93245625
30
0
42
0.9999999999999999
0
VERTEX
8
0
10
70.3916
20
31.567543750000002
30
0
0
VERTEX
8
0
10
70.412990625
20
31.497028125
30
0
42
0.7416498316982203
0
VERTEX
8
0
10
71.8484
20
31.567543750000002
30
0
0
VERTEX
8
0
10
71.851453125
20
31.582890625
30
0
0
VERTEX
8
0
10
73.03670625000001
20
30.397637500000002
30
0
42
0.198912367379658
0
VERTEX
8
0
10
73.14446875
20
30.353
30
0
0
VERTEX
8
0
10
80.52553125
20
30.353
30
0
42
0.198912367379658
0
VERTEX
8
0
10
80.63329375
20
30.397637500000002
30
0
0
VERTEX
8
0
10
80.70174375
20
30.4660875
30
0
0
VERTEX
8
0
10
82.3483875
20
30.4660875
30
0
0
VERTEX
8
0
10
83.192953125
20
29.621521875000003
30
0
0
VERTEX
8
0
10
83.175928125
20
29.596040625
30
0
0
VERTEX
8
0
10
83.14119062500001
20
29.531053125
30
0
0
VERTEX
8
0
10
83.11299062500001
20
29.462971875
30
0
0
VERTEX
8
0
10
83.0916
20
29.392456250000002
30
0
0
VERTEX
8
0
10
83.077221875
20
29.32018125
30
0
0
VERTEX
8
0
10
83.07000000000001
20
29.24684375
30
0
0
VERTEX
8
0
10
83.07000000000001
20
29.17315625
30
0
0
VERTEX
8
0
10
83.077221875
20
29.09981875
30
0
0
VERTEX
8
0
10
83.0916
20
29.027543750000003
30
0
0
VERTEX
8
0
10
83.11299062500001
20
28.957028125
30
0
0
VERTEX
8
0
10
83.14119062500001
20
28.888946875000002
30
0
0
VERTEX
8
0
10
83.175928125
20
28.823959375
30
0
0
VERTEX
8
0
10
83.21686875
20
28.762687500000002
30
0
0
VERTEX
8
0
10
83.263615625
20
28.705721875000002
30
0
0
VERTEX
8
0
10
83.31572187500001
20
28.653615625
30
0
0
VERTEX
8
0
10
83.3726875
20
28.60686875
30
0
0
VERTEX
8
0
10
83.433959375
20
28.565928125000003
30
0
0
VERTEX
8
0
10
83.498946875
20
28.531190625
30
0
0
VERTEX
8
0
10
83.56702812500001
20
28.502990625000002
30
0
0
VERTEX
8
0
10
83.63754375
20
28.4816
30
0
0
VERTEX
8
0
10
83.70981875000001
20
28.467221875
30
0
0
VERTEX
8
0
10
83.78315625
20
28.46
30
0
0
VERTEX
8
0
10
83.85684375000001
20
28.46
30
0
0
SEQEND
0
POLYLINE
66
1
8
1_copper
10
0.0
20
0.0
30
0.0
70
1
0
VERTEX
8
0
10
91.5391625
20
26.0015
30
0
0
VERTEX
8
0
10
91.60420937500001
20
26.014440625000002
30
0
0
VERTEX
8
0
10
91.667675
20
26.033690625000002
30
0
0
VERTEX
8
0
10
91.728946875
20
26.059071875
30
0
0
VERTEX
8
0
10
91.78743750000001
20
26.090334375
30
0
0
VERTEX
8
0
10
91.84258125000001
20
26.12718125
30
0
0
VERTEX
8
0
10
91.89385
20
26.16925625
30
0
0
VERTEX
8
0
10
91.94074375000001
20
26.216150000000003
30
0
0
VERTEX
8
0
10
91.98281875
20
26.26741875
30
0
0
VERTEX
8
0
10
92.019665625
20
26.3225625
30
0
0
VERTEX
8
0
10
92.050928125
20
26.381053125
30
0
0
VERTEX
8
0
10
92.07630937500001
20
26.442325
30
0
0
VERTEX
8
0
10
92.09555937500001
20
26.505790625
30
0
0
VERTEX
8
0
10
92.1085
20
26.5708375
30
0
0
VERTEX
8
0
10
92.11500000000001
20
26.636840625
30
0
0
VERTEX
8
0
10
92.11500000000001
20
26.703159375000002
30
0
0
VERTEX
8
0
10
92.1085
20
26.7691625
30
0
0
VERTEX
8
0
10
92.09555937500001
20
26.834209375
30
0
0
VERTEX
8
0
10
92.07630937500001
20
26.897675
30
0
0
VERTEX
8
0
10
92.050928125
20
26.958946875000002
30
0
0
VERTEX
8
0
10
92.019665625
20
27.0174375
30
0
0
VERTEX
8
0
10
91.98281875
20
27.072581250000002
30
0
0
VERTEX
8
0
10
91.94074375000001
20
27.12385
30
0
0
VERTEX
8
0
10
91.89385
20
27.17074375
30
0
0
VERTEX
8
0
10
91.84258125000001
20
27.21281875
30
0
0
VERTEX
8
0
10
91.78743750000001
20
27.249665625000002
30
0
0
VERTEX
8
0
10
91.728946875
20
27.280928125000003
30
0
0
VERTEX
8
0
10
91.667675
20
27.306309375
30
0
0
VERTEX
8
0
10
91.60420937500001
20
27.325559375
30
0
0
VERTEX
8
0
10
91.5391625
20
27.3385
30
0
0
VERTEX
8
0
10
91.47315937500001
20
27.345000000000002
30
0
0
VERTEX
8
0
10
91.406840625
20
27.345000000000002
30
0
0
VERTEX
8
0
10
91.3408375
20
27.3385
30
0
0
VERTEX
8
0
10
91.275790625
20
27.325559375
30
0
0
VERTEX
8
0
10
91.212325
20
27.306309375
30
0
0
VERTEX
8
0
10
91.151053125
20
27.280928125000003
30
0
0
VERTEX
8
0
10
91.0925625
20
27.249665625000002
30
0
0
VERTEX
8
0
10
91.03741875
20
27.21281875
30
0
0
VERTEX
8
0
10
90.98615000000001
20
27.17074375
30
0
0
VERTEX
8
0
10
90.93925625
20
27.12385
30
0
0
VERTEX
8
0
10
90.89718125
20
27.072581250000002
30
0
0
VERTEX
8
0
10
90.86033437500001
20
27.0174375
30
0
0
VERTEX
8
0
10
90.82907187500001
20
26.958946875000002
30
0
0
VERTEX
8
0
10
90.803690625
20
26.897675
30
0
0
VERTEX
8
0
10
90.784440625
20
26.834209375
30
0
0
VERTEX
8
0
10
90.7715
20
26.7691625
30
0
0
VERTEX
8
0
10
90.765
20
26.703159375000002
30
0
0
VERTEX
8
0
10
90.765
20
26.636840625
30
0
0
VERTEX
8
0
10
90.7715
20
26.5708375
30
0
0
VERTEX
8
0
10
90.784440625
20
26.505790625
30
0
0
VERTEX
8
0
10
90.803690625
20
26.442325
30
0
0
VERTEX
8
0
10
90.82907187500001
20
26.381053125
30
0
0
VERTEX
8
0
10
90.86033437500001
20
26.3225625
30
0
0
VERTEX
8
0
10
90.89718125
20
26.26741875
30
0
0
VERTEX
8
0
10
90.93925625
20
26.216150000000003
30
0
0
VERTEX
8
0
10
90.98615000000001
20
26.16925625
30
0
0
VERTEX
8
0
10
91.03741875
20
26.12718125
30
0
0
VERTEX
8
0
10
91.0925625
20
26.090334375
30
0
0
VERTEX
8
0
10
91.151053125
20
26.059071875
30
0
0
VERTEX
8
0
10
91.212325
20
26.033690625000002
30
0
0
VERTEX
8
0
10
91.275790625
20
26.014440625000002
30
0
0
VERTEX
8
0
10
91.3408375
20
26.0015
30
0
0
VERTEX
8
0
10
91.406840625
20
25.995
30
0
0
VERTEX
8
0
10
91.47315937500001
20
25.995
30
0
0
SEQEND
0
POLYLINE
66
1
8
1_copper
10
0.0
20
0.0
30
0.0
70
1
0
VERTEX
8
0
10
92.10040000000001
20
23.85645625
30
0
0
VERTEX
8
0
10
92.10040000000001
20
24.40354375
30
0
0
VERTEX
8
0
10
91.71354375
20
24.7904
30
0
0
VERTEX
8
0
10
91.16645625000001
20
24.7904
30
0
0
VERTEX
8
0
10
90.7796
20
24.40354375
30
0
0
VERTEX
8
0
10
90.7796
20
23.85645625
30
0
0
VERTEX
8
0
10
91.16645625000001
20
23.4696
30
0
0
VERTEX
8
0
10
91.71354375
20
23.4696
30
0
0
SEQEND
0
POLYLINE
66
1
8
16_copper
10
0.0
20
0.0
30
0.0
70
1
0
VERTEX
8
0
10
61.070181250000005
20
53.867221875000006
30
0
42
0.5415188693111257
0
VERTEX
8
0
10
61.595000000000006
20
55.00961875
30
0
0
VERTEX
8
0
10
61.595000000000006
20
56.455925
30
0
0
VERTEX
8
0
10
61.899800000000006
20
56.760725
30
0
0
VERTEX
8
0
10
61.899800000000006
20
57.539275
30
0
0
VERTEX
8
0
10
61.349275000000006
20
58.089800000000004
30
0
0
VERTEX
8
0
10
60.570725
20
58.089800000000004
30
0
0
VERTEX
8
0
10
60.0202
20
57.539275
30
0
0
VERTEX
8
0
10
60.0202
20
56.760725
30
0
0
VERTEX
8
0
10
60.325
20
56.455925
30
0
0
VERTEX
8
0
10
60.325
20
55.00961875
30
0
0
VERTEX
8
0
10
60.315928125000006
20
54.996040625
30
0
0
VERTEX
8
0
10
60.281190625
20
54.931053125000005
30
0
0
VERTEX
8
0
10
60.252990625
20
54.862971875
30
0
0
VERTEX
8
0
10
60.2316
20
54.79245625
30
0
0
VERTEX
8
0
10
60.217221875
20
54.72018125
30
0
0
VERTEX
8
0
10
60.21
20
54.64684375
30
0
0
VERTEX
8
0
10
60.21
20
54.573156250000004
30
0
0
VERTEX
8
0
10
60.217221875
20
54.49981875
30
0
0
VERTEX
8
0
10
60.2316
20
54.427543750000005
30
0
0
VERTEX
8
0
10
60.252990625
20
54.357028125
30
0
0
VERTEX
8
0
10
60.281190625
20
54.288946875
30
0
0
VERTEX
8
0
10
60.315928125000006
20
54.223959375
30
0
0
VERTEX
8
0
10
60.356868750000004
20
54.162687500000004
30
0
0
VERTEX
8
0
10
60.403615625
20
54.105721875
30
0
0
VERTEX
8
0
10
60.455721875
20
54.053615625
30
0
0
VERTEX
8
0
10
60.512687500000006
20
54.00686875
30
0
0
VERTEX
8
0
10
60.573959375
20
53.965928125000005
30
0
0
VERTEX
8
0
10
60.638946875
20
53.931190625
30
0
0
VERTEX
8
0
10
60.707028125
20
53.902990625
30
0
0
VERTEX
8
0
10
60.77754375
20
53.881600000000006
30
0
0
VERTEX
8
0
10
60.849818750000004
20
53.867221875000006
30
0
0
VERTEX
8
0
10
60.923156250000005
20
53.86
30
0
0
VERTEX
8
0
10
60.996843750000004
20
53.86
30
0
0
SEQEND
0
POLYLINE
66
1
8
16_copper
10
0.0
20
0.0
30
0.0
70
1
0
VERTEX
8
0
10
71.23018125
20
31.007221875000003
30
0
42
0.8298159350339325
0
VERTEX
8
0
10
71.2864375
20
32.4815875
30
0
0
VERTEX
8
0
10
61.595000000000006
20
42.173025
30
0
0
VERTEX
8
0
10
61.595000000000006
20
46.59038125
30
0
42
0.9624943965945741
0
VERTEX
8
0
10
60.356868750000004
20
47.437312500000004
30
0
0
VERTEX
8
0
10
60.315928125000006
20
47.376040625
30
0
42
0.28259678315689835
0
VERTEX
8
0
10
60.325
20
46.59038125
30
0
0
VERTEX
8
0
10
60.325
20
41.910000000000004
30
0
42
0.140441898535927
0
VERTEX
8
0
10
60.421978125
20
41.574096875
30
0
0
VERTEX
8
0
10
60.4342375
20
41.553909375
30
0
42
0.21124582057779595
0
VERTEX
8
0
10
60.600790625
20
41.169790625000005
30
0
0
VERTEX
8
0
10
70.570290625
20
31.200290625
30
0
42
0.16780719566153857
0
VERTEX
8
0
10
70.867028125
20
31.042990625
30
0
0
VERTEX
8
0
10
70.93754375
20
31.021600000000003
30
0
0
VERTEX
8
0
10
71.00981875000001
20
31.007221875000003
30
0
0
VERTEX
8
0
10
71.08315625
20
31
30
0
0
VERTEX
8
0
10
71.15684375000001
20
31
30
0
0
SEQEND
0
POLYLINE
66
1
8
16_copper
10
0.0
20
0.0
30
0.0
70
1
0
VERTEX
8
0
10
95.25230937500001
20
23.495115625
30
0
42
0.7406473449735349
0
VERTEX
8
0
10
95.60223437500001
20
24.658353125
30
0
0
VERTEX
8
0
10
93.25761875
20
26.221431250000002
30
0
0
VERTEX
8
0
10
91.98436562500001
20
27.070265625
30
0
42
0.22119973944755655
0
VERTEX
8
0
10
91.48454062500001
20
27.343878125
30
0
0
VERTEX
8
0
10
89.259209375
20
29.569209375
30
0
42
0.198912367379658
0
VERTEX
8
0
10
88.9
20
29.718
30
0
0
VERTEX
8
0
10
84.3726625
20
29.718
30
0
42
0.9965044080374937
0
VERTEX
8
0
10
83.263615625
20
28.705721875000002
30
0
0
VERTEX
8
0
10
83.31572187500001
20
28.653615625
30
0
42
0.4121637933843765
0
VERTEX
8
0
10
84.3726625
20
28.702
30
0
0
VERTEX
8
0
10
88.68958125
20
28.702
30
0
0
VERTEX
8
0
10
90.76612187500001
20
26.625459375000002
30
0
42
0.07078464534526005
0
VERTEX
8
0
10
90.805
20
26.439165625
30
0
0
VERTEX
8
0
10
90.805
20
24.428943750000002
30
0
0
VERTEX
8
0
10
90.7796
20
24.40354375
30
0
0
VERTEX
8
0
10
90.7796
20
23.85645625
30
0
0
VERTEX
8
0
10
91.16645625000001
20
23.4696
30
0
0
VERTEX
8
0
10
91.71354375
20
23.4696
30
0
0
VERTEX
8
0
10
91.73894375
20
23.495
30
0
0
VERTEX
8
0
10
95.25
20
23.495
30
0
0
SEQEND
0
POLYLINE
66
1
8
1_copper
10
0.0
20
0.0
30
0.0
70
1
0
VERTEX
8
0
10
64.4398
20
56.760725
30
0
0
VERTEX
8
0
10
64.4398
20
57.539275
30
0
0
VERTEX
8
0
10
63.889275000000005
20
58.089800000000004
30
0
0
VERTEX
8
0
10
63.110725
20
58.089800000000004
30
0
0
VERTEX
8
0
10
62.5602
20
57.539275
30
0
0
VERTEX
8
0
10
62.5602
20
56.760725
30
0
0
VERTEX
8
0
10
63.110725
20
56.2102
30
0
0
VERTEX
8
0
10
63.889275000000005
20
56.2102
30
0
0
SEQEND
0
POLYLINE
66
1
8
1_copper
10
0.0
20
0.0
30
0.0
70
1
0
VERTEX
8
0
10
63.610181250000004
20
53.867221875000006
30
0
0
VERTEX
8
0
10
63.68245625
20
53.881600000000006
30
0
0
VERTEX
8
0
10
63.752971875
20
53.902990625
30
0
0
VERTEX
8
0
10
63.821053125000006
20
53.931190625
30
0
0
VERTEX
8
0
10
63.886040625
20
53.965928125000005
30
0
0
VERTEX
8
0
10
63.9473125
20
54.00686875
30
0
0
VERTEX
8
0
10
64.004278125
20
54.053615625
30
0
0
VERTEX
8
0
10
64.05638437500001
20
54.105721875
30
0
0
VERTEX
8
0
10
64.10313125
20
54.162687500000004
30
0
0
VERTEX
8
0
10
64.14407187500001
20
54.223959375
30
0
0
VERTEX
8
0
10
64.178809375
20
54.288946875
30
0
0
VERTEX
8
0
10
64.207009375
20
54.357028125
30
0
0
VERTEX
8
0
10
64.22840000000001
20
54.427543750000005
30
0
0
VERTEX
8
0
10
64.242778125
20
54.49981875
30
0
0
VERTEX
8
0
10
64.25
20
54.573156250000004
30
0
0
VERTEX
8
0
10
64.25
20
54.64684375
30
0
0
VERTEX
8
0
10
64.242778125
20
54.72018125
30
0
0
VERTEX
8
0
10
64.22840000000001
20
54.79245625
30
0
0
VERTEX
8
0
10
64.207009375
20
54.862971875
30
0
0
VERTEX
8
0
10
64.178809375
20
54.931053125000005
30
0
0
VERTEX
8
0
10
64.14407187500001
20
54.996040625
30
0
0
VERTEX
8
0
10
64.10313125
20
55.0573125
30
0
0
VERTEX
8
0
10
64.05638437500001
20
55.114278125000006
30
0
0
VERTEX
8
0
10
64.004278125
20
55.166384375
30
0
0
VERTEX
8
0
10
63.9473125
20
55.21313125
30
0
0
VERTEX
8
0
10
63.886040625
20
55.254071875
30
0
0
VERTEX
8
0
10
63.821053125000006
20
55.288809375
30
0
0
VERTEX
8
0
10
63.752971875
20
55.317009375000005
30
0
0
VERTEX
8
0
10
63.68245625
20
55.3384
30
0
0
VERTEX
8
0
10
63.610181250000004
20
55.352778125
30
0
0
VERTEX
8
0
10
63.53684375
20
55.36
30
0
0
VERTEX
8
0
10
63.463156250000004
20
55.36
30
0
0
VERTEX
8
0
10
63.38981875
20
55.352778125
30
0
0
VERTEX
8
0
10
63.317543750000006
20
55.3384
30
0
0
VERTEX
8
0
10
63.247028125
20
55.317009375000005
30
0
0
VERTEX
8
0
10
63.178946875
20
55.288809375
30
0
0
VERTEX
8
0
10
63.113959375
20
55.254071875
30
0
0
VERTEX
8
0
10
63.052687500000005
20
55.21313125
30
0
0
VERTEX
8
0
10
62.995721875
20
55.166384375
30
0
0
VERTEX
8
0
10
62.943615625
20
55.114278125000006
30
0
0
VERTEX
8
0
10
62.89686875
20
55.0573125
30
0
0
VERTEX
8
0
10
62.855928125000005
20
54.996040625
30
0
0
VERTEX
8
0
10
62.821190625
20
54.931053125000005
30
0
0
VERTEX
8
0
10
62.792990625
20
54.862971875
30
0
0
VERTEX
8
0
10
62.77160000000001
20
54.79245625
30
0
0
VERTEX
8
0
10
62.757221875000006
20
54.72018125
30
0
0
VERTEX
8
0
10
62.75
20
54.64684375
30
0
0
VERTEX
8
0
10
62.75
20
54.573156250000004
30
0
0
VERTEX
8
0
10
62.757221875000006
20
54.49981875
30
0
0
VERTEX
8
0
10
62.77160000000001
20
54.427543750000005
30
0
0
VERTEX
8
0
10
62.792990625
20
54.357028125
30
0
0
VERTEX
8
0
10
62.821190625
20
54.288946875
30
0
0
VERTEX
8
0
10
62.855928125000005
20
54.223959375
30
0
0
VERTEX
8
0
10
62.89686875
20
54.162687500000004
30
0
0
VERTEX
8
0
10
62.943615625
20
54.105721875
30
0
0
VERTEX
8
0
10
62.995721875
20
54.053615625
30
0
0
VERTEX
8
0
10
63.052687500000005
20
54.00686875
30
0
0
VERTEX
8
0
10
63.113959375
20
53.965928125000005
30
0
0
VERTEX
8
0
10
63.178946875
20
53.931190625
30
0
0
VERTEX
8
0
10
63.247028125
20
53.902990625
30
0
0
VERTEX
8
0
10
63.317543750000006
20
53.881600000000006
30
0
0
VERTEX
8
0
10
63.38981875
20
53.867221875000006
30
0
0
VERTEX
8
0
10
63.463156250000004
20
53.86
30
0
0
VERTEX
8
0
10
63.53684375
20
53.86
30
0
0
SEQEND
0
POLYLINE
66
1
8
1_copper
10
0.0
20
0.0
30
0.0
70
1
0
VERTEX
8
0
10
82.78718125
20
50.184221875000006
30
0
0
VERTEX
8
0
10
82.85945625000001
20
50.1986
30
0
0
VERTEX
8
0
10
82.929971875
20
50.219990625
30
0
0
VERTEX
8
0
10
82.998053125
20
50.248190625
30
0
0
VERTEX
8
0
10
83.063040625
20
50.282928125000005
30
0
0
VERTEX
8
0
10
83.1243125
20
50.32386875
30
0
0
VERTEX
8
0
10
83.181278125
20
50.370615625
30
0
0
VERTEX
8
0
10
83.233384375
20
50.422721875
30
0
0
VERTEX
8
0
10
83.28013125000001
20
50.479687500000004
30
0
0
VERTEX
8
0
10
83.321071875
20
50.540959375
30
0
0
VERTEX
8
0
10
83.355809375
20
50.605946875
30
0
0
VERTEX
8
0
10
83.384009375
20
50.674028125
30
0
0
VERTEX
8
0
10
83.4054
20
50.744543750000005
30
0
0
VERTEX
8
0
10
83.41977812500001
20
50.81681875
30
0
0
VERTEX
8
0
10
83.427
20
50.890156250000004
30
0
0
VERTEX
8
0
10
83.427
20
50.96384375
30
0
0
VERTEX
8
0
10
83.41977812500001
20
51.03718125
30
0
0
VERTEX
8
0
10
83.4054
20
51.10945625
30
0
0
VERTEX
8
0
10
83.384009375
20
51.179971875
30
0
0
VERTEX
8
0
10
83.355809375
20
51.248053125000006
30
0
0
VERTEX
8
0
10
83.321071875
20
51.313040625
30
0
0
VERTEX
8
0
10
83.28013125000001
20
51.3743125
30
0
0
VERTEX
8
0
10
83.233384375
20
51.431278125000006
30
0
0
VERTEX
8
0
10
83.181278125
20
51.483384375
30
0
0
VERTEX
8
0
10
83.1243125
20
51.530131250000004
30
0
0
VERTEX
8
0
10
83.063040625
20
51.571071875
30
0
0
VERTEX
8
0
10
82.998053125
20
51.605809375
30
0
0
VERTEX
8
0
10
82.929971875
20
51.634009375000005
30
0
0
VERTEX
8
0
10
82.85945625000001
20
51.6554
30
0
0
VERTEX
8
0
10
82.78718125
20
51.669778125
30
0
0
VERTEX
8
0
10
82.71384375000001
20
51.677
30
0
0
VERTEX
8
0
10
82.64015625
20
51.677
30
0
0
VERTEX
8
0
10
82.56681875000001
20
51.669778125
30
0
0
VERTEX
8
0
10
82.49454375
20
51.6554
30
0
0
VERTEX
8
0
10
82.424028125
20
51.634009375000005
30
0
0
VERTEX
8
0
10
82.355946875
20
51.605809375
30
0
0
VERTEX
8
0
10
82.290959375
20
51.571071875
30
0
0
VERTEX
8
0
10
82.2296875
20
51.530131250000004
30
0
0
VERTEX
8
0
10
82.17272187500001
20
51.483384375
30
0
0
VERTEX
8
0
10
82.120615625
20
51.431278125000006
30
0
0
VERTEX
8
0
10
82.07386875
20
51.3743125
30
0
0
VERTEX
8
0
10
82.032928125
20
51.313040625
30
0
0
VERTEX
8
0
10
81.998190625
20
51.248053125000006
30
0
0
VERTEX
8
0
10
81.96999062500001
20
51.179971875
30
0
0
VERTEX
8
0
10
81.9486
20
51.10945625
30
0
0
VERTEX
8
0
10
81.934221875
20
51.03718125
30
0
0
VERTEX
8
0
10
81.927
20
50.96384375
30
0
0
VERTEX
8
0
10
81.927
20
50.890156250000004
30
0
0
VERTEX
8
0
10
81.934221875
20
50.81681875
30
0
0
VERTEX
8
0
10
81.9486
20
50.744543750000005
30
0
0
VERTEX
8
0
10
81.96999062500001
20
50.674028125
30
0
0
VERTEX
8
0
10
81.998190625
20
50.605946875
30
0
0
VERTEX
8
0
10
82.032928125
20
50.540959375
30
0
0
VERTEX
8
0
10
82.07386875
20
50.479687500000004
30
0
0
VERTEX
8
0
10
82.120615625
20
50.422721875
30
0
0
VERTEX
8
0
10
82.17272187500001
20
50.370615625
30
0
0
VERTEX
8
0
10
82.2296875
20
50.32386875
30
0
0
VERTEX
8
0
10
82.290959375
20
50.282928125000005
30
0
0
VERTEX
8
0
10
82.355946875
20
50.248190625
30
0
0
VERTEX
8
0
10
82.424028125
20
50.219990625
30
0
0
VERTEX
8
0
10
82.49454375
20
50.1986
30
0
0
VERTEX
8
0
10
82.56681875000001
20
50.184221875000006
30
0
0
VERTEX
8
0
10
82.64015625
20
50.177
30
0
0
VERTEX
8
0
10
82.71384375000001
20
50.177
30
0
0
SEQEND
0
POLYLINE
66
1
8
1_copper
10
0.0
20
0.0
30
0.0
70
1
0
VERTEX
8
0
10
91.5391625
20
33.621500000000005
30
0
0
VERTEX
8
0
10
91.60420937500001
20
33.634440625
30
0
0
VERTEX
8
0
10
91.667675
20
33.653690625
30
0
0
VERTEX
8
0
10
91.728946875
20
33.679071875
30
0
0
VERTEX
8
0
10
91.78743750000001
20
33.710334375
30
0
0
VERTEX
8
0
10
91.84258125000001
20
33.747181250000004
30
0
0
VERTEX
8
0
10
91.89385
20
33.78925625
30
0
0
VERTEX
8
0
10
91.94074375000001
20
33.83615
30
0
0
VERTEX
8
0
10
91.98281875
20
33.88741875
30
0
0
VERTEX
8
0
10
92.019665625
20
33.9425625
30
0
0
VERTEX
8
0
10
92.050928125
20
34.001053125
30
0
0
VERTEX
8
0
10
92.07630937500001
20
34.062325
30
0
0
VERTEX
8
0
10
92.09555937500001
20
34.125790625
30
0
0
VERTEX
8
0
10
92.1085
20
34.1908375
30
0
0
VERTEX
8
0
10
92.11500000000001
20
34.256840625
30
0
0
VERTEX
8
0
10
92.11500000000001
20
34.323159375
30
0
0
VERTEX
8
0
10
92.1085
20
34.389162500000005
30
0
0
VERTEX
8
0
10
92.09555937500001
20
34.454209375000005
30
0
0
VERTEX
8
0
10
92.07630937500001
20
34.517675000000004
30
0
0
VERTEX
8
0
10
92.050928125
20
34.578946875
30
0
0
VERTEX
8
0
10
92.019665625
20
34.637437500000004
30
0
0
VERTEX
8
0
10
91.98281875
20
34.69258125
30
0
0
VERTEX
8
0
10
91.94074375000001
20
34.74385
30
0
0
VERTEX
8
0
10
91.89385
20
34.790743750000004
30
0
0
VERTEX
8
0
10
91.84258125000001
20
34.83281875
30
0
0
VERTEX
8
0
10
91.78743750000001
20
34.869665625
30
0
0
VERTEX
8
0
10
91.728946875
20
34.900928125
30
0
0
VERTEX
8
0
10
91.667675
20
34.926309375
30
0
0
VERTEX
8
0
10
91.60420937500001
20
34.945559375
30
0
0
VERTEX
8
0
10
91.5391625
20
34.9585
30
0
0
VERTEX
8
0
10
91.47315937500001
20
34.965
30
0
0
VERTEX
8
0
10
91.406840625
20
34.965
30
0
0
VERTEX
8
0
10
91.3408375
20
34.9585
30
0
0
VERTEX
8
0
10
91.275790625
20
34.945559375
30
0
0
VERTEX
8
0
10
91.212325
20
34.926309375
30
0
0
VERTEX
8
0
10
91.151053125
20
34.900928125
30
0
0
VERTEX
8
0
10
91.0925625
20
34.869665625
30
0
0
VERTEX
8
0
10
91.03741875
20
34.83281875
30
0
0
VERTEX
8
0
10
90.98615000000001
20
34.790743750000004
30
0
0
VERTEX
8
0
10
90.93925625
20
34.74385
30
0
0
VERTEX
8
0
10
90.89718125
20
34.69258125
30
0
0
VERTEX
8
0
10
90.86033437500001
20
34.637437500000004
30
0
0
VERTEX
8
0
10
90.82907187500001
20
34.578946875
30
0
0
VERTEX
8
0
10
90.803690625
20
34.517675000000004
30
0
0
VERTEX
8
0
10
90.784440625
20
34.454209375000005
30
0
0
VERTEX
8
0
10
90.7715
20
34.389162500000005
30
0
0
VERTEX
8
0
10
90.765
20
34.323159375
30
0
0
VERTEX
8
0
10
90.765
20
34.256840625
30
0
0
VERTEX
8
0
10
90.7715
20
34.1908375
30
0
0
VERTEX
8
0
10
90.784440625
20
34.125790625
30
0
0
VERTEX
8
0
10
90.803690625
20
34.062325
30
0
0
VERTEX
8
0
10
90.82907187500001
20
34.001053125
30
0
0
VERTEX
8
0
10
90.86033437500001
20
33.9425625
30
0
0
VERTEX
8
0
10
90.89718125
20
33.88741875
30
0
0
VERTEX
8
0
10
90.93925625
20
33.83615
30
0
0
VERTEX
8
0
10
90.98615000000001
20
33.78925625
30
0
0
VERTEX
8
0
10
91.03741875
20
33.747181250000004
30
0
0
VERTEX
8
0
10
91.0925625
20
33.710334375
30
0
0
VERTEX
8
0
10
91.151053125
20
33.679071875
30
0
0
VERTEX
8
0
10
91.212325
20
33.653690625
30
0
0
VERTEX
8
0
10
91.275790625
20
33.634440625
30
0
0
VERTEX
8
0
10
91.3408375
20
33.621500000000005
30
0
0
VERTEX
8
0
10
91.406840625
20
33.615
30
0
0
VERTEX
8
0
10
91.47315937500001
20
33.615
30
0
0
SEQEND
0
POLYLINE
66
1
8
1_copper
10
0.0
20
0.0
30
0.0
70
1
0
VERTEX
8
0
10
92.10040000000001
20
31.476456250000002
30
0
0
VERTEX
8
0
10
92.10040000000001
20
32.02354375
30
0
0
VERTEX
8
0
10
91.71354375
20
32.4104
30
0
0
VERTEX
8
0
10
91.16645625000001
20
32.4104
30
0
0
VERTEX
8
0
10
90.7796
20
32.02354375
30
0
0
VERTEX
8
0
10
90.7796
20
31.476456250000002
30
0
0
VERTEX
8
0
10
91.16645625000001
20
31.0896
30
0
0
VERTEX
8
0
10
91.71354375
20
31.0896
30
0
0
SEQEND
0
POLYLINE
66
1
8
16_copper
10
0.0
20
0.0
30
0.0
70
1
0
VERTEX
8
0
10
91.73894375
20
31.115000000000002
30
0
0
VERTEX
8
0
10
95.25
20
31.115000000000002
30
0
42
0.7420564983044032
0
VERTEX
8
0
10
95.60223437500001
20
32.278353125
30
0
0
VERTEX
8
0
10
91.98436562500001
20
34.690265625
30
0
42
0.22119973944755655
0
VERTEX
8
0
10
91.48454062500001
20
34.963878125
30
0
0
VERTEX
8
0
10
88.9
20
37.54841875
30
0
0
VERTEX
8
0
10
88.9
20
45.247753125
30
0
42
0.198912367379658
0
VERTEX
8
0
10
88.751209375
20
45.6069625
30
0
0
VERTEX
8
0
10
84.69923125000001
20
49.658940625
30
0
0
VERTEX
8
0
10
84.683284375
20
49.673209375
30
0
42
0.06559025173378731
0
VERTEX
8
0
10
84.569984375
20
49.752434375
30
0
0
VERTEX
8
0
10
83.427
20
50.895418750000005
30
0
42
0.6043952766201041
0
VERTEX
8
0
10
82.27738125
20
51.562000000000005
30
0
0
VERTEX
8
0
10
81.05563125
20
51.562000000000005
30
0
42
0.04997188363247443
0
VERTEX
8
0
10
80.925459375
20
51.570078125
30
0
0
VERTEX
8
0
10
80.90704062500001
20
51.580984375
30
0
42
0.12037225681315605
0
VERTEX
8
0
10
80.672825
20
51.638200000000005
30
0
0
VERTEX
8
0
10
64.65021875000001
20
51.638200000000005
30
0
0
VERTEX
8
0
10
64.00800000000001
20
52.28041875
30
0
0
VERTEX
8
0
10
64.00800000000001
20
54.0573375
30
0
42
0.36196660209735365
0
VERTEX
8
0
10
64.135
20
55.00961875
30
0
0
VERTEX
8
0
10
64.135
20
56.455925
30
0
0
VERTEX
8
0
10
64.4398
20
56.760725
30
0
0
VERTEX
8
0
10
64.4398
20
57.539275
30
0
0
VERTEX
8
0
10
63.889275000000005
20
58.089800000000004
30
0
0
VERTEX
8
0
10
63.110725
20
58.089800000000004
30
0
0
VERTEX
8
0
10
62.5602
20
57.539275
30
0
0
VERTEX
8
0
10
62.5602
20
56.760725
30
0
0
VERTEX
8
0
10
62.865
20
56.455925
30
0
0
VERTEX
8
0
10
62.865
20
55.00961875
30
0
42
0.36196660209735365
0
VERTEX
8
0
10
62.992000000000004
20
54.0573375
30
0
0
VERTEX
8
0
10
62.992000000000004
20
52.07
30
0
42
0.198912367379658
0
VERTEX
8
0
10
63.140790625
20
51.710790625
30
0
0
VERTEX
8
0
10
64.080590625
20
50.770990625
30
0
42
0.198912367379658
0
VERTEX
8
0
10
64.4398
20
50.6222
30
0
0
VERTEX
8
0
10
80.46240625
20
50.6222
30
0
0
VERTEX
8
0
10
80.643815625
20
50.440790625000005
30
0
42
0.15627629510337315
0
VERTEX
8
0
10
81.00302500000001
20
50.292
30
0
0
VERTEX
8
0
10
82.27738125
20
50.292
30
0
0
VERTEX
8
0
10
82.290959375
20
50.282928125000005
30
0
42
0.14654659417598986
0
VERTEX
8
0
10
82.70858125000001
20
50.177
30
0
0
VERTEX
8
0
10
83.945059375
20
48.940521875
30
0
42
0.07901125881352801
0
VERTEX
8
0
10
84.07430625
20
48.847028125
30
0
0
VERTEX
8
0
10
87.884
20
45.037334375
30
0
0
VERTEX
8
0
10
87.884
20
37.338
30
0
42
0.198912367379658
0
VERTEX
8
0
10
88.032790625
20
36.978790625
30
0
0
VERTEX
8
0
10
90.76612187500001
20
34.245459375
30
0
42
0.07078464534526005
0
VERTEX
8
0
10
90.805
20
34.059165625
30
0
0
VERTEX
8
0
10
90.805
20
32.04894375
30
0
0
VERTEX
8
0
10
90.7796
20
32.02354375
30
0
0
VERTEX
8
0
10
90.7796
20
31.476456250000002
30
0
0
VERTEX
8
0
10
91.16645625000001
20
31.0896
30
0
0
VERTEX
8
0
10
91.71354375
20
31.0896
30
0
0
SEQEND
0
POLYLINE
66
1
8
1_copper
10
0.0
20
0.0
30
0.0
70
1
0
VERTEX
8
0
10
69.5198
20
56.760725
30
0
0
VERTEX
8
0
10
69.5198
20
57.539275
30
0
0
VERTEX
8
0
10
68.96927500000001
20
58.089800000000004
30
0
0
VERTEX
8
0
10
68.190725
20
58.089800000000004
30
0
0
VERTEX
8
0
10
67.64020000000001
20
57.539275
30
0
0
VERTEX
8
0
10
67.64020000000001
20
56.760725
30
0
0
VERTEX
8
0
10
68.190725
20
56.2102
30
0
0
VERTEX
8
0
10
68.96927500000001
20
56.2102
30
0
0
SEQEND
0
POLYLINE
66
1
8
1_copper
10
0.0
20
0.0
30
0.0
70
1
0
VERTEX
8
0
10
68.69018125000001
20
53.867221875000006
30
0
0
VERTEX
8
0
10
68.76245625
20
53.881600000000006
30
0
0
VERTEX
8
0
10
68.832971875
20
53.902990625
30
0
0
VERTEX
8
0
10
68.901053125
20
53.931190625
30
0
0
VERTEX
8
0
10
68.966040625
20
53.965928125000005
30
0
0
VERTEX
8
0
10
69.02731250000001
20
54.00686875
30
0
0
VERTEX
8
0
10
69.084278125
20
54.053615625
30
0
0
VERTEX
8
0
10
69.136384375
20
54.105721875
30
0
0
VERTEX
8
0
10
69.18313125
20
54.162687500000004
30
0
0
VERTEX
8
0
10
69.224071875
20
54.223959375
30
0
0
VERTEX
8
0
10
69.258809375
20
54.288946875
30
0
0
VERTEX
8
0
10
69.287009375
20
54.357028125
30
0
0
VERTEX
8
0
10
69.3084
20
54.427543750000005
30
0
0
VERTEX
8
0
10
69.322778125
20
54.49981875
30
0
0
VERTEX
8
0
10
69.33
20
54.573156250000004
30
0
0
VERTEX
8
0
10
69.33
20
54.64684375
30
0
0
VERTEX
8
0
10
69.322778125
20
54.72018125
30
0
0
VERTEX
8
0
10
69.3084
20
54.79245625
30
0
0
VERTEX
8
0
10
69.287009375
20
54.862971875
30
0
0
VERTEX
8
0
10
69.258809375
20
54.931053125000005
30
0
0
VERTEX
8
0
10
69.224071875
20
54.996040625
30
0
0
VERTEX
8
0
10
69.18313125
20
55.0573125
30
0
0
VERTEX
8
0
10
69.136384375
20
55.114278125000006
30
0
0
VERTEX
8
0
10
69.084278125
20
55.166384375
30
0
0
VERTEX
8
0
10
69.02731250000001
20
55.21313125
30
0
0
VERTEX
8
0
10
68.966040625
20
55.254071875
30
0
0
VERTEX
8
0
10
68.901053125
20
55.288809375
30
0
0
VERTEX
8
0
10
68.832971875
20
55.317009375000005
30
0
0
VERTEX
8
0
10
68.76245625
20
55.3384
30
0
0
VERTEX
8
0
10
68.69018125000001
20
55.352778125
30
0
0
VERTEX
8
0
10
68.61684375
20
55.36
30
0
0
VERTEX
8
0
10
68.54315625000001
20
55.36
30
0
0
VERTEX
8
0
10
68.46981875
20
55.352778125
30
0
0
VERTEX
8
0
10
68.39754375
20
55.3384
30
0
0
VERTEX
8
0
10
68.327028125
20
55.317009375000005
30
0
0
VERTEX
8
0
10
68.258946875
20
55.288809375
30
0
0
VERTEX
8
0
10
68.193959375
20
55.254071875
30
0
0
VERTEX
8
0
10
68.1326875
20
55.21313125
30
0
0
VERTEX
8
0
10
68.075721875
20
55.166384375
30
0
0
VERTEX
8
0
10
68.023615625
20
55.114278125000006
30
0
0
VERTEX
8
0
10
67.97686875000001
20
55.0573125
30
0
0
VERTEX
8
0
10
67.935928125
20
54.996040625
30
0
0
VERTEX
8
0
10
67.901190625
20
54.931053125000005
30
0
0
VERTEX
8
0
10
67.872990625
20
54.862971875
30
0
0
VERTEX
8
0
10
67.8516
20
54.79245625
30
0
0
VERTEX
8
0
10
67.837221875
20
54.72018125
30
0
0
VERTEX
8
0
10
67.83
20
54.64684375
30
0
0
VERTEX
8
0
10
67.83
20
54.573156250000004
30
0
0
VERTEX
8
0
10
67.837221875
20
54.49981875
30
0
0
VERTEX
8
0
10
67.8516
20
54.427543750000005
30
0
0
VERTEX
8
0
10
67.872990625
20
54.357028125
30
0
0
VERTEX
8
0
10
67.901190625
20
54.288946875
30
0
0
VERTEX
8
0
10
67.935928125
20
54.223959375
30
0
0
VERTEX
8
0
10
67.97686875000001
20
54.162687500000004
30
0
0
VERTEX
8
0
10
68.023615625
20
54.105721875
30
0
0
VERTEX
8
0
10
68.075721875
20
54.053615625
30
0
0
VERTEX
8
0
10
68.1326875
20
54.00686875
30
0
0
VERTEX
8
0
10
68.193959375
20
53.965928125000005
30
0
0
VERTEX
8
0
10
68.258946875
20
53.931190625
30
0
0
VERTEX
8
0
10
68.327028125
20
53.902990625
30
0
0
VERTEX
8
0
10
68.39754375
20
53.881600000000006
30
0
0
VERTEX
8
0
10
68.46981875
20
53.867221875000006
30
0
0
VERTEX
8
0
10
68.54315625000001
20
53.86
30
0
0
VERTEX
8
0
10
68.61684375
20
53.86
30
0
0
SEQEND
0
POLYLINE
66
1
8
1_copper
10
0.0
20
0.0
30
0.0
70
1
0
VERTEX
8
0
10
85.32718125000001
20
52.724221875000005
30
0
0
VERTEX
8
0
10
85.39945625
20
52.738600000000005
30
0
0
VERTEX
8
0
10
85.469971875
20
52.759990625
30
0
0
VERTEX
8
0
10
85.538053125
20
52.788190625000006
30
0
0
VERTEX
8
0
10
85.603040625
20
52.822928125000004
30
0
0
VERTEX
8
0
10
85.66431250000001
20
52.86386875
30
0
0
VERTEX
8
0
10
85.721278125
20
52.910615625000005
30
0
0
VERTEX
8
0
10
85.773384375
20
52.962721875
30
0
0
VERTEX
8
0
10
85.82013125
20
53.0196875
30
0
0
VERTEX
8
0
10
85.86107187500001
20
53.080959375
30
0
0
VERTEX
8
0
10
85.895809375
20
53.145946875
30
0
0
VERTEX
8
0
10
85.924009375
20
53.214028125000006
30
0
0
VERTEX
8
0
10
85.9454
20
53.284543750000005
30
0
0
VERTEX
8
0
10
85.959778125
20
53.35681875
30
0
0
VERTEX
8
0
10
85.967
20
53.43015625
30
0
0
VERTEX
8
0
10
85.967
20
53.50384375
30
0
0
VERTEX
8
0
10
85.959778125
20
53.57718125
30
0
0
VERTEX
8
0
10
85.9454
20
53.64945625
30
0
0
VERTEX
8
0
10
85.924009375
20
53.719971875000006
30
0
0
VERTEX
8
0
10
85.895809375
20
53.788053125000005
30
0
0
VERTEX
8
0
10
85.86107187500001
20
53.853040625000006
30
0
0
VERTEX
8
0
10
85.82013125
20
53.9143125
30
0
0
VERTEX
8
0
10
85.773384375
20
53.971278125000005
30
0
0
VERTEX
8
0
10
85.721278125
20
54.023384375
30
0
0
VERTEX
8
0
10
85.66431250000001
20
54.07013125
30
0
0
VERTEX
8
0
10
85.603040625
20
54.111071875
30
0
0
VERTEX
8
0
10
85.538053125
20
54.145809375000006
30
0
0
VERTEX
8
0
10
85.469971875
20
54.174009375000004
30
0
0
VERTEX
8
0
10
85.39945625
20
54.1954
30
0
0
VERTEX
8
0
10
85.32718125000001
20
54.209778125
30
0
0
VERTEX
8
0
10
85.25384375
20
54.217000000000006
30
0
0
VERTEX
8
0
10
85.18015625000001
20
54.217000000000006
30
0
0
VERTEX
8
0
10
85.10681875
20
54.209778125
30
0
0
VERTEX
8
0
10
85.03454375
20
54.1954
30
0
0
VERTEX
8
0
10
84.964028125
20
54.174009375000004
30
0
0
VERTEX
8
0
10
84.895946875
20
54.145809375000006
30
0
0
VERTEX
8
0
10
84.830959375
20
54.111071875
30
0
0
VERTEX
8
0
10
84.7696875
20
54.07013125
30
0
0
VERTEX
8
0
10
84.712721875
20
54.023384375
30
0
0
VERTEX
8
0
10
84.660615625
20
53.971278125000005
30
0
0
VERTEX
8
0
10
84.61386875000001
20
53.9143125
30
0
0
VERTEX
8
0
10
84.572928125
20
53.853040625000006
30
0
0
VERTEX
8
0
10
84.538190625
20
53.788053125000005
30
0
0
VERTEX
8
0
10
84.509990625
20
53.719971875000006
30
0
0
VERTEX
8
0
10
84.4886
20
53.64945625
30
0
0
VERTEX
8
0
10
84.474221875
20
53.57718125
30
0
0
VERTEX
8
0
10
84.467
20
53.50384375
30
0
0
VERTEX
8
0
10
84.467
20
53.43015625
30
0
0
VERTEX
8
0
10
84.474221875
20
53.35681875
30
0
0
VERTEX
8
0
10
84.4886
20
53.284543750000005
30
0
0
VERTEX
8
0
10
84.509990625
20
53.214028125000006
30
0
0
VERTEX
8
0
10
84.538190625
20
53.145946875
30
0
0
VERTEX
8
0
10
84.572928125
20
53.080959375
30
0
0
VERTEX
8
0
10
84.61386875000001
20
53.0196875
30
0
0
VERTEX
8
0
10
84.660615625
20
52.962721875
30
0
0
VERTEX
8
0
10
84.712721875
20
52.910615625000005
30
0
0
VERTEX
8
0
10
84.7696875
20
52.86386875
30
0
0
VERTEX
8
0
10
84.830959375
20
52.822928125000004
30
0
0
VERTEX
8
0
10
84.895946875
20
52.788190625000006
30
0
0
VERTEX
8
0
10
84.964028125
20
52.759990625
30
0
0
VERTEX
8
0
10
85.03454375
20
52.738600000000005
30
0
0
VERTEX
8
0
10
85.10681875
20
52.724221875000005
30
0
0
VERTEX
8
0
10
85.18015625000001
20
52.717000000000006
30
0
0
VERTEX
8
0
10
85.25384375
20
52.717000000000006
30
0
0
SEQEND
0
POLYLINE
66
1
8
1_copper
10
0.0
20
0.0
30
0.0
70
1
0
VERTEX
8
0
10
91.5391625
20
47.5915
30
0
0
VERTEX
8
0
10
91.60420937500001
20
47.604440625
30
0
0
VERTEX
8
0
10
91.667675
20
47.623690625
30
0
0
VERTEX
8
0
10
91.728946875
20
47.649071875000004
30
0
0
VERTEX
8
0
10
91.78743750000001
20
47.680334375
30
0
0
VERTEX
8
0
10
91.84258125000001
20
47.71718125
30
0
0
VERTEX
8
0
10
91.89385
20
47.75925625
30
0
0
VERTEX
8
0
10
91.94074375000001
20
47.80615
30
0
0
VERTEX
8
0
10
91.98281875
20
47.85741875
30
0
0
VERTEX
8
0
10
92.019665625
20
47.9125625
30
0
0
VERTEX
8
0
10
92.050928125
20
47.971053125000005
30
0
0
VERTEX
8
0
10
92.07630937500001
20
48.032325
30
0
0
VERTEX
8
0
10
92.09555937500001
20
48.095790625
30
0
0
VERTEX
8
0
10
92.1085
20
48.1608375
30
0
0
VERTEX
8
0
10
92.11500000000001
20
48.226840625
30
0
0
VERTEX
8
0
10
92.11500000000001
20
48.293159375
30
0
0
VERTEX
8
0
10
92.1085
20
48.359162500000004
30
0
0
VERTEX
8
0
10
92.09555937500001
20
48.424209375000004
30
0
0
VERTEX
8
0
10
92.07630937500001
20
48.487675
30
0
0
VERTEX
8
0
10
92.050928125
20
48.548946875000006
30
0
0
VERTEX
8
0
10
92.019665625
20
48.6074375
30
0
0
VERTEX
8
0
10
91.98281875
20
48.66258125
30
0
0
VERTEX
8
0
10
91.94074375000001
20
48.71385
30
0
0
VERTEX
8
0
10
91.89385
20
48.76074375
30
0
0
VERTEX
8
0
10
91.84258125000001
20
48.80281875
30
0
0
VERTEX
8
0
10
91.78743750000001
20
48.839665625
30
0
0
VERTEX
8
0
10
91.728946875
20
48.870928125
30
0
0
VERTEX
8
0
10
91.667675
20
48.896309375
30
0
0
VERTEX
8
0
10
91.60420937500001
20
48.915559375
30
0
0
VERTEX
8
0
10
91.5391625
20
48.9285
30
0
0
VERTEX
8
0
10
91.47315937500001
20
48.935
30
0
0
VERTEX
8
0
10
91.406840625
20
48.935
30
0
0
VERTEX
8
0
10
91.3408375
20
48.9285
30
0
0
VERTEX
8
0
10
91.275790625
20
48.915559375
30
0
0
VERTEX
8
0
10
91.212325
20
48.896309375
30
0
0
VERTEX
8
0
10
91.151053125
20
48.870928125
30
0
0
VERTEX
8
0
10
91.0925625
20
48.839665625
30
0
0
VERTEX
8
0
10
91.03741875
20
48.80281875
30
0
0
VERTEX
8
0
10
90.98615000000001
20
48.76074375
30
0
0
VERTEX
8
0
10
90.93925625
20
48.71385
30
0
0
VERTEX
8
0
10
90.89718125
20
48.66258125
30
0
0
VERTEX
8
0
10
90.86033437500001
20
48.6074375
30
0
0
VERTEX
8
0
10
90.82907187500001
20
48.548946875000006
30
0
0
VERTEX
8
0
10
90.803690625
20
48.487675
30
0
0
VERTEX
8
0
10
90.784440625
20
48.424209375000004
30
0
0
VERTEX
8
0
10
90.7715
20
48.359162500000004
30
0
0
VERTEX
8
0
10
90.765
20
48.293159375
30
0
0
VERTEX
8
0
10
90.765
20
48.226840625
30
0
0
VERTEX
8
0
10
90.7715
20
48.1608375
30
0
0
VERTEX
8
0
10
90.784440625
20
48.095790625
30
0
0
VERTEX
8
0
10
90.803690625
20
48.032325
30
0
0
VERTEX
8
0
10
90.82907187500001
20
47.971053125000005
30
0
0
VERTEX
8
0
10
90.86033437500001
20
47.9125625
30
0
0
VERTEX
8
0
10
90.89718125
20
47.85741875
30
0
0
VERTEX
8
0
10
90.93925625
20
47.80615
30
0
0
VERTEX
8
0
10
90.98615000000001
20
47.75925625
30
0
0
VERTEX
8
0
10
91.03741875
20
47.71718125
30
0
0
VERTEX
8
0
10
91.0925625
20
47.680334375
30
0
0
VERTEX
8
0
10
91.151053125
20
47.649071875000004
30
0
0
VERTEX
8
0
10
91.212325
20
47.623690625
30
0
0
VERTEX
8
0
10
91.275790625
20
47.604440625
30
0
0
VERTEX
8
0
10
91.3408375
20
47.5915
30
0
0
VERTEX
8
0
10
91.406840625
20
47.585
30
0
0
VERTEX
8
0
10
91.47315937500001
20
47.585
30
0
0
SEQEND
0
POLYLINE
66
1
8
1_copper
10
0.0
20
0.0
30
0.0
70
1
0
VERTEX
8
0
10
92.10040000000001
20
45.446456250000004
30
0
0
VERTEX
8
0
10
92.10040000000001
20
45.99354375
30
0
0
VERTEX
8
0
10
91.71354375
20
46.3804
30
0
0
VERTEX
8
0
10
91.16645625000001
20
46.3804
30
0
0
VERTEX
8
0
10
90.7796
20
45.99354375
30
0
0
VERTEX
8
0
10
90.7796
20
45.446456250000004
30
0
0
VERTEX
8
0
10
91.16645625000001
20
45.0596
30
0
0
VERTEX
8
0
10
91.71354375
20
45.0596
30
0
0
SEQEND
0
POLYLINE
66
1
8
16_copper
10
0.0
20
0.0
30
0.0
70
1
0
VERTEX
8
0
10
95.25230937500001
20
45.085115625
30
0
42
0.7406473449735349
0
VERTEX
8
0
10
95.60223437500001
20
46.248353125
30
0
0
VERTEX
8
0
10
93.25761875
20
47.811431250000005
30
0
0
VERTEX
8
0
10
91.98436562500001
20
48.660265625
30
0
42
0.43944734646427086
0
VERTEX
8
0
10
90.994990625
20
48.768
30
0
0
VERTEX
8
0
10
90.63441875000001
20
48.768
30
0
0
VERTEX
8
0
10
85.967
20
53.435418750000004
30
0
42
0.41216418810545885
0
VERTEX
8
0
10
85.25384375
20
54.217000000000006
30
0
0
VERTEX
8
0
10
85.18541875000001
20
54.217000000000006
30
0
42
0.26485168335474707
0
VERTEX
8
0
10
84.73440000000001
20
54.4576
30
0
0
VERTEX
8
0
10
69.45081875
20
54.4576
30
0
0
VERTEX
8
0
10
69.33
20
54.578418750000004
30
0
42
0.1521029382540439
0
VERTEX
8
0
10
69.215
20
55.00961875
30
0
0
VERTEX
8
0
10
69.215
20
56.455925
30
0
0
VERTEX
8
0
10
69.5198
20
56.760725
30
0
0
VERTEX
8
0
10
69.5198
20
57.539275
30
0
0
VERTEX
8
0
10
68.96927500000001
20
58.089800000000004
30
0
0
VERTEX
8
0
10
68.190725
20
58.089800000000004
30
0
0
VERTEX
8
0
10
67.64020000000001
20
57.539275
30
0
0
VERTEX
8
0
10
67.64020000000001
20
56.760725
30
0
0
VERTEX
8
0
10
67.94500000000001
20
56.455925
30
0
0
VERTEX
8
0
10
67.94500000000001
20
55.00961875
30
0
42
0.6043952766201041
0
VERTEX
8
0
10
68.61158125
20
53.86
30
0
0
VERTEX
8
0
10
68.881190625
20
53.590390625000005
30
0
42
0.198912367379658
0
VERTEX
8
0
10
69.24040000000001
20
53.4416
30
0
0
VERTEX
8
0
10
84.467
20
53.4416
30
0
42
0.41662605808175746
0
VERTEX
8
0
10
85.24858125
20
52.717000000000006
30
0
0
VERTEX
8
0
10
90.064790625
20
47.900790625
30
0
42
0.198912367379658
0
VERTEX
8
0
10
90.424
20
47.752
30
0
0
VERTEX
8
0
10
90.805
20
47.752
30
0
0
VERTEX
8
0
10
90.805
20
46.018943750000005
30
0
0
VERTEX
8
0
10
90.7796
20
45.99354375
30
0
0
VERTEX
8
0
10
90.7796
20
45.446456250000004
30
0
0
VERTEX
8
0
10
91.16645625000001
20
45.0596
30
0
0
VERTEX
8
0
10
91.71354375
20
45.0596
30
0
0
VERTEX
8
0
10
91.73894375
20
45.085
30
0
0
VERTEX
8
0
10
95.25
20
45.085
30
0
0
SEQEND
0
POLYLINE
66
1
8
1_copper
10
0.0
20
0.0
30
0.0
70
1
0
VERTEX
8
0
10
72.05980000000001
20
56.760725
30
0
0
VERTEX
8
0
10
72.05980000000001
20
57.539275
30
0
0
VERTEX
8
0
10
71.509275
20
58.089800000000004
30
0
0
VERTEX
8
0
10
70.730725
20
58.089800000000004
30
0
0
VERTEX
8
0
10
70.1802
20
57.539275
30
0
0
VERTEX
8
0
10
70.1802
20
56.760725
30
0
0
VERTEX
8
0
10
70.730725
20
56.2102
30
0
0
VERTEX
8
0
10
71.509275
20
56.2102
30
0
0
SEQEND
0
POLYLINE
66
1
8
1_copper
10
0.0
20
0.0
30
0.0
70
1
0
VERTEX
8
0
10
91.5391625
20
53.941500000000005
30
0
0
VERTEX
8
0
10
91.60420937500001
20
53.954440625000004
30
0
0
VERTEX
8
0
10
91.667675
20
53.973690625
30
0
0
VERTEX
8
0
10
91.728946875
20
53.999071875000006
30
0
0
VERTEX
8
0
10
91.78743750000001
20
54.030334375
30
0
0
VERTEX
8
0
10
91.84258125000001
20
54.067181250000004
30
0
0
VERTEX
8
0
10
91.89385
20
54.10925625
30
0
0
VERTEX
8
0
10
91.94074375000001
20
54.156150000000004
30
0
0
VERTEX
8
0
10
91.98281875
20
54.20741875
30
0
0
VERTEX
8
0
10
92.019665625
20
54.2625625
30
0
0
VERTEX
8
0
10
92.050928125
20
54.321053125000006
30
0
0
VERTEX
8
0
10
92.07630937500001
20
54.382325
30
0
0
VERTEX
8
0
10
92.09555937500001
20
54.445790625
30
0
0
VERTEX
8
0
10
92.1085
20
54.5108375
30
0
0
VERTEX
8
0
10
92.11500000000001
20
54.576840625
30
0
0
VERTEX
8
0
10
92.11500000000001
20
54.643159375
30
0
0
VERTEX
8
0
10
92.1085
20
54.709162500000005
30
0
0
VERTEX
8
0
10
92.09555937500001
20
54.774209375000005
30
0
0
VERTEX
8
0
10
92.07630937500001
20
54.837675000000004
30
0
0
VERTEX
8
0
10
92.050928125
20
54.898946875
30
0
0
VERTEX
8
0
10
92.019665625
20
54.957437500000005
30
0
0
VERTEX
8
0
10
91.98281875
20
55.012581250000004
30
0
0
VERTEX
8
0
10
91.94074375000001
20
55.06385
30
0
0
VERTEX
8
0
10
91.89385
20
55.110743750000005
30
0
0
VERTEX
8
0
10
91.84258125000001
20
55.15281875
30
0
0
VERTEX
8
0
10
91.78743750000001
20
55.189665625
30
0
0
VERTEX
8
0
10
91.728946875
20
55.220928125
30
0
0
VERTEX
8
0
10
91.667675
20
55.246309375
30
0
0
VERTEX
8
0
10
91.60420937500001
20
55.265559375
30
0
0
VERTEX
8
0
10
91.5391625
20
55.2785
30
0
0
VERTEX
8
0
10
91.47315937500001
20
55.285000000000004
30
0
0
VERTEX
8
0
10
91.406840625
20
55.285000000000004
30
0
0
VERTEX
8
0
10
91.3408375
20
55.2785
30
0
0
VERTEX
8
0
10
91.275790625
20
55.265559375
30
0
0
VERTEX
8
0
10
91.212325
20
55.246309375
30
0
0
VERTEX
8
0
10
91.151053125
20
55.220928125
30
0
0
VERTEX
8
0
10
91.0925625
20
55.189665625
30
0
0
VERTEX
8
0
10
91.03741875
20
55.15281875
30
0
0
VERTEX
8
0
10
90.98615000000001
20
55.110743750000005
30
0
0
VERTEX
8
0
10
90.93925625
20
55.06385
30
0
0
VERTEX
8
0
10
90.89718125
20
55.012581250000004
30
0
0
VERTEX
8
0
10
90.86033437500001
20
54.957437500000005
30
0
0
VERTEX
8
0
10
90.82907187500001
20
54.898946875
30
0
0
VERTEX
8
0
10
90.803690625
20
54.837675000000004
30
0
0
VERTEX
8
0
10
90.784440625
20
54.774209375000005
30
0
0
VERTEX
8
0
10
90.7715
20
54.709162500000005
30
0
0
VERTEX
8
0
10
90.765
20
54.643159375
30
0
0
VERTEX
8
0
10
90.765
20
54.576840625
30
0
0
VERTEX
8
0
10
90.7715
20
54.5108375
30
0
0
VERTEX
8
0
10
90.784440625
20
54.445790625
30
0
0
VERTEX
8
0
10
90.803690625
20
54.382325
30
0
0
VERTEX
8
0
10
90.82907187500001
20
54.321053125000006
30
0
0
VERTEX
8
0
10
90.86033437500001
20
54.2625625
30
0
0
VERTEX
8
0
10
90.89718125
20
54.20741875
30
0
0
VERTEX
8
0
10
90.93925625
20
54.156150000000004
30
0
0
VERTEX
8
0
10
90.98615000000001
20
54.10925625
30
0
0
VERTEX
8
0
10
91.03741875
20
54.067181250000004
30
0
0
VERTEX
8
0
10
91.0925625
20
54.030334375
30
0
0
VERTEX
8
0
10
91.151053125
20
53.999071875000006
30
0
0
VERTEX
8
0
10
91.212325
20
53.973690625
30
0
0
VERTEX
8
0
10
91.275790625
20
53.954440625000004
30
0
0
VERTEX
8
0
10
91.3408375
20
53.941500000000005
30
0
0
VERTEX
8
0
10
91.406840625
20
53.935
30
0
0
VERTEX
8
0
10
91.47315937500001
20
53.935
30
0
0
SEQEND
0
POLYLINE
66
1
8
1_copper
10
0.0
20
0.0
30
0.0
70
1
0
VERTEX
8
0
10
89.84147187500001
20
53.093528125000006
30
0
0
VERTEX
8
0
10
89.84147187500001
20
53.640621875
30
0
0
VERTEX
8
0
10
89.454621875
20
54.027471875
30
0
0
VERTEX
8
0
10
88.907528125
20
54.027471875
30
0
0
VERTEX
8
0
10
88.520678125
20
53.640621875
30
0
0
VERTEX
8
0
10
88.520678125
20
53.093528125000006
30
0
0
VERTEX
8
0
10
88.907528125
20
52.706678125
30
0
0
VERTEX
8
0
10
89.454621875
20
52.706678125
30
0
0
SEQEND
0
POLYLINE
66
1
8
16_copper
10
0.0
20
0.0
30
0.0
70
1
0
VERTEX
8
0
10
91.98281875
20
55.012581250000004
30
0
42
0.12462196046843124
0
VERTEX
8
0
10
91.72578750000001
20
55.222237500000006
30
0
0
VERTEX
8
0
10
91.2540125
20
55.6940125
30
0
42
0.198912367379658
0
VERTEX
8
0
10
90.805
20
55.88
30
0
0
VERTEX
8
0
10
87.63000000000001
20
55.88
30
0
42
0.16185795294374217
0
VERTEX
8
0
10
87.250296875
20
55.753
30
0
0
VERTEX
8
0
10
72.09241875000001
20
55.753
30
0
0
VERTEX
8
0
10
71.75500000000001
20
56.090418750000005
30
0
0
VERTEX
8
0
10
71.75500000000001
20
56.455925
30
0
0
VERTEX
8
0
10
72.05980000000001
20
56.760725
30
0
0
VERTEX
8
0
10
72.05980000000001
20
57.539275
30
0
0
VERTEX
8
0
10
71.509275
20
58.089800000000004
30
0
0
VERTEX
8
0
10
70.730725
20
58.089800000000004
30
0
0
VERTEX
8
0
10
70.1802
20
57.539275
30
0
0
VERTEX
8
0
10
70.1802
20
56.760725
30
0
0
VERTEX
8
0
10
70.730725
20
56.2102
30
0
0
VERTEX
8
0
10
70.739
20
56.2102
30
0
0
VERTEX
8
0
10
70.739
20
55.88
30
0
42
0.198912367379658
0
VERTEX
8
0
10
70.88779062500001
20
55.520790625000004
30
0
0
VERTEX
8
0
10
71.522790625
20
54.885790625000006
30
0
42
0.198912367379658
0
VERTEX
8
0
10
71.882
20
54.737
30
0
0
VERTEX
8
0
10
87.24979375000001
20
54.737
30
0
42
0.1620208945815709
0
VERTEX
8
0
10
87.63000000000001
20
54.61
30
0
0
VERTEX
8
0
10
89.906975
20
54.61
30
0
0
VERTEX
8
0
10
89.98356875
20
54.533406250000006
30
0
0
VERTEX
8
0
10
89.06406875
20
54.027471875
30
0
0
VERTEX
8
0
10
88.907528125
20
54.027471875
30
0
0
VERTEX
8
0
10
88.520678125
20
53.640621875
30
0
0
VERTEX
8
0
10
88.520678125
20
53.093528125000006
30
0
0
VERTEX
8
0
10
88.907528125
20
52.706678125
30
0
0
VERTEX
8
0
10
88.943446875
20
52.706678125
30
0
0
VERTEX
8
0
10
90.0291375
20
51.620987500000005
30
0
42
0.198912367379658
0
VERTEX
8
0
10
90.47815
20
51.435
30
0
0
VERTEX
8
0
10
95.25
20
51.435
30
0
42
0.7420564983044032
0
VERTEX
8
0
10
95.60223437500001
20
52.598353125
30
0
0
VERTEX
8
0
10
91.98436562500001
20
55.010265625
30
0
0
SEQEND
0
POLYLINE
66
1
8
1_copper
10
0.0
20
0.0
30
0.0
70
1
0
VERTEX
8
0
10
56.8198
20
56.760725
30
0
0
VERTEX
8
0
10
56.8198
20
57.539275
30
0
0
VERTEX
8
0
10
56.269275
20
58.089800000000004
30
0
0
VERTEX
8
0
10
55.490725000000005
20
58.089800000000004
30
0
0
VERTEX
8
0
10
54.940200000000004
20
57.539275
30
0
0
VERTEX
8
0
10
54.940200000000004
20
56.760725
30
0
0
VERTEX
8
0
10
55.490725000000005
20
56.2102
30
0
0
VERTEX
8
0
10
56.269275
20
56.2102
30
0
0
SEQEND
0
POLYLINE
66
1
8
1_copper
10
0.0
20
0.0
30
0.0
70
1
0
VERTEX
8
0
10
55.990181250000006
20
46.247221875
30
0
42
0.5415188693111257
0
VERTEX
8
0
10
56.515
20
47.389618750000004
30
0
0
VERTEX
8
0
10
56.515
20
54.210381250000005
30
0
42
0.9624943965945741
0
VERTEX
8
0
10
55.276868750000006
20
55.0573125
30
0
0
VERTEX
8
0
10
55.235928125
20
54.996040625
30
0
42
0.28259678315689835
0
VERTEX
8
0
10
55.245000000000005
20
54.210381250000005
30
0
0
VERTEX
8
0
10
55.245000000000005
20
47.389618750000004
30
0
0
VERTEX
8
0
10
55.235928125
20
47.376040625
30
0
0
VERTEX
8
0
10
55.201190625
20
47.311053125
30
0
0
VERTEX
8
0
10
55.172990625000004
20
47.242971875
30
0
0
VERTEX
8
0
10
55.1516
20
47.17245625
30
0
0
VERTEX
8
0
10
55.137221875
20
47.100181250000006
30
0
0
VERTEX
8
0
10
55.13
20
47.026843750000005
30
0
0
VERTEX
8
0
10
55.13
20
46.95315625
30
0
0
VERTEX
8
0
10
55.137221875
20
46.879818750000005
30
0
0
VERTEX
8
0
10
55.1516
20
46.80754375
30
0
0
VERTEX
8
0
10
55.172990625000004
20
46.737028125
30
0
0
VERTEX
8
0
10
55.201190625
20
46.668946875
30
0
0
VERTEX
8
0
10
55.235928125
20
46.603959375
30
0
0
VERTEX
8
0
10
55.276868750000006
20
46.5426875
30
0
0
VERTEX
8
0
10
55.323615625
20
46.485721875
30
0
0
VERTEX
8
0
10
55.375721875
20
46.433615625
30
0
0
VERTEX
8
0
10
55.4326875
20
46.386868750000005
30
0
0
VERTEX
8
0
10
55.493959375
20
46.345928125
30
0
0
VERTEX
8
0
10
55.558946875000004
20
46.311190625
30
0
0
VERTEX
8
0
10
55.627028125
20
46.282990625000004
30
0
0
VERTEX
8
0
10
55.69754375
20
46.2616
30
0
0
VERTEX
8
0
10
55.769818750000006
20
46.247221875
30
0
0
VERTEX
8
0
10
55.84315625
20
46.24
30
0
0
VERTEX
8
0
10
55.916843750000005
20
46.24
30
0
0
SEQEND
0
POLYLINE
66
1
8
1_copper
10
0.0
20
0.0
30
0.0
70
1
0
VERTEX
8
0
10
87.10518125
20
25.292221875000003
30
0
42
0.9999999999999999
0
VERTEX
8
0
10
86.88481875000001
20
26.777778125
30
0
0
VERTEX
8
0
10
86.81254375
20
26.7634
30
0
42
0.21590893664615451
0
VERTEX
8
0
10
86.32786875000001
20
26.3779
30
0
0
VERTEX
8
0
10
85.97862500000001
20
26.3779
30
0
0
VERTEX
8
0
10
85.531659375
20
26.824865625
30
0
42
0.23581509533543704
0
VERTEX
8
0
10
85.46010625000001
20
27.04010625
30
0
0
VERTEX
8
0
10
85.26960625000001
20
27.23060625
30
0
42
0.39376405845702667
0
VERTEX
8
0
10
84.9239625
20
27.2422
30
0
0
VERTEX
8
0
10
83.590325
20
27.2422
30
0
0
VERTEX
8
0
10
81.5147625
20
29.3177625
30
0
42
0.198912367379658
0
VERTEX
8
0
10
81.40700000000001
20
29.3624
30
0
0
VERTEX
8
0
10
68.04437812500001
20
29.3624
30
0
42
0.9717258140724931
0
VERTEX
8
0
10
66.567221875
20
29.09981875
30
0
0
VERTEX
8
0
10
66.58160000000001
20
29.027543750000003
30
0
42
0.7969589440871984
0
VERTEX
8
0
10
68.04437812500001
20
29.0576
30
0
0
VERTEX
8
0
10
81.343875
20
29.0576
30
0
0
VERTEX
8
0
10
83.4194375
20
26.9820375
30
0
42
0.198912367379658
0
VERTEX
8
0
10
83.52720000000001
20
26.9374
30
0
0
VERTEX
8
0
10
84.86291250000001
20
26.9374
30
0
42
0.080561714510202
0
VERTEX
8
0
10
84.91039375
20
26.871393750000003
30
0
0
VERTEX
8
0
10
85.10089375
20
26.680893750000003
30
0
42
0.23585927922519045
0
VERTEX
8
0
10
85.316184375
20
26.609290625
30
0
0
VERTEX
8
0
10
85.8077375
20
26.1177375
30
0
42
0.198912367379658
0
VERTEX
8
0
10
85.91550000000001
20
26.0731
30
0
0
VERTEX
8
0
10
86.245125
20
26.0731
30
0
0
VERTEX
8
0
10
86.245
20
26.071843750000003
30
0
0
VERTEX
8
0
10
86.245
20
25.99815625
30
0
0
VERTEX
8
0
10
86.252221875
20
25.92481875
30
0
0
VERTEX
8
0
10
86.26660000000001
20
25.852543750000002
30
0
0
VERTEX
8
0
10
86.287990625
20
25.782028125
30
0
0
VERTEX
8
0
10
86.316190625
20
25.713946875
30
0
0
VERTEX
8
0
10
86.35092812500001
20
25.648959375
30
0
0
VERTEX
8
0
10
86.39186875
20
25.5876875
30
0
0
VERTEX
8
0
10
86.438615625
20
25.530721875
30
0
0
VERTEX
8
0
10
86.490721875
20
25.478615625
30
0
0
VERTEX
8
0
10
86.54768750000001
20
25.43186875
30
0
0
VERTEX
8
0
10
86.608959375
20
25.390928125000002
30
0
0
VERTEX
8
0
10
86.673946875
20
25.356190625
30
0
0
VERTEX
8
0
10
86.742028125
20
25.327990625
30
0
0
VERTEX
8
0
10
86.81254375
20
25.3066
30
0
0
VERTEX
8
0
10
86.88481875000001
20
25.292221875000003
30
0
0
VERTEX
8
0
10
86.95815625
20
25.285
30
0
0
VERTEX
8
0
10
87.03184375000001
20
25.285
30
0
0
SEQEND
0
POLYLINE
66
1
8
1_copper
10
0.0
20
0.0
30
0.0
70
1
0
VERTEX
8
0
10
91.5391625
20
12.031500000000001
30
0
0
VERTEX
8
0
10
91.60420937500001
20
12.044440625
30
0
0
VERTEX
8
0
10
91.667675
20
12.063690625000001
30
0
0
VERTEX
8
0
10
91.728946875
20
12.089071875
30
0
0
VERTEX
8
0
10
91.78743750000001
20
12.120334375
30
0
0
VERTEX
8
0
10
91.84258125000001
20
12.15718125
30
0
0
VERTEX
8
0
10
91.89385
20
12.199256250000001
30
0
0
VERTEX
8
0
10
91.94074375000001
20
12.24615
30
0
0
VERTEX
8
0
10
91.98281875
20
12.29741875
30
0
0
VERTEX
8
0
10
92.019665625
20
12.352562500000001
30
0
0
VERTEX
8
0
10
92.050928125
20
12.411053125
30
0
0
VERTEX
8
0
10
92.07630937500001
20
12.472325000000001
30
0
0
VERTEX
8
0
10
92.09555937500001
20
12.535790625
30
0
0
VERTEX
8
0
10
92.1085
20
12.6008375
30
0
0
VERTEX
8
0
10
92.11500000000001
20
12.666840625
30
0
0
VERTEX
8
0
10
92.11500000000001
20
12.733159375000001
30
0
0
VERTEX
8
0
10
92.1085
20
12.799162500000001
30
0
0
VERTEX
8
0
10
92.09555937500001
20
12.864209375000002
30
0
0
VERTEX
8
0
10
92.07630937500001
20
12.927675
30
0
0
VERTEX
8
0
10
92.050928125
20
12.988946875
30
0
0
VERTEX
8
0
10
92.019665625
20
13.047437500000001
30
0
0
VERTEX
8
0
10
91.98281875
20
13.10258125
30
0
0
VERTEX
8
0
10
91.94074375000001
20
13.15385
30
0
0
VERTEX
8
0
10
91.89385
20
13.20074375
30
0
0
VERTEX
8
0
10
91.84258125000001
20
13.242818750000001
30
0
0
VERTEX
8
0
10
91.78743750000001
20
13.279665625
30
0
0
VERTEX
8
0
10
91.728946875
20
13.310928125
30
0
0
VERTEX
8
0
10
91.667675
20
13.336309375
30
0
0
VERTEX
8
0
10
91.60420937500001
20
13.355559375
30
0
0
VERTEX
8
0
10
91.5391625
20
13.368500000000001
30
0
0
VERTEX
8
0
10
91.47315937500001
20
13.375
30
0
0
VERTEX
8
0
10
91.406840625
20
13.375
30
0
0
VERTEX
8
0
10
91.3408375
20
13.368500000000001
30
0
0
VERTEX
8
0
10
91.275790625
20
13.355559375
30
0
0
VERTEX
8
0
10
91.212325
20
13.336309375
30
0
0
VERTEX
8
0
10
91.151053125
20
13.310928125
30
0
0
VERTEX
8
0
10
91.0925625
20
13.279665625
30
0
0
VERTEX
8
0
10
91.03741875
20
13.242818750000001
30
0
0
VERTEX
8
0
10
90.98615000000001
20
13.20074375
30
0
0
VERTEX
8
0
10
90.93925625
20
13.15385
30
0
0
VERTEX
8
0
10
90.89718125
20
13.10258125
30
0
0
VERTEX
8
0
10
90.86033437500001
20
13.047437500000001
30
0
0
VERTEX
8
0
10
90.82907187500001
20
12.988946875
30
0
0
VERTEX
8
0
10
90.803690625
20
12.927675
30
0
0
VERTEX
8
0
10
90.784440625
20
12.864209375000002
30
0
0
VERTEX
8
0
10
90.7715
20
12.799162500000001
30
0
0
VERTEX
8
0
10
90.765
20
12.733159375000001
30
0
0
VERTEX
8
0
10
90.765
20
12.666840625
30
0
0
VERTEX
8
0
10
90.7715
20
12.6008375
30
0
0
VERTEX
8
0
10
90.784440625
20
12.535790625
30
0
0
VERTEX
8
0
10
90.803690625
20
12.472325000000001
30
0
0
VERTEX
8
0
10
90.82907187500001
20
12.411053125
30
0
0
VERTEX
8
0
10
90.86033437500001
20
12.352562500000001
30
0
0
VERTEX
8
0
10
90.89718125
20
12.29741875
30
0
0
VERTEX
8
0
10
90.93925625
20
12.24615
30
0
0
VERTEX
8
0
10
90.98615000000001
20
12.199256250000001
30
0
0
VERTEX
8
0
10
91.03741875
20
12.15718125
30
0
0
VERTEX
8
0
10
91.0925625
20
12.120334375
30
0
0
VERTEX
8
0
10
91.151053125
20
12.089071875
30
0
0
VERTEX
8
0
10
91.212325
20
12.063690625000001
30
0
0
VERTEX
8
0
10
91.275790625
20
12.044440625
30
0
0
VERTEX
8
0
10
91.3408375
20
12.031500000000001
30
0
0
VERTEX
8
0
10
91.406840625
20
12.025
30
0
0
VERTEX
8
0
10
91.47315937500001
20
12.025
30
0
0
SEQEND
0
POLYLINE
66
1
8
1_copper
10
0.0
20
0.0
30
0.0
70
1
0
VERTEX
8
0
10
92.10040000000001
20
9.88645625
30
0
0
VERTEX
8
0
10
92.10040000000001
20
10.43354375
30
0
0
VERTEX
8
0
10
91.71354375
20
10.820400000000001
30
0
0
VERTEX
8
0
10
91.16645625000001
20
10.820400000000001
30
0
0
VERTEX
8
0
10
90.7796
20
10.43354375
30
0
0
VERTEX
8
0
10
90.7796
20
9.88645625
30
0
0
VERTEX
8
0
10
91.16645625000001
20
9.499600000000001
30
0
0
VERTEX
8
0
10
91.71354375
20
9.499600000000001
30
0
0
SEQEND
0
POLYLINE
66
1
8
16_copper
10
0.0
20
0.0
30
0.0
70
1
0
VERTEX
8
0
10
55.990181250000006
20
53.867221875000006
30
0
42
0.5415188693111257
0
VERTEX
8
0
10
56.515
20
55.00961875
30
0
0
VERTEX
8
0
10
56.515
20
56.455925
30
0
0
VERTEX
8
0
10
56.8198
20
56.760725
30
0
0
VERTEX
8
0
10
56.8198
20
57.539275
30
0
0
VERTEX
8
0
10
56.269275
20
58.089800000000004
30
0
0
VERTEX
8
0
10
55.490725000000005
20
58.089800000000004
30
0
0
VERTEX
8
0
10
54.940200000000004
20
57.539275
30
0
0
VERTEX
8
0
10
54.940200000000004
20
56.760725
30
0
0
VERTEX
8
0
10
55.245000000000005
20
56.455925
30
0
0
VERTEX
8
0
10
55.245000000000005
20
55.00961875
30
0
0
VERTEX
8
0
10
55.235928125
20
54.996040625
30
0
0
VERTEX
8
0
10
55.201190625
20
54.931053125000005
30
0
0
VERTEX
8
0
10
55.172990625000004
20
54.862971875
30
0
0
VERTEX
8
0
10
55.1516
20
54.79245625
30
0
0
VERTEX
8
0
10
55.137221875
20
54.72018125
30
0
0
VERTEX
8
0
10
55.13
20
54.64684375
30
0
0
VERTEX
8
0
10
55.13
20
54.573156250000004
30
0
0
VERTEX
8
0
10
55.137221875
20
54.49981875
30
0
0
VERTEX
8
0
10
55.1516
20
54.427543750000005
30
0
0
VERTEX
8
0
10
55.172990625000004
20
54.357028125
30
0
0
VERTEX
8
0
10
55.201190625
20
54.288946875
30
0
0
VERTEX
8
0
10
55.235928125
20
54.223959375
30
0
0
VERTEX
8
0
10
55.276868750000006
20
54.162687500000004
30
0
0
VERTEX
8
0
10
55.323615625
20
54.105721875
30
0
0
VERTEX
8
0
10
55.375721875
20
54.053615625
30
0
0
VERTEX
8
0
10
55.4326875
20
54.00686875
30
0
0
VERTEX
8
0
10
55.493959375
20
53.965928125000005
30
0
0
VERTEX
8
0
10
55.558946875000004
20
53.931190625
30
0
0
VERTEX
8
0
10
55.627028125
20
53.902990625
30
0
0
VERTEX
8
0
10
55.69754375
20
53.881600000000006
30
0
0
VERTEX
8
0
10
55.769818750000006
20
53.867221875000006
30
0
0
VERTEX
8
0
10
55.84315625
20
53.86
30
0
0
VERTEX
8
0
10
55.916843750000005
20
53.86
30
0
0
SEQEND
0
POLYLINE
66
1
8
16_copper
10
0.0
20
0.0
30
0.0
70
1
0
VERTEX
8
0
10
67.42018125
20
28.467221875
30
0
42
0.8298159350339325
0
VERTEX
8
0
10
67.4764375
20
29.9415875
30
0
0
VERTEX
8
0
10
56.515
20
40.903025
30
0
0
VERTEX
8
0
10
56.515
20
46.59038125
30
0
42
0.9624943965945741
0
VERTEX
8
0
10
55.276868750000006
20
47.437312500000004
30
0
0
VERTEX
8
0
10
55.235928125
20
47.376040625
30
0
42
0.28259678315689835
0
VERTEX
8
0
10
55.245000000000005
20
46.59038125
30
0
0
VERTEX
8
0
10
55.245000000000005
20
40.64
30
0
42
0.198912367379658
0
VERTEX
8
0
10
55.4309875
20
40.1909875
30
0
0
VERTEX
8
0
10
66.5784125
20
29.0435625
30
0
0
VERTEX
8
0
10
66.58160000000001
20
29.027543750000003
30
0
0
VERTEX
8
0
10
66.602990625
20
28.957028125
30
0
0
VERTEX
8
0
10
66.631190625
20
28.888946875000002
30
0
0
VERTEX
8
0
10
66.66592812500001
20
28.823959375
30
0
0
VERTEX
8
0
10
66.70686875
20
28.762687500000002
30
0
0
VERTEX
8
0
10
66.75361562500001
20
28.705721875000002
30
0
0
VERTEX
8
0
10
66.805721875
20
28.653615625
30
0
0
VERTEX
8
0
10
66.8626875
20
28.60686875
30
0
0
VERTEX
8
0
10
66.92395937500001
20
28.565928125000003
30
0
0
VERTEX
8
0
10
66.988946875
20
28.531190625
30
0
0
VERTEX
8
0
10
67.057028125
20
28.502990625000002
30
0
0
VERTEX
8
0
10
67.12754375
20
28.4816
30
0
0
VERTEX
8
0
10
67.19981875
20
28.467221875
30
0
0
VERTEX
8
0
10
67.27315625
20
28.46
30
0
0
VERTEX
8
0
10
67.34684375
20
28.46
30
0
0
SEQEND
0
POLYLINE
66
1
8
16_copper
10
0.0
20
0.0
30
0.0
70
1
0
VERTEX
8
0
10
95.25230937500001
20
9.525115625
30
0
42
0.7406473449735349
0
VERTEX
8
0
10
95.60223437500001
20
10.688353125
30
0
0
VERTEX
8
0
10
91.98436562500001
20
13.100265625
30
0
42
0.22119973944755655
0
VERTEX
8
0
10
91.48454062500001
20
13.373878125000001
30
0
0
VERTEX
8
0
10
87.63000000000001
20
17.22841875
30
0
0
VERTEX
8
0
10
87.63000000000001
20
25.635381250000002
30
0
42
0.9624943965945741
0
VERTEX
8
0
10
86.39186875
20
26.482312500000003
30
0
0
VERTEX
8
0
10
86.35092812500001
20
26.421040625
30
0
42
0.4164426791684785
0
VERTEX
8
0
10
86.614
20
25.388234375
30
0
0
VERTEX
8
0
10
86.614
20
17.018
30
0
42
0.198912367379658
0
VERTEX
8
0
10
86.76279062500001
20
16.658790625
30
0
0
VERTEX
8
0
10
90.76612187500001
20
12.655459375000001
30
0
42
0.07078464534526005
0
VERTEX
8
0
10
90.805
20
12.469165625
30
0
0
VERTEX
8
0
10
90.805
20
10.458943750000001
30
0
0
VERTEX
8
0
10
90.7796
20
10.43354375
30
0
0
VERTEX
8
0
10
90.7796
20
9.88645625
30
0
0
VERTEX
8
0
10
91.16645625000001
20
9.499600000000001
30
0
0
VERTEX
8
0
10
91.71354375
20
9.499600000000001
30
0
0
VERTEX
8
0
10
91.73894375
20
9.525
30
0
0
VERTEX
8
0
10
95.25
20
9.525
30
0
0
SEQEND
0
POLYLINE
66
1
8
1_copper
10
0.0
20
0.0
30
0.0
70
1
0
VERTEX
8
0
10
39.0398
20
56.760725
30
0
0
VERTEX
8
0
10
39.0398
20
57.539275
30
0
0
VERTEX
8
0
10
38.489275
20
58.089800000000004
30
0
0
VERTEX
8
0
10
37.710725000000004
20
58.089800000000004
30
0
0
VERTEX
8
0
10
37.1602
20
57.539275
30
0
0
VERTEX
8
0
10
37.1602
20
56.760725
30
0
0
VERTEX
8
0
10
37.710725000000004
20
56.2102
30
0
0
VERTEX
8
0
10
38.489275
20
56.2102
30
0
0
SEQEND
0
POLYLINE
66
1
8
1_copper
10
0.0
20
0.0
30
0.0
70
1
0
VERTEX
8
0
10
38.210181250000005
20
53.867221875000006
30
0
0
VERTEX
8
0
10
38.28245625
20
53.881600000000006
30
0
0
VERTEX
8
0
10
38.352971875
20
53.902990625
30
0
0
VERTEX
8
0
10
38.421053125
20
53.931190625
30
0
0
VERTEX
8
0
10
38.486040625
20
53.965928125000005
30
0
0
VERTEX
8
0
10
38.547312500000004
20
54.00686875
30
0
0
VERTEX
8
0
10
38.604278125
20
54.053615625
30
0
0
VERTEX
8
0
10
38.656384375
20
54.105721875
30
0
0
VERTEX
8
0
10
38.70313125
20
54.162687500000004
30
0
0
VERTEX
8
0
10
38.744071875
20
54.223959375
30
0
0
VERTEX
8
0
10
38.778809375
20
54.288946875
30
0
0
VERTEX
8
0
10
38.807009375
20
54.357028125
30
0
0
VERTEX
8
0
10
38.8284
20
54.427543750000005
30
0
0
VERTEX
8
0
10
38.842778125
20
54.49981875
30
0
0
VERTEX
8
0
10
38.85
20
54.573156250000004
30
0
0
VERTEX
8
0
10
38.85
20
54.64684375
30
0
0
VERTEX
8
0
10
38.842778125
20
54.72018125
30
0
0
VERTEX
8
0
10
38.8284
20
54.79245625
30
0
0
VERTEX
8
0
10
38.807009375
20
54.862971875
30
0
0
VERTEX
8
0
10
38.778809375
20
54.931053125000005
30
0
0
VERTEX
8
0
10
38.744071875
20
54.996040625
30
0
0
VERTEX
8
0
10
38.70313125
20
55.0573125
30
0
0
VERTEX
8
0
10
38.656384375
20
55.114278125000006
30
0
0
VERTEX
8
0
10
38.604278125
20
55.166384375
30
0
0
VERTEX
8
0
10
38.547312500000004
20
55.21313125
30
0
0
VERTEX
8
0
10
38.486040625
20
55.254071875
30
0
0
VERTEX
8
0
10
38.421053125
20
55.288809375
30
0
0
VERTEX
8
0
10
38.352971875
20
55.317009375000005
30
0
0
VERTEX
8
0
10
38.28245625
20
55.3384
30
0
0
VERTEX
8
0
10
38.210181250000005
20
55.352778125
30
0
0
VERTEX
8
0
10
38.136843750000004
20
55.36
30
0
0
VERTEX
8
0
10
38.06315625
20
55.36
30
0
0
VERTEX
8
0
10
37.989818750000005
20
55.352778125
30
0
0
VERTEX
8
0
10
37.91754375
20
55.3384
30
0
0
VERTEX
8
0
10
37.847028125
20
55.317009375000005
30
0
0
VERTEX
8
0
10
37.778946875
20
55.288809375
30
0
0
VERTEX
8
0
10
37.713959375
20
55.254071875
30
0
0
VERTEX
8
0
10
37.6526875
20
55.21313125
30
0
0
VERTEX
8
0
10
37.595721875
20
55.166384375
30
0
0
VERTEX
8
0
10
37.543615625
20
55.114278125000006
30
0
0
VERTEX
8
0
10
37.496868750000004
20
55.0573125
30
0
0
VERTEX
8
0
10
37.455928125
20
54.996040625
30
0
0
VERTEX
8
0
10
37.421190625
20
54.931053125000005
30
0
0
VERTEX
8
0
10
37.392990625
20
54.862971875
30
0
0
VERTEX
8
0
10
37.3716
20
54.79245625
30
0
0
VERTEX
8
0
10
37.357221875
20
54.72018125
30
0
0
VERTEX
8
0
10
37.35
20
54.64684375
30
0
0
VERTEX
8
0
10
37.35
20
54.573156250000004
30
0
0
VERTEX
8
0
10
37.357221875
20
54.49981875
30
0
0
VERTEX
8
0
10
37.3716
20
54.427543750000005
30
0
0
VERTEX
8
0
10
37.392990625
20
54.357028125
30
0
0
VERTEX
8
0
10
37.421190625
20
54.288946875
30
0
0
VERTEX
8
0
10
37.455928125
20
54.223959375
30
0
0
VERTEX
8
0
10
37.496868750000004
20
54.162687500000004
30
0
0
VERTEX
8
0
10
37.543615625
20
54.105721875
30
0
0
VERTEX
8
0
10
37.595721875
20
54.053615625
30
0
0
VERTEX
8
0
10
37.6526875
20
54.00686875
30
0
0
VERTEX
8
0
10
37.713959375
20
53.965928125000005
30
0
0
VERTEX
8
0
10
37.778946875
20
53.931190625
30
0
0
VERTEX
8
0
10
37.847028125
20
53.902990625
30
0
0
VERTEX
8
0
10
37.91754375
20
53.881600000000006
30
0
0
VERTEX
8
0
10
37.989818750000005
20
53.867221875000006
30
0
0
VERTEX
8
0
10
38.06315625
20
53.86
30
0
0
VERTEX
8
0
10
38.136843750000004
20
53.86
30
0
0
SEQEND
0
POLYLINE
66
1
8
16_copper
10
0.0
20
0.0
30
0.0
70
1
0
VERTEX
8
0
10
38.210181250000005
20
53.867221875000006
30
0
42
0.5415188693111257
0
VERTEX
8
0
10
38.735
20
55.00961875
30
0
0
VERTEX
8
0
10
38.735
20
56.455925
30
0
0
VERTEX
8
0
10
39.0398
20
56.760725
30
0
0
VERTEX
8
0
10
39.0398
20
57.539275
30
0
0
VERTEX
8
0
10
38.489275
20
58.089800000000004
30
0
0
VERTEX
8
0
10
37.710725000000004
20
58.089800000000004
30
0
0
VERTEX
8
0
10
37.1602
20
57.539275
30
0
0
VERTEX
8
0
10
37.1602
20
56.760725
30
0
0
VERTEX
8
0
10
37.465
20
56.455925
30
0
0
VERTEX
8
0
10
37.465
20
55.245000000000005
30
0
0
VERTEX
8
0
10
29.473025
20
55.245000000000005
30
0
0
VERTEX
8
0
10
28.575000000000003
20
56.143025
30
0
0
VERTEX
8
0
10
28.575000000000003
20
60.696975
30
0
0
VERTEX
8
0
10
29.473025
20
61.595000000000006
30
0
0
VERTEX
8
0
10
34.29
20
61.595000000000006
30
0
42
0.41421356237309503
0
VERTEX
8
0
10
34.925000000000004
20
62.230000000000004
30
0
0
VERTEX
8
0
10
34.925000000000004
20
76.2
30
0
42
0.9999999999999999
0
VERTEX
8
0
10
33.655
20
76.2
30
0
0
VERTEX
8
0
10
33.655
20
62.865
30
0
0
VERTEX
8
0
10
29.21
20
62.865
30
0
42
0.198912367379658
0
VERTEX
8
0
10
28.760987500000002
20
62.679012500000006
30
0
0
VERTEX
8
0
10
27.490987500000003
20
61.4090125
30
0
42
0.198912367379658
0
VERTEX
8
0
10
27.305
20
60.96
30
0
0
VERTEX
8
0
10
27.305
20
55.88
30
0
42
0.198912367379658
0
VERTEX
8
0
10
27.490987500000003
20
55.4309875
30
0
0
VERTEX
8
0
10
28.760987500000002
20
54.160987500000005
30
0
42
0.198912367379658
0
VERTEX
8
0
10
29.21
20
53.975
30
0
0
VERTEX
8
0
10
37.70038125
20
53.975
30
0
0
VERTEX
8
0
10
37.713959375
20
53.965928125000005
30
0
0
VERTEX
8
0
10
37.778946875
20
53.931190625
30
0
0
VERTEX
8
0
10
37.847028125
20
53.902990625
30
0
0
VERTEX
8
0
10
37.91754375
20
53.881600000000006
30
0
0
VERTEX
8
0
10
37.989818750000005
20
53.867221875000006
30
0
0
VERTEX
8
0
10
38.06315625
20
53.86
30
0
0
VERTEX
8
0
10
38.136843750000004
20
53.86
30
0
0
SEQEND
0
POLYLINE
66
1
8
1_copper
10
0.0
20
0.0
30
0.0
70
1
0
VERTEX
8
0
10
40.3098
20
77.13980000000001
30
0
0
VERTEX
8
0
10
38.4302
20
77.13980000000001
30
0
0
VERTEX
8
0
10
38.4302
20
75.2602
30
0
0
VERTEX
8
0
10
40.3098
20
75.2602
30
0
0
SEQEND
0
POLYLINE
66
1
8
1_copper
10
0.0
20
0.0
30
0.0
70
1
0
VERTEX
8
0
10
41.5798
20
59.300725
30
0
0
VERTEX
8
0
10
41.5798
20
60.079275
30
0
0
VERTEX
8
0
10
41.029275000000005
20
60.6298
30
0
0
VERTEX
8
0
10
40.250725
20
60.6298
30
0
0
VERTEX
8
0
10
39.7002
20
60.079275
30
0
0
VERTEX
8
0
10
39.7002
20
59.300725
30
0
0
VERTEX
8
0
10
40.250725
20
58.7502
30
0
0
VERTEX
8
0
10
41.029275000000005
20
58.7502
30
0
0
SEQEND
0
POLYLINE
66
1
8
16_copper
10
0.0
20
0.0
30
0.0
70
1
0
VERTEX
8
0
10
41.5798
20
59.300725
30
0
0
VERTEX
8
0
10
41.5798
20
60.079275
30
0
0
VERTEX
8
0
10
41.275
20
60.384075
30
0
0
VERTEX
8
0
10
41.275
20
74.93
30
0
42
0.198912367379658
0
VERTEX
8
0
10
41.0890125
20
75.3790125
30
0
0
VERTEX
8
0
10
40.3098
20
76.158225
30
0
0
VERTEX
8
0
10
40.3098
20
77.13980000000001
30
0
0
VERTEX
8
0
10
38.4302
20
77.13980000000001
30
0
0
VERTEX
8
0
10
38.4302
20
75.2602
30
0
0
VERTEX
8
0
10
39.411775
20
75.2602
30
0
0
VERTEX
8
0
10
40.005
20
74.66697500000001
30
0
0
VERTEX
8
0
10
40.005
20
60.384075
30
0
0
VERTEX
8
0
10
39.7002
20
60.079275
30
0
0
VERTEX
8
0
10
39.7002
20
59.300725
30
0
0
VERTEX
8
0
10
40.250725
20
58.7502
30
0
0
VERTEX
8
0
10
41.029275000000005
20
58.7502
30
0
0
SEQEND
0
POLYLINE
66
1
8
1_copper
10
0.0
20
0.0
30
0.0
70
1
0
VERTEX
8
0
10
39.0398
20
59.300725
30
0
0
VERTEX
8
0
10
39.0398
20
60.079275
30
0
0
VERTEX
8
0
10
38.489275
20
60.6298
30
0
0
VERTEX
8
0
10
37.710725000000004
20
60.6298
30
0
0
VERTEX
8
0
10
37.1602
20
60.079275
30
0
0
VERTEX
8
0
10
37.1602
20
59.300725
30
0
0
VERTEX
8
0
10
37.710725000000004
20
58.7502
30
0
0
VERTEX
8
0
10
38.489275
20
58.7502
30
0
0
SEQEND
0
POLYLINE
66
1
8
16_copper
10
0.0
20
0.0
30
0.0
70
1
0
VERTEX
8
0
10
39.0398
20
59.300725
30
0
0
VERTEX
8
0
10
39.0398
20
60.079275
30
0
0
VERTEX
8
0
10
38.735
20
60.384075
30
0
0
VERTEX
8
0
10
38.735
20
74.47685
30
0
42
0.198912367379658
0
VERTEX
8
0
10
38.5490125
20
74.92586250000001
30
0
0
VERTEX
8
0
10
38.2778
20
75.197075
30
0
0
VERTEX
8
0
10
38.2778
20
75.3872
30
0
42
0.198912367379658
0
VERTEX
8
0
10
38.0918125
20
75.8362125
30
0
0
VERTEX
8
0
10
37.2790125
20
76.6490125
30
0
42
0.9999999999999999
0
VERTEX
8
0
10
36.3809875
20
75.75098750000001
30
0
0
VERTEX
8
0
10
37.0078
20
75.12417500000001
30
0
0
VERTEX
8
0
10
37.0078
20
74.93405
30
0
42
0.198912367379658
0
VERTEX
8
0
10
37.1937875
20
74.4850375
30
0
0
VERTEX
8
0
10
37.465
20
74.213825
30
0
0
VERTEX
8
0
10
37.465
20
60.384075
30
0
0
VERTEX
8
0
10
37.1602
20
60.079275
30
0
0
VERTEX
8
0
10
37.1602
20
59.300725
30
0
0
VERTEX
8
0
10
37.710725000000004
20
58.7502
30
0
0
VERTEX
8
0
10
38.489275
20
58.7502
30
0
0
SEQEND
0
POLYLINE
66
1
8
16_copper
10
0.0
20
0.0
30
0.0
70
1
0
VERTEX
8
0
10
25.4629
20
23.498121875000002
30
0
42
0.9515822171826347
0
VERTEX
8
0
10
25.400000000000002
20
24.765
30
0
0
VERTEX
8
0
10
19.05
20
24.765
30
0
42
0.9676364582332677
0
VERTEX
8
0
10
19.008256250000002
20
23.496375
30
0
0
VERTEX
8
0
10
19.05
20
23.495
30
0
0
VERTEX
8
0
10
25.400000000000002
20
23.495
30
0
0
SEQEND
0
POLYLINE
66
1
8
16_copper
10
0.0
20
0.0
30
0.0
70
1
0
VERTEX
8
0
10
25.4629
20
20.958121875
30
0
42
0.9515822171826347
0
VERTEX
8
0
10
25.400000000000002
20
22.225
30
0
0
VERTEX
8
0
10
19.05
20
22.225
30
0
42
0.9676364582332677
0
VERTEX
8
0
10
19.008256250000002
20
20.956375
30
0
0
VERTEX
8
0
10
19.05
20
20.955000000000002
30
0
0
VERTEX
8
0
10
25.400000000000002
20
20.955000000000002
30
0
0
SEQEND
0
POLYLINE
66
1
8
16_copper
10
0.0
20
0.0
30
0.0
70
1
0
VERTEX
8
0
10
25.4629
20
18.418121875
30
0
42
0.9515822171826347
0
VERTEX
8
0
10
25.400000000000002
20
19.685000000000002
30
0
0
VERTEX
8
0
10
19.05
20
19.685000000000002
30
0
42
0.9676364582332677
0
VERTEX
8
0
10
19.008256250000002
20
18.416375000000002
30
0
0
VERTEX
8
0
10
19.05
20
18.415
30
0
0
VERTEX
8
0
10
25.400000000000002
20
18.415
30
0
0
SEQEND
0
POLYLINE
66
1
8
16_copper
10
0.0
20
0.0
30
0.0
70
1
0
VERTEX
8
0
10
25.4629
20
15.878121875000001
30
0
42
0.9515822171826347
0
VERTEX
8
0
10
25.400000000000002
20
17.145
30
0
0
VERTEX
8
0
10
19.05
20
17.145
30
0
42
0.9676364582332677
0
VERTEX
8
0
10
19.008256250000002
20
15.876375000000001
30
0
0
VERTEX
8
0
10
19.05
20
15.875
30
0
0
VERTEX
8
0
10
25.400000000000002
20
15.875
30
0
0
SEQEND
0
POLYLINE
66
1
8
16_copper
10
0.0
20
0.0
30
0.0
70
1
0
VERTEX
8
0
10
25.4629
20
13.338121875
30
0
42
0.9515822171826347
0
VERTEX
8
0
10
25.400000000000002
20
14.605
30
0
0
VERTEX
8
0
10
19.05
20
14.605
30
0
42
0.9676364582332677
0
VERTEX
8
0
10
19.008256250000002
20
13.336375
30
0
0
VERTEX
8
0
10
19.05
20
13.335
30
0
0
VERTEX
8
0
10
25.400000000000002
20
13.335
30
0
0
SEQEND
0
POLYLINE
66
1
8
16_copper
10
0.0
20
0.0
30
0.0
70
1
0
VERTEX
8
0
10
80.0729
20
-8.251878125000001
30
0
42
0.9515822171826347
0
VERTEX
8
0
10
80.01
20
-6.985
30
0
0
VERTEX
8
0
10
73.66
20
-6.985
30
0
42
0.9676364582332677
0
VERTEX
8
0
10
73.61825625
20
-8.253625
30
0
0
VERTEX
8
0
10
73.66
20
-8.255
30
0
0
VERTEX
8
0
10
80.01
20
-8.255
30
0
0
SEQEND
0
POLYLINE
66
1
8
16_copper
10
0.0
20
0.0
30
0.0
70
1
0
VERTEX
8
0
10
80.0729
20
-5.711878125
30
0
42
0.9515822171826347
0
VERTEX
8
0
10
80.01
20
-4.445
30
0
0
VERTEX
8
0
10
73.66
20
-4.445
30
0
42
0.9676364582332677
0
VERTEX
8
0
10
73.61825625
20
-5.713625
30
0
0
VERTEX
8
0
10
73.66
20
-5.715
30
0
0
VERTEX
8
0
10
80.01
20
-5.715
30
0
0
SEQEND
0
POLYLINE
66
1
8
16_copper
10
0.0
20
0.0
30
0.0
70
1
0
VERTEX
8
0
10
80.0729
20
-3.171878125
30
0
42
0.9515822171826347
0
VERTEX
8
0
10
80.01
20
-1.905
30
0
0
VERTEX
8
0
10
73.66
20
-1.905
30
0
42
0.9676364582332677
0
VERTEX
8
0
10
73.61825625
20
-3.1736250000000004
30
0
0
VERTEX
8
0
10
73.66
20
-3.1750000000000003
30
0
0
VERTEX
8
0
10
80.01
20
-3.1750000000000003
30
0
0
SEQEND
0
POLYLINE
66
1
8
16_copper
10
0.0
20
0.0
30
0.0
70
1
0
VERTEX
8
0
10
80.0729
20
-0.6318781250000001
30
0
42
0.9515822171826347
0
VERTEX
8
0
10
80.01
20
0.635
30
0
0
VERTEX
8
0
10
73.66
20
0.635
30
0
42
0.9676364582332677
0
VERTEX
8
0
10
73.61825625
20
-0.633625
30
0
0
VERTEX
8
0
10
73.66
20
-0.635
30
0
0
VERTEX
8
0
10
80.01
20
-0.635
30
0
0
SEQEND
0
POLYLINE
66
1
8
16_copper
10
0.0
20
0.0
30
0.0
70
1
0
VERTEX
8
0
10
80.0729
20
1.9081218750000002
30
0
42
0.9515822171826347
0
VERTEX
8
0
10
80.01
20
3.1750000000000003
30
0
0
VERTEX
8
0
10
73.66
20
3.1750000000000003
30
0
42
0.9676364582332677
0
VERTEX
8
0
10
73.61825625
20
1.9063750000000002
30
0
0
VERTEX
8
0
10
73.66
20
1.905
30
0
0
VERTEX
8
0
10
80.01
20
1.905
30
0
0
SEQEND
0
POLYLINE
66
1
8
16_copper
10
0.0
20
0.0
30
0.0
70
1
0
VERTEX
8
0
10
80.0729
20
4.448121875
30
0
42
0.9515822171826347
0
VERTEX
8
0
10
80.01
20
5.715
30
0
0
VERTEX
8
0
10
73.66
20
5.715
30
0
42
0.9676364582332677
0
VERTEX
8
0
10
73.61825625
20
4.446375000000001
30
0
0
VERTEX
8
0
10
73.66
20
4.445
30
0
0
VERTEX
8
0
10
80.01
20
4.445
30
0
0
SEQEND
0
POLYLINE
66
1
8
16_copper
10
0.0
20
0.0
30
0.0
70
1
0
VERTEX
8
0
10
80.0729
20
8.258121875
30
0
42
0.9515822171826347
0
VERTEX
8
0
10
80.01
20
9.525
30
0
0
VERTEX
8
0
10
73.66
20
9.525
30
0
42
0.9676364582332677
0
VERTEX
8
0
10
73.61825625
20
8.256375
30
0
0
VERTEX
8
0
10
73.66
20
8.255
30
0
0
VERTEX
8
0
10
80.01
20
8.255
30
0
0
SEQEND
0
POLYLINE
66
1
8
16_copper
10
0.0
20
0.0
30
0.0
70
1
0
VERTEX
8
0
10
80.0729
20
10.798121875
30
0
42
0.9515822171826347
0
VERTEX
8
0
10
80.01
20
12.065000000000001
30
0
0
VERTEX
8
0
10
73.66
20
12.065000000000001
30
0
42
0.9676364582332677
0
VERTEX
8
0
10
73.61825625
20
10.796375000000001
30
0
0
VERTEX
8
0
10
73.66
20
10.795
30
0
0
VERTEX
8
0
10
80.01
20
10.795
30
0
0
SEQEND
0
POLYLINE
66
1
8
16_copper
10
0.0
20
0.0
30
0.0
70
1
0
VERTEX
8
0
10
80.0729
20
13.338121875
30
0
42
0.9515822171826347
0
VERTEX
8
0
10
80.01
20
14.605
30
0
0
VERTEX
8
0
10
73.66
20
14.605
30
0
42
0.9676364582332677
0
VERTEX
8
0
10
73.61825625
20
13.336375
30
0
0
VERTEX
8
0
10
73.66
20
13.335
30
0
0
VERTEX
8
0
10
80.01
20
13.335
30
0
0
SEQEND
0
POLYLINE
66
1
8
16_copper
10
0.0
20
0.0
30
0.0
70
1
0
VERTEX
8
0
10
80.0729
20
15.878121875000001
30
0
42
0.9515822171826347
0
VERTEX
8
0
10
80.01
20
17.145
30
0
0
VERTEX
8
0
10
73.66
20
17.145
30
0
42
0.9676364582332677
0
VERTEX
8
0
10
73.61825625
20
15.876375000000001
30
0
0
VERTEX
8
0
10
73.66
20
15.875
30
0
0
VERTEX
8
0
10
80.01
20
15.875
30
0
0
SEQEND
0
POLYLINE
66
1
8
16_copper
10
0.0
20
0.0
30
0.0
70
1
0
VERTEX
8
0
10
80.0729
20
18.418121875
30
0
42
0.9515822171826347
0
VERTEX
8
0
10
80.01
20
19.685000000000002
30
0
0
VERTEX
8
0
10
73.66
20
19.685000000000002
30
0
42
0.9676364582332677
0
VERTEX
8
0
10
73.61825625
20
18.416375000000002
30
0
0
VERTEX
8
0
10
73.66
20
18.415
30
0
0
VERTEX
8
0
10
80.01
20
18.415
30
0
0
SEQEND
0
POLYLINE
66
1
8
16_copper
10
0.0
20
0.0
30
0.0
70
1
0
VERTEX
8
0
10
80.0729
20
20.958121875
30
0
42
0.9515822171826347
0
VERTEX
8
0
10
80.01
20
22.225
30
0
0
VERTEX
8
0
10
73.66
20
22.225
30
0
42
0.9676364582332677
0
VERTEX
8
0
10
73.61825625
20
20.956375
30
0
0
VERTEX
8
0
10
73.66
20
20.955000000000002
30
0
0
VERTEX
8
0
10
80.01
20
20.955000000000002
30
0
0
SEQEND
0
POLYLINE
66
1
8
16_copper
10
0.0
20
0.0
30
0.0
70
1
0
VERTEX
8
0
10
80.0729
20
23.498121875000002
30
0
42
0.9515822171826347
0
VERTEX
8
0
10
80.01
20
24.765
30
0
0
VERTEX
8
0
10
73.66
20
24.765
30
0
42
0.9676364582332677
0
VERTEX
8
0
10
73.61825625
20
23.496375
30
0
0
VERTEX
8
0
10
73.66
20
23.495
30
0
0
VERTEX
8
0
10
80.01
20
23.495
30
0
0
SEQEND
0
POLYLINE
66
1
8
16_copper
10
0.0
20
0.0
30
0.0
70
1
0
VERTEX
8
0
10
80.0729
20
26.038121875
30
0
42
0.9515822171826347
0
VERTEX
8
0
10
80.01
20
27.305
30
0
0
VERTEX
8
0
10
73.66
20
27.305
30
0
42
0.9676364582332677
0
VERTEX
8
0
10
73.61825625
20
26.036375
30
0
0
VERTEX
8
0
10
73.66
20
26.035
30
0
0
VERTEX
8
0
10
80.01
20
26.035
30
0
0
SEQEND
0
POLYLINE
66
1
8
16_copper
10
0.0
20
0.0
30
0.0
70
1
0
VERTEX
8
0
10
80.0729
20
31.118121875
30
0
42
0.9515822171826347
0
VERTEX
8
0
10
80.01
20
32.385
30
0
0
VERTEX
8
0
10
73.66
20
32.385
30
0
42
0.9676364582332677
0
VERTEX
8
0
10
73.61825625
20
31.116375
30
0
0
VERTEX
8
0
10
73.66
20
31.115000000000002
30
0
0
VERTEX
8
0
10
80.01
20
31.115000000000002
30
0
0
SEQEND
0
POLYLINE
66
1
8
16_copper
10
0.0
20
0.0
30
0.0
70
1
0
VERTEX
8
0
10
80.0729
20
33.658121875
30
0
42
0.9515822171826347
0
VERTEX
8
0
10
80.01
20
34.925000000000004
30
0
0
VERTEX
8
0
10
73.66
20
34.925000000000004
30
0
42
0.9676364582332677
0
VERTEX
8
0
10
73.61825625
20
33.656375000000004
30
0
0
VERTEX
8
0
10
73.66
20
33.655
30
0
0
VERTEX
8
0
10
80.01
20
33.655
30
0
0
SEQEND
0
POLYLINE
66
1
8
16_copper
10
0.0
20
0.0
30
0.0
70
1
0
VERTEX
8
0
10
80.0729
20
36.198121875
30
0
42
0.9515822171826347
0
VERTEX
8
0
10
80.01
20
37.465
30
0
0
VERTEX
8
0
10
73.66
20
37.465
30
0
42
0.9676364582332677
0
VERTEX
8
0
10
73.61825625
20
36.196375
30
0
0
VERTEX
8
0
10
73.66
20
36.195
30
0
0
VERTEX
8
0
10
80.01
20
36.195
30
0
0
SEQEND
0
POLYLINE
66
1
8
16_copper
10
0.0
20
0.0
30
0.0
70
1
0
VERTEX
8
0
10
80.0729
20
38.738121875000004
30
0
42
0.9515822171826347
0
VERTEX
8
0
10
80.01
20
40.005
30
0
0
VERTEX
8
0
10
73.66
20
40.005
30
0
42
0.9676364582332677
0
VERTEX
8
0
10
73.61825625
20
38.736375
30
0
0
VERTEX
8
0
10
73.66
20
38.735
30
0
0
VERTEX
8
0
10
80.01
20
38.735
30
0
0
SEQEND
0
POLYLINE
66
1
8
16_copper
10
0.0
20
0.0
30
0.0
70
1
0
VERTEX
8
0
10
80.0729
20
41.278121875000004
30
0
42
0.9515822171826347
0
VERTEX
8
0
10
80.01
20
42.545
30
0
0
VERTEX
8
0
10
73.66
20
42.545
30
0
42
0.9676364582332677
0
VERTEX
8
0
10
73.61825625
20
41.276375
30
0
0
VERTEX
8
0
10
73.66
20
41.275
30
0
0
VERTEX
8
0
10
80.01
20
41.275
30
0
0
SEQEND
0
POLYLINE
66
1
8
16_copper
10
0.0
20
0.0
30
0.0
70
1
0
VERTEX
8
0
10
80.0729
20
43.818121875
30
0
42
0.9515822171826347
0
VERTEX
8
0
10
80.01
20
45.085
30
0
0
VERTEX
8
0
10
73.66
20
45.085
30
0
42
0.9676364582332677
0
VERTEX
8
0
10
73.61825625
20
43.816375
30
0
0
VERTEX
8
0
10
73.66
20
43.815000000000005
30
0
0
VERTEX
8
0
10
80.01
20
43.815000000000005
30
0
0
SEQEND
0
POLYLINE
66
1
8
16_copper
10
0.0
20
0.0
30
0.0
70
1
0
VERTEX
8
0
10
80.0729
20
46.358121875
30
0
42
0.9515822171826347
0
VERTEX
8
0
10
80.01
20
47.625
30
0
0
VERTEX
8
0
10
73.66
20
47.625
30
0
42
0.9676364582332677
0
VERTEX
8
0
10
73.61825625
20
46.356375
30
0
0
VERTEX
8
0
10
73.66
20
46.355000000000004
30
0
0
VERTEX
8
0
10
80.01
20
46.355000000000004
30
0
0
SEQEND
0
POLYLINE
66
1
8
16_copper
10
0.0
20
0.0
30
0.0
70
1
0
VERTEX
8
0
10
80.0729
20
48.898121875
30
0
42
0.9515822171826347
0
VERTEX
8
0
10
80.01
20
50.165
30
0
0
VERTEX
8
0
10
73.66
20
50.165
30
0
42
0.9676364582332677
0
VERTEX
8
0
10
73.61825625
20
48.896375
30
0
0
VERTEX
8
0
10
73.66
20
48.895
30
0
0
VERTEX
8
0
10
80.01
20
48.895
30
0
0
SEQEND
0
POLYLINE
66
1
8
16_copper
10
0.0
20
0.0
30
0.0
70
1
0
VERTEX
8
0
10
25.4629
20
-4.441878125000001
30
0
42
0.9515822171826347
0
VERTEX
8
0
10
25.400000000000002
20
-3.1750000000000003
30
0
0
VERTEX
8
0
10
19.05
20
-3.1750000000000003
30
0
42
0.9676364582332677
0
VERTEX
8
0
10
19.008256250000002
20
-4.443625
30
0
0
VERTEX
8
0
10
19.05
20
-4.445
30
0
0
VERTEX
8
0
10
25.400000000000002
20
-4.445
30
0
0
SEQEND
0
POLYLINE
66
1
8
16_copper
10
0.0
20
0.0
30
0.0
70
1
0
VERTEX
8
0
10
25.4629
20
8.258121875
30
0
42
0.9515822171826347
0
VERTEX
8
0
10
25.400000000000002
20
9.525
30
0
0
VERTEX
8
0
10
19.05
20
9.525
30
0
42
0.9676364582332677
0
VERTEX
8
0
10
19.008256250000002
20
8.256375
30
0
0
VERTEX
8
0
10
19.05
20
8.255
30
0
0
VERTEX
8
0
10
25.400000000000002
20
8.255
30
0
0
SEQEND
0
POLYLINE
66
1
8
16_copper
10
0.0
20
0.0
30
0.0
70
1
0
VERTEX
8
0
10
25.4629
20
-1.901878125
30
0
42
0.9515822171826347
0
VERTEX
8
0
10
25.400000000000002
20
-0.635
30
0
0
VERTEX
8
0
10
19.05
20
-0.635
30
0
42
0.9676364582332677
0
VERTEX
8
0
10
19.008256250000002
20
-1.9036250000000001
30
0
0
VERTEX
8
0
10
19.05
20
-1.905
30
0
0
VERTEX
8
0
10
25.400000000000002
20
-1.905
30
0
0
SEQEND
0
POLYLINE
66
1
8
16_copper
10
0.0
20
0.0
30
0.0
70
1
0
VERTEX
8
0
10
25.4629
20
-6.981878125000001
30
0
42
0.9515822171826347
0
VERTEX
8
0
10
25.400000000000002
20
-5.715
30
0
0
VERTEX
8
0
10
19.05
20
-5.715
30
0
42
0.9676364582332677
0
VERTEX
8
0
10
19.008256250000002
20
-6.983625
30
0
0
VERTEX
8
0
10
19.05
20
-6.985
30
0
0
VERTEX
8
0
10
25.400000000000002
20
-6.985
30
0
0
SEQEND
0
POLYLINE
66
1
8
1_copper
10
0.0
20
0.0
30
0.0
70
1
0
VERTEX
8
0
10
51.7398
20
56.760725
30
0
0
VERTEX
8
0
10
51.7398
20
57.539275
30
0
0
VERTEX
8
0
10
51.189275
20
58.089800000000004
30
0
0
VERTEX
8
0
10
50.410725
20
58.089800000000004
30
0
0
VERTEX
8
0
10
49.8602
20
57.539275
30
0
0
VERTEX
8
0
10
49.8602
20
56.760725
30
0
0
VERTEX
8
0
10
50.410725
20
56.2102
30
0
0
VERTEX
8
0
10
51.189275
20
56.2102
30
0
0
SEQEND
0
POLYLINE
66
1
8
16_copper
10
0.0
20
0.0
30
0.0
70
1
0
VERTEX
8
0
10
45.727962500000004
20
-23.49460625
30
0
42
0.19565366282764757
0
VERTEX
8
0
10
46.1690125
20
-23.3090125
30
0
0
VERTEX
8
0
10
51.2490125
20
-18.2290125
30
0
42
0.198912367379658
0
VERTEX
8
0
10
51.435
20
-17.78
30
0
0
VERTEX
8
0
10
51.435
20
56.455925
30
0
0
VERTEX
8
0
10
51.7398
20
56.760725
30
0
0
VERTEX
8
0
10
51.7398
20
57.539275
30
0
0
VERTEX
8
0
10
51.189275
20
58.089800000000004
30
0
0
VERTEX
8
0
10
50.410725
20
58.089800000000004
30
0
0
VERTEX
8
0
10
49.8602
20
57.539275
30
0
0
VERTEX
8
0
10
49.8602
20
56.760725
30
0
0
VERTEX
8
0
10
50.165
20
56.455925
30
0
0
VERTEX
8
0
10
50.165
20
-17.516975000000002
30
0
0
VERTEX
8
0
10
45.456975
20
-22.225
30
0
0
VERTEX
8
0
10
19.05
20
-22.225
30
0
42
0.9676364582332677
0
VERTEX
8
0
10
19.008256250000002
20
-23.493625
30
0
0
VERTEX
8
0
10
19.05
20
-23.495
30
0
0
VERTEX
8
0
10
45.72
20
-23.495
30
0
0
SEQEND
0
POLYLINE
66
1
8
1_copper
10
0.0
20
0.0
30
0.0
70
1
0
VERTEX
8
0
10
49.1998
20
56.760725
30
0
0
VERTEX
8
0
10
49.1998
20
57.539275
30
0
0
VERTEX
8
0
10
48.649275
20
58.089800000000004
30
0
0
VERTEX
8
0
10
47.870725
20
58.089800000000004
30
0
0
VERTEX
8
0
10
47.3202
20
57.539275
30
0
0
VERTEX
8
0
10
47.3202
20
56.760725
30
0
0
VERTEX
8
0
10
47.870725
20
56.2102
30
0
0
VERTEX
8
0
10
48.649275
20
56.2102
30
0
0
SEQEND
0
POLYLINE
66
1
8
16_copper
10
0.0
20
0.0
30
0.0
70
1
0
VERTEX
8
0
10
44.4579625
20
-20.95460625
30
0
42
0.19565366282764757
0
VERTEX
8
0
10
44.899012500000005
20
-20.769012500000002
30
0
0
VERTEX
8
0
10
48.7090125
20
-16.9590125
30
0
42
0.198912367379658
0
VERTEX
8
0
10
48.895
20
-16.51
30
0
0
VERTEX
8
0
10
48.895
20
56.455925
30
0
0
VERTEX
8
0
10
49.1998
20
56.760725
30
0
0
VERTEX
8
0
10
49.1998
20
57.539275
30
0
0
VERTEX
8
0
10
48.649275
20
58.089800000000004
30
0
0
VERTEX
8
0
10
47.870725
20
58.089800000000004
30
0
0
VERTEX
8
0
10
47.3202
20
57.539275
30
0
0
VERTEX
8
0
10
47.3202
20
56.760725
30
0
0
VERTEX
8
0
10
47.625
20
56.455925
30
0
0
VERTEX
8
0
10
47.625
20
-16.246975
30
0
0
VERTEX
8
0
10
44.186975000000004
20
-19.685000000000002
30
0
0
VERTEX
8
0
10
19.05
20
-19.685000000000002
30
0
42
0.9676364582332677
0
VERTEX
8
0
10
19.008256250000002
20
-20.953625000000002
30
0
0
VERTEX
8
0
10
19.05
20
-20.955000000000002
30
0
0
VERTEX
8
0
10
44.45
20
-20.955000000000002
30
0
0
SEQEND
0
POLYLINE
66
1
8
1_copper
10
0.0
20
0.0
30
0.0
70
1
0
VERTEX
8
0
10
46.659800000000004
20
56.760725
30
0
0
VERTEX
8
0
10
46.659800000000004
20
57.539275
30
0
0
VERTEX
8
0
10
46.109275000000004
20
58.089800000000004
30
0
0
VERTEX
8
0
10
45.330725
20
58.089800000000004
30
0
0
VERTEX
8
0
10
44.7802
20
57.539275
30
0
0
VERTEX
8
0
10
44.7802
20
56.760725
30
0
0
VERTEX
8
0
10
45.330725
20
56.2102
30
0
0
VERTEX
8
0
10
46.109275000000004
20
56.2102
30
0
0
SEQEND
0
POLYLINE
66
1
8
16_copper
10
0.0
20
0.0
30
0.0
70
1
0
VERTEX
8
0
10
41.9179625
20
-18.414606250000002
30
0
42
0.19565366282764757
0
VERTEX
8
0
10
42.3590125
20
-18.2290125
30
0
0
VERTEX
8
0
10
46.0166125
20
-14.571412500000001
30
0
42
0.198912367379658
0
VERTEX
8
0
10
46.202600000000004
20
-14.1224
30
0
0
VERTEX
8
0
10
46.202600000000004
20
56.303525
30
0
0
VERTEX
8
0
10
46.659800000000004
20
56.760725
30
0
0
VERTEX
8
0
10
46.659800000000004
20
57.539275
30
0
0
VERTEX
8
0
10
46.109275000000004
20
58.089800000000004
30
0
0
VERTEX
8
0
10
45.330725
20
58.089800000000004
30
0
0
VERTEX
8
0
10
44.7802
20
57.539275
30
0
0
VERTEX
8
0
10
44.7802
20
56.760725
30
0
0
VERTEX
8
0
10
44.9326
20
56.608325
30
0
0
VERTEX
8
0
10
44.9326
20
-13.859375
30
0
0
VERTEX
8
0
10
41.646975000000005
20
-17.145
30
0
0
VERTEX
8
0
10
19.05
20
-17.145
30
0
42
0.9676364582332677
0
VERTEX
8
0
10
19.008256250000002
20
-18.413625
30
0
0
VERTEX
8
0
10
19.05
20
-18.415
30
0
0
VERTEX
8
0
10
41.910000000000004
20
-18.415
30
0
0
SEQEND
0
POLYLINE
66
1
8
1_copper
10
0.0
20
0.0
30
0.0
70
1
0
VERTEX
8
0
10
44.119800000000005
20
56.760725
30
0
0
VERTEX
8
0
10
44.119800000000005
20
57.539275
30
0
0
VERTEX
8
0
10
43.569275000000005
20
58.089800000000004
30
0
0
VERTEX
8
0
10
42.790725
20
58.089800000000004
30
0
0
VERTEX
8
0
10
42.2402
20
57.539275
30
0
0
VERTEX
8
0
10
42.2402
20
56.760725
30
0
0
VERTEX
8
0
10
42.790725
20
56.2102
30
0
0
VERTEX
8
0
10
43.569275000000005
20
56.2102
30
0
0
SEQEND
0
POLYLINE
66
1
8
16_copper
10
0.0
20
0.0
30
0.0
70
1
0
VERTEX
8
0
10
39.3779625
20
-15.874606250000001
30
0
42
0.19565366282764757
0
VERTEX
8
0
10
39.8190125
20
-15.6890125
30
0
0
VERTEX
8
0
10
43.6290125
20
-11.8790125
30
0
42
0.198912367379658
0
VERTEX
8
0
10
43.815000000000005
20
-11.43
30
0
0
VERTEX
8
0
10
43.815000000000005
20
56.455925
30
0
0
VERTEX
8
0
10
44.119800000000005
20
56.760725
30
0
0
VERTEX
8
0
10
44.119800000000005
20
57.539275
30
0
0
VERTEX
8
0
10
43.569275000000005
20
58.089800000000004
30
0
0
VERTEX
8
0
10
42.790725
20
58.089800000000004
30
0
0
VERTEX
8
0
10
42.2402
20
57.539275
30
0
0
VERTEX
8
0
10
42.2402
20
56.760725
30
0
0
VERTEX
8
0
10
42.545
20
56.455925
30
0
0
VERTEX
8
0
10
42.545
20
-11.166975
30
0
0
VERTEX
8
0
10
39.106975
20
-14.605
30
0
0
VERTEX
8
0
10
19.05
20
-14.605
30
0
42
0.9676364582332677
0
VERTEX
8
0
10
19.008256250000002
20
-15.873625
30
0
0
VERTEX
8
0
10
19.05
20
-15.875
30
0
0
VERTEX
8
0
10
39.370000000000005
20
-15.875
30
0
0
SEQEND
0
POLYLINE
66
1
8
1_copper
10
0.0
20
0.0
30
0.0
70
1
0
VERTEX
8
0
10
41.5798
20
56.760725
30
0
0
VERTEX
8
0
10
41.5798
20
57.539275
30
0
0
VERTEX
8
0
10
41.029275000000005
20
58.089800000000004
30
0
0
VERTEX
8
0
10
40.250725
20
58.089800000000004
30
0
0
VERTEX
8
0
10
39.7002
20
57.539275
30
0
0
VERTEX
8
0
10
39.7002
20
56.760725
30
0
0
VERTEX
8
0
10
40.250725
20
56.2102
30
0
0
VERTEX
8
0
10
41.029275000000005
20
56.2102
30
0
0
SEQEND
0
POLYLINE
66
1
8
16_copper
10
0.0
20
0.0
30
0.0
70
1
0
VERTEX
8
0
10
38.1079625
20
-13.33460625
30
0
42
0.19565366282764757
0
VERTEX
8
0
10
38.5490125
20
-13.149012500000001
30
0
0
VERTEX
8
0
10
41.0890125
20
-10.6090125
30
0
42
0.198912367379658
0
VERTEX
8
0
10
41.275
20
-10.16
30
0
0
VERTEX
8
0
10
41.275
20
56.455925
30
0
0
VERTEX
8
0
10
41.5798
20
56.760725
30
0
0
VERTEX
8
0
10
41.5798
20
57.539275
30
0
0
VERTEX
8
0
10
41.029275000000005
20
58.089800000000004
30
0
0
VERTEX
8
0
10
40.250725
20
58.089800000000004
30
0
0
VERTEX
8
0
10
39.7002
20
57.539275
30
0
0
VERTEX
8
0
10
39.7002
20
56.760725
30
0
0
VERTEX
8
0
10
40.005
20
56.455925
30
0
0
VERTEX
8
0
10
40.005
20
-9.896975000000001
30
0
0
VERTEX
8
0
10
37.836975
20
-12.065000000000001
30
0
0
VERTEX
8
0
10
19.05
20
-12.065000000000001
30
0
42
0.9676364582332677
0
VERTEX
8
0
10
19.008256250000002
20
-13.333625000000001
30
0
0
VERTEX
8
0
10
19.05
20
-13.335
30
0
0
VERTEX
8
0
10
38.1
20
-13.335
30
0
0
SEQEND
0
CIRCLE
8
drills_PTH
10
25.400000000000002
20
39.370000000000005
30
0
40
0.508
0
CIRCLE
8
drills_PTH
10
25.400000000000002
20
41.910000000000004
30
0
40
0.508
0
CIRCLE
8
drills_PTH
10
25.400000000000002
20
44.45
30
0
40
0.508
0
CIRCLE
8
drills_PTH
10
25.400000000000002
20
46.99
30
0
40
0.508
0
CIRCLE
8
drills_PTH
10
25.400000000000002
20
49.53
30
0
40
0.508
0
CIRCLE
8
drills_PTH
10
25.400000000000002
20
52.07
30
0
40
0.508
0
CIRCLE
8
drills_PTH
10
25.400000000000002
20
54.61
30
0
40
0.508
0
CIRCLE
8
drills_PTH
10
25.400000000000002
20
36.83
30
0
40
0.508
0
CIRCLE
8
drills_PTH
10
73.66
20
34.29
30
0
40
0.508
0
CIRCLE
8
drills_PTH
10
73.66
20
36.83
30
0
40
0.508
0
CIRCLE
8
drills_PTH
10
73.66
20
39.370000000000005
30
0
40
0.508
0
CIRCLE
8
drills_PTH
10
73.66
20
41.910000000000004
30
0
40
0.508
0
CIRCLE
8
drills_PTH
10
73.66
20
44.45
30
0
40
0.508
0
CIRCLE
8
drills_PTH
10
73.66
20
46.99
30
0
40
0.508
0
CIRCLE
8
drills_PTH
10
73.66
20
49.53
30
0
40
0.508
0
CIRCLE
8
drills_PTH
10
73.66
20
31.75
30
0
40
0.508
0
CIRCLE
8
drills_PTH
10
25.400000000000002
20
16.51
30
0
40
0.508
0
CIRCLE
8
drills_PTH
10
25.400000000000002
20
19.05
30
0
40
0.508
0
CIRCLE
8
drills_PTH
10
25.400000000000002
20
21.59
30
0
40
0.508
0
CIRCLE
8
drills_PTH
10
25.400000000000002
20
24.130000000000003
30
0
40
0.508
0
CIRCLE
8
drills_PTH
10
25.400000000000002
20
26.67
30
0
40
0.508
0
CIRCLE
8
drills_PTH
10
25.400000000000002
20
29.21
30
0
40
0.508
0
CIRCLE
8
drills_PTH
10
25.400000000000002
20
31.75
30
0
40
0.508
0
CIRCLE
8
drills_PTH
10
25.400000000000002
20
13.97
30
0
40
0.508
0
CIRCLE
8
drills_PTH
10
73.66
20
11.43
30
0
40
0.508
0
CIRCLE
8
drills_PTH
10
73.66
20
13.97
30
0
40
0.508
0
CIRCLE
8
drills_PTH
10
73.66
20
16.51
30
0
40
0.508
0
CIRCLE
8
drills_PTH
10
73.66
20
19.05
30
0
40
0.508
0
CIRCLE
8
drills_PTH
10
73.66
20
21.59
30
0
40
0.508
0
CIRCLE
8
drills_PTH
10
73.66
20
24.130000000000003
30
0
40
0.508
0
CIRCLE
8
drills_PTH
10
73.66
20
26.67
30
0
40
0.508
0
CIRCLE
8
drills_PTH
10
73.66
20
8.89
30
0
40
0.508
0
CIRCLE
8
drills_PTH
10
73.66
20
-10.16
30
0
40
0.508
0
CIRCLE
8
drills_PTH
10
73.66
20
-7.62
30
0
40
0.508
0
CIRCLE
8
drills_PTH
10
73.66
20
-5.08
30
0
40
0.508
0
CIRCLE
8
drills_PTH
10
73.66
20
-2.54
30
0
40
0.508
0
CIRCLE
8
drills_PTH
10
73.66
20
0
30
0
40
0.508
0
CIRCLE
8
drills_PTH
10
73.66
20
2.54
30
0
40
0.508
0
CIRCLE
8
drills_PTH
10
73.66
20
5.08
30
0
40
0.508
0
CIRCLE
8
drills_PTH
10
73.66
20
-12.700000000000001
30
0
40
0.508
0
CIRCLE
8
drills_PTH
10
53.34
20
59.690000000000005
30
0
40
0.508
0
CIRCLE
8
drills_PTH
10
53.34
20
57.150000000000006
30
0
40
0.508
0
CIRCLE
8
drills_PTH
10
55.88
20
59.690000000000005
30
0
40
0.508
0
CIRCLE
8
drills_PTH
10
55.88
20
57.150000000000006
30
0
40
0.508
0
CIRCLE
8
drills_PTH
10
58.42
20
59.690000000000005
30
0
40
0.508
0
CIRCLE
8
drills_PTH
10
58.42
20
57.150000000000006
30
0
40
0.508
0
CIRCLE
8
drills_PTH
10
60.96
20
59.690000000000005
30
0
40
0.508
0
CIRCLE
8
drills_PTH
10
60.96
20
57.150000000000006
30
0
40
0.508
0
CIRCLE
8
drills_PTH
10
63.5
20
59.690000000000005
30
0
40
0.508
0
CIRCLE
8
drills_PTH
10
63.5
20
57.150000000000006
30
0
40
0.508
0
CIRCLE
8
drills_PTH
10
66.04
20
59.690000000000005
30
0
40
0.508
0
CIRCLE
8
drills_PTH
10
66.04
20
57.150000000000006
30
0
40
0.508
0
CIRCLE
8
drills_PTH
10
68.58
20
59.690000000000005
30
0
40
0.508
0
CIRCLE
8
drills_PTH
10
68.58
20
57.150000000000006
30
0
40
0.508
0
CIRCLE
8
drills_PTH
10
71.12
20
59.690000000000005
30
0
40
0.508
0
CIRCLE
8
drills_PTH
10
71.12
20
57.150000000000006
30
0
40
0.508
0
CIRCLE
8
drills_PTH
10
33.02
20
59.690000000000005
30
0
40
0.508
0
CIRCLE
8
drills_PTH
10
33.02
20
57.150000000000006
30
0
40
0.508
0
CIRCLE
8
drills_PTH
10
35.56
20
59.690000000000005
30
0
40
0.508
0
CIRCLE
8
drills_PTH
10
35.56
20
57.150000000000006
30
0
40
0.508
0
CIRCLE
8
drills_PTH
10
38.1
20
59.690000000000005
30
0
40
0.508
0
CIRCLE
8
drills_PTH
10
38.1
20
57.150000000000006
30
0
40
0.508
0
CIRCLE
8
drills_PTH
10
40.64
20
59.690000000000005
30
0
40
0.508
0
CIRCLE
8
drills_PTH
10
40.64
20
57.150000000000006
30
0
40
0.508
0
CIRCLE
8
drills_PTH
10
43.18
20
59.690000000000005
30
0
40
0.508
0
CIRCLE
8
drills_PTH
10
43.18
20
57.150000000000006
30
0
40
0.508
0
CIRCLE
8
drills_PTH
10
45.72
20
59.690000000000005
30
0
40
0.508
0
CIRCLE
8
drills_PTH
10
45.72
20
57.150000000000006
30
0
40
0.508
0
CIRCLE
8
drills_PTH
10
48.260000000000005
20
59.690000000000005
30
0
40
0.508
0
CIRCLE
8
drills_PTH
10
48.260000000000005
20
57.150000000000006
30
0
40
0.508
0
CIRCLE
8
drills_PTH
10
50.800000000000004
20
59.690000000000005
30
0
40
0.508
0
CIRCLE
8
drills_PTH
10
50.800000000000004
20
57.150000000000006
30
0
40
0.508
0
CIRCLE
8
drills_PTH
10
30.48
20
57.150000000000006
30
0
40
0.508
0
CIRCLE
8
drills_PTH
10
30.48
20
59.690000000000005
30
0
40
0.508
0
CIRCLE
8
drills_PTH
10
73.66
20
57.150000000000006
30
0
40
0.508
0
CIRCLE
8
drills_PTH
10
73.66
20
59.690000000000005
30
0
40
0.508
0
CIRCLE
8
drills_PTH
10
25.400000000000002
20
-3.81
30
0
40
0.508
0
CIRCLE
8
drills_PTH
10
25.400000000000002
20
-1.27
30
0
40
0.508
0
CIRCLE
8
drills_PTH
10
25.400000000000002
20
1.27
30
0
40
0.508
0
CIRCLE
8
drills_PTH
10
25.400000000000002
20
3.81
30
0
40
0.508
0
CIRCLE
8
drills_PTH
10
25.400000000000002
20
6.3500000000000005
30
0
40
0.508
0
CIRCLE
8
drills_PTH
10
25.400000000000002
20
8.89
30
0
40
0.508
0
CIRCLE
8
drills_PTH
10
73.66
20
-15.24
30
0
40
0.508
0
CIRCLE
8
drills_PTH
10
73.66
20
-17.78
30
0
40
0.508
0
CIRCLE
8
drills_PTH
10
25.400000000000002
20
-6.3500000000000005
30
0
40
0.508
0
CIRCLE
8
drills_PTH
10
25.400000000000002
20
-8.89
30
0
40
0.508
0
CIRCLE
8
drills_PTH
10
20.32
20
76.2
30
0
40
0.508
0
CIRCLE
8
drills_PTH
10
17.78
20
76.2
30
0
40
0.508
0
CIRCLE
8
drills_PTH
10
15.24
20
76.2
30
0
40
0.508
0
CIRCLE
8
drills_PTH
10
12.700000000000001
20
76.2
30
0
40
0.508
0
CIRCLE
8
drills_PTH
10
10.16
20
76.2
30
0
40
0.508
0
CIRCLE
8
drills_PTH
10
7.62
20
76.2
30
0
40
0.508
0
CIRCLE
8
drills_PTH
10
55.88
20
76.2
30
0
40
0.508
0
CIRCLE
8
drills_PTH
10
53.34
20
76.2
30
0
40
0.508
0
CIRCLE
8
drills_PTH
10
50.800000000000004
20
76.2
30
0
40
0.508
0
CIRCLE
8
drills_PTH
10
48.260000000000005
20
76.2
30
0
40
0.508
0
CIRCLE
8
drills_PTH
10
45.72
20
76.2
30
0
40
0.508
0
CIRCLE
8
drills_PTH
10
43.18
20
76.2
30
0
40
0.508
0
CIRCLE
8
drills_PTH
10
73.152
20
76.2
30
0
40
0.508
0
CIRCLE
8
drills_PTH
10
70.61200000000001
20
76.2
30
0
40
0.508
0
CIRCLE
8
drills_PTH
10
68.072
20
76.2
30
0
40
0.508
0
CIRCLE
8
drills_PTH
10
65.532
20
76.2
30
0
40
0.508
0
CIRCLE
8
drills_PTH
10
62.992000000000004
20
76.2
30
0
40
0.508
0
CIRCLE
8
drills_PTH
10
60.452000000000005
20
76.2
30
0
40
0.508
0
CIRCLE
8
drills_PTH
10
5.08
20
30.48
30
0
40
0.508
0
CIRCLE
8
drills_PTH
10
5.08
20
33.02
30
0
40
0.508
0
CIRCLE
8
drills_PTH
10
5.08
20
35.56
30
0
40
0.508
0
CIRCLE
8
drills_PTH
10
5.08
20
38.1
30
0
40
0.508
0
CIRCLE
8
drills_PTH
10
5.08
20
40.64
30
0
40
0.508
0
CIRCLE
8
drills_PTH
10
95.25
20
15.24
30
0
40
0.508
0
CIRCLE
8
drills_PTH
10
95.25
20
17.78
30
0
40
0.508
0
CIRCLE
8
drills_PTH
10
95.25
20
36.83
30
0
40
0.508
0
CIRCLE
8
drills_PTH
10
95.25
20
39.370000000000005
30
0
40
0.508
0
CIRCLE
8
drills_PTH
10
95.25
20
1.27
30
0
40
0.508
0
CIRCLE
8
drills_PTH
10
95.25
20
3.81
30
0
40
0.508
0
CIRCLE
8
drills_PTH
10
95.25
20
21.59
30
0
40
0.508
0
CIRCLE
8
drills_PTH
10
95.25
20
24.130000000000003
30
0
40
0.508
0
CIRCLE
8
drills_PTH
10
95.25
20
29.21
30
0
40
0.508
0
CIRCLE
8
drills_PTH
10
95.25
20
31.75
30
0
40
0.508
0
CIRCLE
8
drills_PTH
10
95.25
20
43.18
30
0
40
0.508
0
CIRCLE
8
drills_PTH
10
95.25
20
45.72
30
0
40
0.508
0
CIRCLE
8
drills_PTH
10
95.25
20
49.53
30
0
40
0.508
0
CIRCLE
8
drills_PTH
10
95.25
20
52.07
30
0
40
0.508
0
CIRCLE
8
drills_PTH
10
95.25
20
7.62
30
0
40
0.508
0
CIRCLE
8
drills_PTH
10
95.25
20
10.16
30
0
40
0.508
0
CIRCLE
8
drills_PTH
10
39.370000000000005
20
76.2
30
0
40
0.508
0
CIRCLE
8
drills_PTH
10
36.83
20
76.2
30
0
40
0.508
0
CIRCLE
8
drills_PTH
10
34.29
20
76.2
30
0
40
0.508
0
CIRCLE
8
drills_PTH
10
19.05
20
24.130000000000003
30
0
40
0.508
0
CIRCLE
8
drills_PTH
10
19.05
20
21.59
30
0
40
0.508
0
CIRCLE
8
drills_PTH
10
19.05
20
19.05
30
0
40
0.508
0
CIRCLE
8
drills_PTH
10
19.05
20
16.51
30
0
40
0.508
0
CIRCLE
8
drills_PTH
10
19.05
20
13.97
30
0
40
0.508
0
CIRCLE
8
drills_PTH
10
80.01
20
-7.62
30
0
40
0.508
0
CIRCLE
8
drills_PTH
10
80.01
20
-5.08
30
0
40
0.508
0
CIRCLE
8
drills_PTH
10
80.01
20
-2.54
30
0
40
0.508
0
CIRCLE
8
drills_PTH
10
80.01
20
0
30
0
40
0.508
0
CIRCLE
8
drills_PTH
10
80.01
20
2.54
30
0
40
0.508
0
CIRCLE
8
drills_PTH
10
80.01
20
5.08
30
0
40
0.508
0
CIRCLE
8
drills_PTH
10
80.01
20
8.89
30
0
40
0.508
0
CIRCLE
8
drills_PTH
10
80.01
20
11.43
30
0
40
0.508
0
CIRCLE
8
drills_PTH
10
80.01
20
13.97
30
0
40
0.508
0
CIRCLE
8
drills_PTH
10
80.01
20
16.51
30
0
40
0.508
0
CIRCLE
8
drills_PTH
10
80.01
20
19.05
30
0
40
0.508
0
CIRCLE
8
drills_PTH
10
80.01
20
21.59
30
0
40
0.508
0
CIRCLE
8
drills_PTH
10
80.01
20
24.130000000000003
30
0
40
0.508
0
CIRCLE
8
drills_PTH
10
80.01
20
26.67
30
0
40
0.508
0
CIRCLE
8
drills_PTH
10
80.01
20
31.75
30
0
40
0.508
0
CIRCLE
8
drills_PTH
10
80.01
20
34.29
30
0
40
0.508
0
CIRCLE
8
drills_PTH
10
80.01
20
36.83
30
0
40
0.508
0
CIRCLE
8
drills_PTH
10
80.01
20
39.370000000000005
30
0
40
0.508
0
CIRCLE
8
drills_PTH
10
80.01
20
41.910000000000004
30
0
40
0.508
0
CIRCLE
8
drills_PTH
10
80.01
20
44.45
30
0
40
0.508
0
CIRCLE
8
drills_PTH
10
80.01
20
46.99
30
0
40
0.508
0
CIRCLE
8
drills_PTH
10
80.01
20
49.53
30
0
40
0.508
0
CIRCLE
8
drills_PTH
10
19.05
20
8.89
30
0
40
0.508
0
CIRCLE
8
drills_PTH
10
19.05
20
6.3500000000000005
30
0
40
0.508
0
CIRCLE
8
drills_PTH
10
19.05
20
3.81
30
0
40
0.508
0
CIRCLE
8
drills_PTH
10
19.05
20
1.27
30
0
40
0.508
0
CIRCLE
8
drills_PTH
10
19.05
20
-1.27
30
0
40
0.508
0
CIRCLE
8
drills_PTH
10
19.05
20
-3.81
30
0
40
0.508
0
CIRCLE
8
drills_PTH
10
19.05
20
-6.3500000000000005
30
0
40
0.508
0
CIRCLE
8
drills_PTH
10
19.05
20
-22.86
30
0
40
0.508
0
CIRCLE
8
drills_PTH
10
19.05
20
-20.32
30
0
40
0.508
0
CIRCLE
8
drills_PTH
10
19.05
20
-17.78
30
0
40
0.508
0
CIRCLE
8
drills_PTH
10
19.05
20
-15.24
30
0
40
0.508
0
CIRCLE
8
drills_PTH
10
19.05
20
-12.700000000000001
30
0
40
0.508
0
CIRCLE
8
drills_via_1_16
10
38.1
20
54.61
30
0
40
0.5
0
CIRCLE
8
drills_via_1_16
10
58.42
20
54.61
30
0
40
0.5
0
CIRCLE
8
drills_via_1_16
10
58.42
20
46.99
30
0
40
0.5
0
CIRCLE
8
drills_via_1_16
10
69.85000000000001
20
30.48
30
0
40
0.5
0
CIRCLE
8
drills_via_1_16
10
86.614
20
27.672600000000003
30
0
40
0.5
0
CIRCLE
8
drills_via_1_16
10
83.947
20
52.197
30
0
40
0.5
0
CIRCLE
8
drills_via_1_16
10
60.96
20
54.61
30
0
40
0.5
0
CIRCLE
8
drills_via_1_16
10
60.96
20
46.99
30
0
40
0.5
0
CIRCLE
8
drills_via_1_16
10
71.12
20
31.75
30
0
40
0.5
0
CIRCLE
8
drills_via_1_16
10
83.82000000000001
20
29.21
30
0
40
0.5
0
CIRCLE
8
drills_via_1_16
10
63.5
20
54.61
30
0
40
0.5
0
CIRCLE
8
drills_via_1_16
10
82.677
20
50.927
30
0
40
0.5
0
CIRCLE
8
drills_via_1_16
10
68.58
20
54.61
30
0
40
0.5
0
CIRCLE
8
drills_via_1_16
10
85.217
20
53.467000000000006
30
0
40
0.5
0
CIRCLE
8
drills_via_1_16
10
55.88
20
54.61
30
0
40
0.5
0
CIRCLE
8
drills_via_1_16
10
55.88
20
46.99
30
0
40
0.5
0
CIRCLE
8
drills_via_1_16
10
67.31
20
29.21
30
0
40
0.5
0
CIRCLE
8
drills_via_1_16
10
53.34
20
54.61
30
0
40
0.5
0
CIRCLE
8
drills_via_1_16
10
53.34
20
46.99
30
0
40
0.5
0
CIRCLE
8
drills_via_1_16
10
66.04
20
27.94
30
0
40
0.5
0
CIRCLE
8
drills_via_1_16
10
83.82000000000001
20
26.035
30
0
40
0.5
0
CIRCLE
8
drills_via_1_16
10
86.995
20
26.035
30
0
40
0.5
0
CIRCLE
8
drills_via_1_16
10
66.04
20
54.61
30
0
40
0.5
0
CIRCLE
8
drills_via_1_16
10
91.44
20
5.588
30
0
40
0.45
0
CIRCLE
8
drills_via_1_16
10
91.44
20
41.275
30
0
40
0.45
0
CIRCLE
8
drills_via_1_16
10
91.44
20
54.61
30
0
40
0.45
0
CIRCLE
8
drills_via_1_16
10
91.44
20
26.67
30
0
40
0.45
0
CIRCLE
8
drills_via_1_16
10
91.44
20
48.260000000000005
30
0
40
0.45
0
CIRCLE
8
drills_via_1_16
10
91.44
20
34.29
30
0
40
0.45
0
CIRCLE
8
drills_via_1_16
10
91.313
20
19.685000000000002
30
0
40
0.45
0
CIRCLE
8
drills_via_1_16
10
91.44
20
12.700000000000001
30
0
40
0.45
0
CIRCLE
8
drills_PTH
10
83.792921875
20
47.978921875000005
30
0
40
0.40640000000000004
0
CIRCLE
8
drills_PTH
10
89.181075
20
53.367075
30
0
40
0.40640000000000004
0
CIRCLE
8
drills_PTH
10
83.82000000000001
20
24.130000000000003
30
0
40
0.40640000000000004
0
CIRCLE
8
drills_PTH
10
91.44
20
24.130000000000003
30
0
40
0.40640000000000004
0
CIRCLE
8
drills_PTH
10
83.82000000000001
20
10.16
30
0
40
0.40640000000000004
0
CIRCLE
8
drills_PTH
10
83.82000000000001
20
39.370000000000005
30
0
40
0.40640000000000004
0
CIRCLE
8
drills_PTH
10
91.44
20
39.370000000000005
30
0
40
0.40640000000000004
0
CIRCLE
8
drills_PTH
10
83.82000000000001
20
31.75
30
0
40
0.40640000000000004
0
CIRCLE
8
drills_PTH
10
91.44
20
31.75
30
0
40
0.40640000000000004
0
CIRCLE
8
drills_PTH
10
83.82000000000001
20
17.78
30
0
40
0.40640000000000004
0
CIRCLE
8
drills_PTH
10
91.44
20
17.78
30
0
40
0.40640000000000004
0
CIRCLE
8
drills_PTH
10
83.82000000000001
20
45.72
30
0
40
0.40640000000000004
0
CIRCLE
8
drills_PTH
10
91.44
20
45.72
30
0
40
0.40640000000000004
0
CIRCLE
8
drills_PTH
10
83.82000000000001
20
3.81
30
0
40
0.40640000000000004
0
CIRCLE
8
drills_PTH
10
91.44
20
3.81
30
0
40
0.40640000000000004
0
CIRCLE
8
drills_PTH
10
91.44
20
10.16
30
0
40
0.40640000000000004
0
ENDSEC
0
EOF